<?xml version="1.0" standalone="no"?>
<!DOCTYPE svg PUBLIC "-//W3C//DTD SVG 1.1//EN" "http://www.w3.org/Graphics/SVG/1.1/DTD/svg11.dtd" >
<svg xmlns="http://www.w3.org/2000/svg" xmlns:xlink="http://www.w3.org/1999/xlink" version="1.1">
<metadata>
Created by FontForge 20161003 at Mon Jun 17 06:38:01 2019
 By www-data
2018, Creatype Studio Co.
</metadata>
<defs>
<font id="Aksana" horiz-adv-x="0" >
  <font-face 
    font-family="Aksana"
    font-weight="400"
    font-stretch="normal"
    units-per-em="1000"
    panose-1="0 0 0 0 0 0 0 0 0 0"
    ascent="800"
    descent="-200"
    x-height="349"
    cap-height="892"
    bbox="-349 -335 1177 929.17"
    underline-thickness="50"
    underline-position="-200"
    unicode-range="U+000A-00A0"
  />
<missing-glyph horiz-adv-x="500" 
 />
    <glyph glyph-name=".notdef" horiz-adv-x="500" 
 />
    <glyph glyph-name=".notdef" horiz-adv-x="500" 
 />
    <glyph glyph-name=".null" 
 />
    <glyph glyph-name="nonmarkingreturn" horiz-adv-x="333" 
 />
    <glyph glyph-name="LF" unicode="&#xa;" 
 />
    <glyph glyph-name="controlCR" unicode="&#xd;" 
 />
    <glyph glyph-name="space" unicode=" " horiz-adv-x="200" 
 />
    <glyph glyph-name="exclam" unicode="!" horiz-adv-x="247" 
d="M83 265q34 111 125 332q4 10 7 17q10 20 24 14q17 -7 8 -33q-1 -2 -13 -30q-47 -116 -91 -236q-41 -110 -56 -161q-2 -9 -8 -23q-2 -4 -5.5 -5t-5.5 2q-7 13 -3 44q3 17 8 40q0 3 10 39zM98 238q15 55 56 170.5t56 137.5q-18 -20 -65.5 -156t-46.5 -152zM97 261
q45 145 96 264q-15 -18 -56 -131t-40 -133zM35 72q8 18 22 19q9 0 13 -8t-1 -18q-8 -18 -34 -67q-2 -5 -5.5 -5.5t-4.5 3.5q-3 6 -3 9q-2 34 13 67z" />
    <glyph glyph-name="question" unicode="?" horiz-adv-x="445" 
d="M393 479q-3 -25 -23 -56t-50 -60q-22 -21 -86 -81q-7 -7 -32.5 -30t-39.5 -36q-51 -50 -70 -91q-3 -6 -7 -5q-4 0 -8 6q-9 18 -5 35q3 16 10 26q17 22 23 29q26 27 60 57q16 15 50 45.5t52 47.5q36 33 62 69q20 27 29 55q9 25 0 51q-8 23 -32 27q-20 4 -38 -1
q-88 -22 -131 -94q-8 -14 -9 -15q-2 -3 -6 -3t-7 4q-5 6 -7 14q-4 29 14 49q15 17 37 33q39 29 80 43q60 20 110 -31q34 -36 24 -88zM369 451q-56 -75 -117 -129q17 4 66.5 59.5t50.5 69.5zM369 466q-19 -29 -68.5 -86t-66.5 -64q20 5 77.5 72t57.5 78zM51 13q-1 3 -1 30
q7 21 7 22q4 9 12.5 12t16.5 -2q8 -4 11 -12t-1 -16q-9 -18 -25 -49q-4 -8 -9 -6.5t-8 9.5q-3 7 -3 12z" />
    <glyph glyph-name="A" unicode="A" horiz-adv-x="713" 
d="M718 276q-65 47 -157 59q-14 -224 9 -325q-47 16 -62.5 105.5t-5.5 224.5q-88 2 -210 -22q-119 -213 -174 -399q-27 68 3 180q28 109 11 181q-176 -46 -235 -49q-102 -4 -111 72q-1 3 -1 6q1 40 31.5 69.5t77.5 40t97 8t94.5 -27.5t65.5 -67q24 5 76 15q49 89 114 185
t121 167.5t103 123.5q-98 -1 -217.5 -21t-217.5 -48t-169 -60t-81 -57q-5 -10 5.5 -20.5t34 -16.5t53.5 -2q-10 -5 -26 -7.5t-33.5 -1t-32 8t-21.5 21t-3 35.5q12 53 114 101.5t230.5 76.5t251.5 41t178 3q2 -1 3 -1v0q14 -3 23 -17t4 -26q-34 -63 -58.5 -181.5
t-36.5 -256.5q78 -2 118 -29t34 -89zM-58 705q52 26 157.5 64.5t140.5 37.5q-16 3 -51.5 -5t-75.5 -21.5t-78 -28t-64 -28t-29 -19.5zM-16 742q3 1 17 6.5t18.5 7.5t19.5 7.5t23 8t24.5 8l28.5 9.5t30.5 9t35.5 9t38.5 9t43.5 10q-33 5 -152 -31t-127 -53zM456 634
q-23 -10 -79 -96t-109 -183l8 2q34 61 68 117t66 103t46 57zM423 615q-20 -10 -78.5 -98t-99.5 -166l10 2q70 129 168 262zM-181 301q85 -15 294 24q-24 40 -68.5 55t-89 7t-83 -31.5t-53.5 -54.5zM164 221q16 36 36 76q-15 -4 -35 -9q5 -31 -1 -67zM210 234q13 26 39 74
l-7 -1q-31 -61 -32 -73zM212 272l17 32l-8 -2q-8 -21 -9 -30zM77 305q21 -5 187 29t223 33q-20 9 -91.5 -2.5t-172 -32.5t-146.5 -27zM319 365q117 21 188 27q16 168 57 328q-132 -163 -245 -355zM522 248q3 45 6 91h-6q-4 -69 0 -91zM527 393h3h3q13 138 37 233
q-12 -17 -24 -85t-19 -148zM539 129q-2 102 6 208q-6 1 -7 1q-9 -128 1 -209zM550 394q19 205 58 331q-19 -43 -37 -135.5t-29 -195.5h8z" />
    <glyph glyph-name="A" unicode="&#xc5;" horiz-adv-x="713" 
d="M718 276q-65 47 -157 59q-14 -224 9 -325q-47 16 -62.5 105.5t-5.5 224.5q-88 2 -210 -22q-119 -213 -174 -399q-27 68 3 180q28 109 11 181q-176 -46 -235 -49q-102 -4 -111 72q-1 3 -1 6q1 40 31.5 69.5t77.5 40t97 8t94.5 -27.5t65.5 -67q24 5 76 15q49 89 114 185
t121 167.5t103 123.5q-98 -1 -217.5 -21t-217.5 -48t-169 -60t-81 -57q-5 -10 5.5 -20.5t34 -16.5t53.5 -2q-10 -5 -26 -7.5t-33.5 -1t-32 8t-21.5 21t-3 35.5q12 53 114 101.5t230.5 76.5t251.5 41t178 3q2 -1 3 -1v0q14 -3 23 -17t4 -26q-34 -63 -58.5 -181.5
t-36.5 -256.5q78 -2 118 -29t34 -89zM-58 705q52 26 157.5 64.5t140.5 37.5q-16 3 -51.5 -5t-75.5 -21.5t-78 -28t-64 -28t-29 -19.5zM-16 742q3 1 17 6.5t18.5 7.5t19.5 7.5t23 8t24.5 8l28.5 9.5t30.5 9t35.5 9t38.5 9t43.5 10q-33 5 -152 -31t-127 -53zM456 634
q-23 -10 -79 -96t-109 -183l8 2q34 61 68 117t66 103t46 57zM423 615q-20 -10 -78.5 -98t-99.5 -166l10 2q70 129 168 262zM-181 301q85 -15 294 24q-24 40 -68.5 55t-89 7t-83 -31.5t-53.5 -54.5zM164 221q16 36 36 76q-15 -4 -35 -9q5 -31 -1 -67zM210 234q13 26 39 74
l-7 -1q-31 -61 -32 -73zM212 272l17 32l-8 -2q-8 -21 -9 -30zM77 305q21 -5 187 29t223 33q-20 9 -91.5 -2.5t-172 -32.5t-146.5 -27zM319 365q117 21 188 27q16 168 57 328q-132 -163 -245 -355zM522 248q3 45 6 91h-6q-4 -69 0 -91zM527 393h3h3q13 138 37 233
q-12 -17 -24 -85t-19 -148zM539 129q-2 102 6 208q-6 1 -7 1q-9 -128 1 -209zM550 394q19 205 58 331q-19 -43 -37 -135.5t-29 -195.5h8z" />
    <glyph glyph-name="A" unicode="&#xc4;" horiz-adv-x="713" 
d="M718 276q-65 47 -157 59q-14 -224 9 -325q-47 16 -62.5 105.5t-5.5 224.5q-88 2 -210 -22q-119 -213 -174 -399q-27 68 3 180q28 109 11 181q-176 -46 -235 -49q-102 -4 -111 72q-1 3 -1 6q1 40 31.5 69.5t77.5 40t97 8t94.5 -27.5t65.5 -67q24 5 76 15q49 89 114 185
t121 167.5t103 123.5q-98 -1 -217.5 -21t-217.5 -48t-169 -60t-81 -57q-5 -10 5.5 -20.5t34 -16.5t53.5 -2q-10 -5 -26 -7.5t-33.5 -1t-32 8t-21.5 21t-3 35.5q12 53 114 101.5t230.5 76.5t251.5 41t178 3q2 -1 3 -1v0q14 -3 23 -17t4 -26q-34 -63 -58.5 -181.5
t-36.5 -256.5q78 -2 118 -29t34 -89zM-58 705q52 26 157.5 64.5t140.5 37.5q-16 3 -51.5 -5t-75.5 -21.5t-78 -28t-64 -28t-29 -19.5zM-16 742q3 1 17 6.5t18.5 7.5t19.5 7.5t23 8t24.5 8l28.5 9.5t30.5 9t35.5 9t38.5 9t43.5 10q-33 5 -152 -31t-127 -53zM456 634
q-23 -10 -79 -96t-109 -183l8 2q34 61 68 117t66 103t46 57zM423 615q-20 -10 -78.5 -98t-99.5 -166l10 2q70 129 168 262zM-181 301q85 -15 294 24q-24 40 -68.5 55t-89 7t-83 -31.5t-53.5 -54.5zM164 221q16 36 36 76q-15 -4 -35 -9q5 -31 -1 -67zM210 234q13 26 39 74
l-7 -1q-31 -61 -32 -73zM212 272l17 32l-8 -2q-8 -21 -9 -30zM77 305q21 -5 187 29t223 33q-20 9 -91.5 -2.5t-172 -32.5t-146.5 -27zM319 365q117 21 188 27q16 168 57 328q-132 -163 -245 -355zM522 248q3 45 6 91h-6q-4 -69 0 -91zM527 393h3h3q13 138 37 233
q-12 -17 -24 -85t-19 -148zM539 129q-2 102 6 208q-6 1 -7 1q-9 -128 1 -209zM550 394q19 205 58 331q-19 -43 -37 -135.5t-29 -195.5h8z" />
    <glyph glyph-name="A" unicode="&#xc3;" horiz-adv-x="713" 
d="M718 276q-65 47 -157 59q-14 -224 9 -325q-47 16 -62.5 105.5t-5.5 224.5q-88 2 -210 -22q-119 -213 -174 -399q-27 68 3 180q28 109 11 181q-176 -46 -235 -49q-102 -4 -111 72q-1 3 -1 6q1 40 31.5 69.5t77.5 40t97 8t94.5 -27.5t65.5 -67q24 5 76 15q49 89 114 185
t121 167.5t103 123.5q-98 -1 -217.5 -21t-217.5 -48t-169 -60t-81 -57q-5 -10 5.5 -20.5t34 -16.5t53.5 -2q-10 -5 -26 -7.5t-33.5 -1t-32 8t-21.5 21t-3 35.5q12 53 114 101.5t230.5 76.5t251.5 41t178 3q2 -1 3 -1v0q14 -3 23 -17t4 -26q-34 -63 -58.5 -181.5
t-36.5 -256.5q78 -2 118 -29t34 -89zM-58 705q52 26 157.5 64.5t140.5 37.5q-16 3 -51.5 -5t-75.5 -21.5t-78 -28t-64 -28t-29 -19.5zM-16 742q3 1 17 6.5t18.5 7.5t19.5 7.5t23 8t24.5 8l28.5 9.5t30.5 9t35.5 9t38.5 9t43.5 10q-33 5 -152 -31t-127 -53zM456 634
q-23 -10 -79 -96t-109 -183l8 2q34 61 68 117t66 103t46 57zM423 615q-20 -10 -78.5 -98t-99.5 -166l10 2q70 129 168 262zM-181 301q85 -15 294 24q-24 40 -68.5 55t-89 7t-83 -31.5t-53.5 -54.5zM164 221q16 36 36 76q-15 -4 -35 -9q5 -31 -1 -67zM210 234q13 26 39 74
l-7 -1q-31 -61 -32 -73zM212 272l17 32l-8 -2q-8 -21 -9 -30zM77 305q21 -5 187 29t223 33q-20 9 -91.5 -2.5t-172 -32.5t-146.5 -27zM319 365q117 21 188 27q16 168 57 328q-132 -163 -245 -355zM522 248q3 45 6 91h-6q-4 -69 0 -91zM527 393h3h3q13 138 37 233
q-12 -17 -24 -85t-19 -148zM539 129q-2 102 6 208q-6 1 -7 1q-9 -128 1 -209zM550 394q19 205 58 331q-19 -43 -37 -135.5t-29 -195.5h8z" />
    <glyph glyph-name="A" unicode="&#xc2;" horiz-adv-x="713" 
d="M718 276q-65 47 -157 59q-14 -224 9 -325q-47 16 -62.5 105.5t-5.5 224.5q-88 2 -210 -22q-119 -213 -174 -399q-27 68 3 180q28 109 11 181q-176 -46 -235 -49q-102 -4 -111 72q-1 3 -1 6q1 40 31.5 69.5t77.5 40t97 8t94.5 -27.5t65.5 -67q24 5 76 15q49 89 114 185
t121 167.5t103 123.5q-98 -1 -217.5 -21t-217.5 -48t-169 -60t-81 -57q-5 -10 5.5 -20.5t34 -16.5t53.5 -2q-10 -5 -26 -7.5t-33.5 -1t-32 8t-21.5 21t-3 35.5q12 53 114 101.5t230.5 76.5t251.5 41t178 3q2 -1 3 -1v0q14 -3 23 -17t4 -26q-34 -63 -58.5 -181.5
t-36.5 -256.5q78 -2 118 -29t34 -89zM-58 705q52 26 157.5 64.5t140.5 37.5q-16 3 -51.5 -5t-75.5 -21.5t-78 -28t-64 -28t-29 -19.5zM-16 742q3 1 17 6.5t18.5 7.5t19.5 7.5t23 8t24.5 8l28.5 9.5t30.5 9t35.5 9t38.5 9t43.5 10q-33 5 -152 -31t-127 -53zM456 634
q-23 -10 -79 -96t-109 -183l8 2q34 61 68 117t66 103t46 57zM423 615q-20 -10 -78.5 -98t-99.5 -166l10 2q70 129 168 262zM-181 301q85 -15 294 24q-24 40 -68.5 55t-89 7t-83 -31.5t-53.5 -54.5zM164 221q16 36 36 76q-15 -4 -35 -9q5 -31 -1 -67zM210 234q13 26 39 74
l-7 -1q-31 -61 -32 -73zM212 272l17 32l-8 -2q-8 -21 -9 -30zM77 305q21 -5 187 29t223 33q-20 9 -91.5 -2.5t-172 -32.5t-146.5 -27zM319 365q117 21 188 27q16 168 57 328q-132 -163 -245 -355zM522 248q3 45 6 91h-6q-4 -69 0 -91zM527 393h3h3q13 138 37 233
q-12 -17 -24 -85t-19 -148zM539 129q-2 102 6 208q-6 1 -7 1q-9 -128 1 -209zM550 394q19 205 58 331q-19 -43 -37 -135.5t-29 -195.5h8z" />
    <glyph glyph-name="A" unicode="&#xc1;" horiz-adv-x="713" 
d="M718 276q-65 47 -157 59q-14 -224 9 -325q-47 16 -62.5 105.5t-5.5 224.5q-88 2 -210 -22q-119 -213 -174 -399q-27 68 3 180q28 109 11 181q-176 -46 -235 -49q-102 -4 -111 72q-1 3 -1 6q1 40 31.5 69.5t77.5 40t97 8t94.5 -27.5t65.5 -67q24 5 76 15q49 89 114 185
t121 167.5t103 123.5q-98 -1 -217.5 -21t-217.5 -48t-169 -60t-81 -57q-5 -10 5.5 -20.5t34 -16.5t53.5 -2q-10 -5 -26 -7.5t-33.5 -1t-32 8t-21.5 21t-3 35.5q12 53 114 101.5t230.5 76.5t251.5 41t178 3q2 -1 3 -1v0q14 -3 23 -17t4 -26q-34 -63 -58.5 -181.5
t-36.5 -256.5q78 -2 118 -29t34 -89zM-58 705q52 26 157.5 64.5t140.5 37.5q-16 3 -51.5 -5t-75.5 -21.5t-78 -28t-64 -28t-29 -19.5zM-16 742q3 1 17 6.5t18.5 7.5t19.5 7.5t23 8t24.5 8l28.5 9.5t30.5 9t35.5 9t38.5 9t43.5 10q-33 5 -152 -31t-127 -53zM456 634
q-23 -10 -79 -96t-109 -183l8 2q34 61 68 117t66 103t46 57zM423 615q-20 -10 -78.5 -98t-99.5 -166l10 2q70 129 168 262zM-181 301q85 -15 294 24q-24 40 -68.5 55t-89 7t-83 -31.5t-53.5 -54.5zM164 221q16 36 36 76q-15 -4 -35 -9q5 -31 -1 -67zM210 234q13 26 39 74
l-7 -1q-31 -61 -32 -73zM212 272l17 32l-8 -2q-8 -21 -9 -30zM77 305q21 -5 187 29t223 33q-20 9 -91.5 -2.5t-172 -32.5t-146.5 -27zM319 365q117 21 188 27q16 168 57 328q-132 -163 -245 -355zM522 248q3 45 6 91h-6q-4 -69 0 -91zM527 393h3h3q13 138 37 233
q-12 -17 -24 -85t-19 -148zM539 129q-2 102 6 208q-6 1 -7 1q-9 -128 1 -209zM550 394q19 205 58 331q-19 -43 -37 -135.5t-29 -195.5h8z" />
    <glyph glyph-name="A" unicode="&#xc0;" horiz-adv-x="713" 
d="M718 276q-65 47 -157 59q-14 -224 9 -325q-47 16 -62.5 105.5t-5.5 224.5q-88 2 -210 -22q-119 -213 -174 -399q-27 68 3 180q28 109 11 181q-176 -46 -235 -49q-102 -4 -111 72q-1 3 -1 6q1 40 31.5 69.5t77.5 40t97 8t94.5 -27.5t65.5 -67q24 5 76 15q49 89 114 185
t121 167.5t103 123.5q-98 -1 -217.5 -21t-217.5 -48t-169 -60t-81 -57q-5 -10 5.5 -20.5t34 -16.5t53.5 -2q-10 -5 -26 -7.5t-33.5 -1t-32 8t-21.5 21t-3 35.5q12 53 114 101.5t230.5 76.5t251.5 41t178 3q2 -1 3 -1v0q14 -3 23 -17t4 -26q-34 -63 -58.5 -181.5
t-36.5 -256.5q78 -2 118 -29t34 -89zM-58 705q52 26 157.5 64.5t140.5 37.5q-16 3 -51.5 -5t-75.5 -21.5t-78 -28t-64 -28t-29 -19.5zM-16 742q3 1 17 6.5t18.5 7.5t19.5 7.5t23 8t24.5 8l28.5 9.5t30.5 9t35.5 9t38.5 9t43.5 10q-33 5 -152 -31t-127 -53zM456 634
q-23 -10 -79 -96t-109 -183l8 2q34 61 68 117t66 103t46 57zM423 615q-20 -10 -78.5 -98t-99.5 -166l10 2q70 129 168 262zM-181 301q85 -15 294 24q-24 40 -68.5 55t-89 7t-83 -31.5t-53.5 -54.5zM164 221q16 36 36 76q-15 -4 -35 -9q5 -31 -1 -67zM210 234q13 26 39 74
l-7 -1q-31 -61 -32 -73zM212 272l17 32l-8 -2q-8 -21 -9 -30zM77 305q21 -5 187 29t223 33q-20 9 -91.5 -2.5t-172 -32.5t-146.5 -27zM319 365q117 21 188 27q16 168 57 328q-132 -163 -245 -355zM522 248q3 45 6 91h-6q-4 -69 0 -91zM527 393h3h3q13 138 37 233
q-12 -17 -24 -85t-19 -148zM539 129q-2 102 6 208q-6 1 -7 1q-9 -128 1 -209zM550 394q19 205 58 331q-19 -43 -37 -135.5t-29 -195.5h8z" />
    <glyph glyph-name="B" unicode="B" horiz-adv-x="648" 
d="M229 462q62 179 158 343q-96 -22 -192.5 -71t-169.5 -118q-9 17 -4 38t15 37.5t20 25.5q39 33 87.5 61.5t98.5 49t102.5 34.5t100 20t90 3.5t73.5 -13.5q54 -20 84.5 -82t19.5 -120q-7 -36 -65 -88t-139 -94t-146 -54q66 3 116.5 -13t77 -44t36.5 -59.5t2 -60.5
q-9 -36 -48 -77.5t-95.5 -77t-124 -65.5t-137.5 -41.5t-132 -7t-112 40t-73 98.5q57 -38 126.5 -52t135 -6t131 27.5t119 49t94 60.5t61 59.5t14.5 47.5q-8 28 -35 47.5t-67 29.5t-82.5 14t-89.5 2q-45 -137 -67 -283q-68 60 -3 279q-13 -1 -25 -3q-14 0 -29 23t-16 42
q43 -6 90 -2zM483 856q-60 3 -157 -27.5t-138 -60.5q29 16 69.5 32t81.5 27t79 18.5t65 10.5zM520 868q-43 6 -100 -2.5t-110 -27t-100 -43t-73 -48.5q83 60 195.5 92.5t187.5 28.5zM355 465q48 1 148 58.5t118 97.5q-45 -48 -121.5 -91.5t-144.5 -64.5zM39 32
q18 -12 54 -14t78 4t88.5 19.5t87.5 31.5t74.5 40.5t48.5 45.5q-75 -68 -205.5 -108t-225.5 -19zM136 48q47 -8 157 28.5t135 70.5q-36 -25 -88.5 -46.5t-105.5 -34.5t-98 -18zM481 819q-107 -153 -178 -345q74 17 146.5 55.5t121 81.5t72 85.5t7.5 69.5q-36 61 -169 53z
M227 314q8 30 31 92l-7 -1q-26 -76 -24 -91zM223 357q7 23 15 47h-7q-10 -34 -8 -47zM364 707q-15 -13 -51 -90t-63 -153q5 0 10 1q38 103 104 242zM273 467q4 1 9 2q83 209 113 251q-17 -10 -52 -85t-70 -168z" />
    <glyph glyph-name="C" unicode="C" horiz-adv-x="536" 
d="M337 354q72 72 139 252q58 156 50 221q-3 26 -18 24q-53 -5 -108 -45t-100.5 -101t-86 -135.5t-67.5 -152.5t-42.5 -148t-13 -125.5t22.5 -81.5q22 -27 57 -31t76 11.5t87 46t90 69.5t85 84q-57 -123 -147.5 -190t-180.5 -70q-57 -3 -112.5 53.5t-56.5 113.5
q-1 108 26 218.5t73 201.5t103 165.5t118.5 119t116.5 53.5q42 7 82 -36.5t45 -93.5q6 -67 -33.5 -183.5t-96.5 -189.5q-14 -18 -48.5 -36t-59.5 -14zM535 669q-7 -48 -32.5 -107t-55.5 -101q17 14 39.5 56t37.5 87t11 65zM533 737q-8 -71 -43.5 -160t-78.5 -153
q39 34 85 151t37 162zM49 260q9 127 85 287.5t168 237.5q-48 -18 -112.5 -118.5t-107.5 -220.5t-33 -186zM236 676q-45 -39 -106.5 -176t-55.5 -190q15 83 62 187.5t100 178.5z" />
    <glyph glyph-name="C" unicode="&#xc7;" horiz-adv-x="536" 
d="M337 354q72 72 139 252q58 156 50 221q-3 26 -18 24q-53 -5 -108 -45t-100.5 -101t-86 -135.5t-67.5 -152.5t-42.5 -148t-13 -125.5t22.5 -81.5q22 -27 57 -31t76 11.5t87 46t90 69.5t85 84q-57 -123 -147.5 -190t-180.5 -70q-57 -3 -112.5 53.5t-56.5 113.5
q-1 108 26 218.5t73 201.5t103 165.5t118.5 119t116.5 53.5q42 7 82 -36.5t45 -93.5q6 -67 -33.5 -183.5t-96.5 -189.5q-14 -18 -48.5 -36t-59.5 -14zM535 669q-7 -48 -32.5 -107t-55.5 -101q17 14 39.5 56t37.5 87t11 65zM533 737q-8 -71 -43.5 -160t-78.5 -153
q39 34 85 151t37 162zM49 260q9 127 85 287.5t168 237.5q-48 -18 -112.5 -118.5t-107.5 -220.5t-33 -186zM236 676q-45 -39 -106.5 -176t-55.5 -190q15 83 62 187.5t100 178.5z" />
    <glyph glyph-name="D" unicode="D" horiz-adv-x="674" 
d="M40 525q-13 26 3.5 61t37.5 52q131 108 323 160q37 60 66 98q18 9 37.5 -6t17.5 -53l-12 -16q122 17 194 -10q58 -22 86.5 -89.5t17.5 -135.5q-6 -42 -28 -94.5t-60.5 -112.5t-89 -119t-117.5 -114t-142 -97t-167.5 -68.5t-188.5 -29.5q-35 -1 -56.5 27.5t-21.5 52.5
q122 -9 243 29t213 103.5t171 146.5t126 158t68 138.5t6 87.5q-25 48 -113.5 58t-199.5 -18q-193 -299 -270 -669q-27 25 -31 78.5t11.5 118.5t45 144t64.5 152t75 145q-184 -65 -309 -178zM186 266q42 142 145 360q-24 -20 -86.5 -171t-58.5 -189zM190 222q7 25 24 72
t38.5 100.5t43 104t40 89.5t27.5 52q-19 -11 -62.5 -107.5t-78 -194.5t-32.5 -116zM681 392q-53 -98 -171 -199t-219 -129q45 -2 132.5 54.5t164.5 137t93 136.5zM643 361q-42 -61 -117 -127t-143 -107q50 16 148 103t112 131zM389 772q-60 -18 -112.5 -45t-81.5 -54
q78 57 189 92zM377 753q-90 -30 -128 -58q46 27 124 51zM480 774q41 9 71 11q-27 2 -67 -5zM496 797l-5 -7q57 9 98 7q-40 7 -93 0z" />
    <glyph glyph-name="E" unicode="E" horiz-adv-x="670" 
d="M643 248q12 -22 -1.5 -53t-31.5 -47q-116 -103 -284.5 -155t-262.5 -22q-53 17 -81.5 76.5t-16.5 116.5q8 36 66.5 89.5t139.5 99t146 59.5q-65 -6 -115 7.5t-75 39.5t-34 56.5t-1 59.5q10 33 41.5 70t79 71.5t103 63t118.5 48t121 23.5q52 4 96 -39.5t40 -98.5
q-2 -23 -18.5 -64t-44.5 -81.5t-64 -51.5t-77 24q28 14 56 40.5t48 57.5t33 61t12.5 53.5t-17.5 32.5q-38 21 -124 -6.5t-168 -76.5t-142 -102t-54 -78q9 -35 50.5 -55t98 -24t111 -0.5t102.5 11.5q9 1 19 -9.5t16.5 -25.5t6.5 -27q-71 8 -156 -14.5t-156 -63t-128 -87
t-83.5 -90.5t-11.5 -70q24 -39 100 -44t170 20t197 79.5t176 125.5zM221 673q50 40 136 79t144 54q-58 -6 -151 -51.5t-129 -81.5zM172 645q75 72 182.5 121t182.5 58q-85 -1 -200 -60t-165 -119zM532 139q-83 -64 -194.5 -100.5t-185.5 -35.5q83 -9 203 36.5t177 99.5z
M94 269q31 32 83.5 61.5t98.5 43.5q-32 -1 -100.5 -40t-81.5 -65zM323 382q-48 -4 -148 -65t-118 -100q45 49 121.5 95t144.5 70z" />
    <glyph glyph-name="E" unicode="&#xcb;" horiz-adv-x="670" 
d="M643 248q12 -22 -1.5 -53t-31.5 -47q-116 -103 -284.5 -155t-262.5 -22q-53 17 -81.5 76.5t-16.5 116.5q8 36 66.5 89.5t139.5 99t146 59.5q-65 -6 -115 7.5t-75 39.5t-34 56.5t-1 59.5q10 33 41.5 70t79 71.5t103 63t118.5 48t121 23.5q52 4 96 -39.5t40 -98.5
q-2 -23 -18.5 -64t-44.5 -81.5t-64 -51.5t-77 24q28 14 56 40.5t48 57.5t33 61t12.5 53.5t-17.5 32.5q-38 21 -124 -6.5t-168 -76.5t-142 -102t-54 -78q9 -35 50.5 -55t98 -24t111 -0.5t102.5 11.5q9 1 19 -9.5t16.5 -25.5t6.5 -27q-71 8 -156 -14.5t-156 -63t-128 -87
t-83.5 -90.5t-11.5 -70q24 -39 100 -44t170 20t197 79.5t176 125.5zM221 673q50 40 136 79t144 54q-58 -6 -151 -51.5t-129 -81.5zM172 645q75 72 182.5 121t182.5 58q-85 -1 -200 -60t-165 -119zM532 139q-83 -64 -194.5 -100.5t-185.5 -35.5q83 -9 203 36.5t177 99.5z
M94 269q31 32 83.5 61.5t98.5 43.5q-32 -1 -100.5 -40t-81.5 -65zM323 382q-48 -4 -148 -65t-118 -100q45 49 121.5 95t144.5 70z" />
    <glyph glyph-name="E" unicode="&#xca;" horiz-adv-x="670" 
d="M643 248q12 -22 -1.5 -53t-31.5 -47q-116 -103 -284.5 -155t-262.5 -22q-53 17 -81.5 76.5t-16.5 116.5q8 36 66.5 89.5t139.5 99t146 59.5q-65 -6 -115 7.5t-75 39.5t-34 56.5t-1 59.5q10 33 41.5 70t79 71.5t103 63t118.5 48t121 23.5q52 4 96 -39.5t40 -98.5
q-2 -23 -18.5 -64t-44.5 -81.5t-64 -51.5t-77 24q28 14 56 40.5t48 57.5t33 61t12.5 53.5t-17.5 32.5q-38 21 -124 -6.5t-168 -76.5t-142 -102t-54 -78q9 -35 50.5 -55t98 -24t111 -0.5t102.5 11.5q9 1 19 -9.5t16.5 -25.5t6.5 -27q-71 8 -156 -14.5t-156 -63t-128 -87
t-83.5 -90.5t-11.5 -70q24 -39 100 -44t170 20t197 79.5t176 125.5zM221 673q50 40 136 79t144 54q-58 -6 -151 -51.5t-129 -81.5zM172 645q75 72 182.5 121t182.5 58q-85 -1 -200 -60t-165 -119zM532 139q-83 -64 -194.5 -100.5t-185.5 -35.5q83 -9 203 36.5t177 99.5z
M94 269q31 32 83.5 61.5t98.5 43.5q-32 -1 -100.5 -40t-81.5 -65zM323 382q-48 -4 -148 -65t-118 -100q45 49 121.5 95t144.5 70z" />
    <glyph glyph-name="E" unicode="&#xc9;" horiz-adv-x="670" 
d="M643 248q12 -22 -1.5 -53t-31.5 -47q-116 -103 -284.5 -155t-262.5 -22q-53 17 -81.5 76.5t-16.5 116.5q8 36 66.5 89.5t139.5 99t146 59.5q-65 -6 -115 7.5t-75 39.5t-34 56.5t-1 59.5q10 33 41.5 70t79 71.5t103 63t118.5 48t121 23.5q52 4 96 -39.5t40 -98.5
q-2 -23 -18.5 -64t-44.5 -81.5t-64 -51.5t-77 24q28 14 56 40.5t48 57.5t33 61t12.5 53.5t-17.5 32.5q-38 21 -124 -6.5t-168 -76.5t-142 -102t-54 -78q9 -35 50.5 -55t98 -24t111 -0.5t102.5 11.5q9 1 19 -9.5t16.5 -25.5t6.5 -27q-71 8 -156 -14.5t-156 -63t-128 -87
t-83.5 -90.5t-11.5 -70q24 -39 100 -44t170 20t197 79.5t176 125.5zM221 673q50 40 136 79t144 54q-58 -6 -151 -51.5t-129 -81.5zM172 645q75 72 182.5 121t182.5 58q-85 -1 -200 -60t-165 -119zM532 139q-83 -64 -194.5 -100.5t-185.5 -35.5q83 -9 203 36.5t177 99.5z
M94 269q31 32 83.5 61.5t98.5 43.5q-32 -1 -100.5 -40t-81.5 -65zM323 382q-48 -4 -148 -65t-118 -100q45 49 121.5 95t144.5 70z" />
    <glyph glyph-name="E" unicode="&#xc8;" horiz-adv-x="670" 
d="M643 248q12 -22 -1.5 -53t-31.5 -47q-116 -103 -284.5 -155t-262.5 -22q-53 17 -81.5 76.5t-16.5 116.5q8 36 66.5 89.5t139.5 99t146 59.5q-65 -6 -115 7.5t-75 39.5t-34 56.5t-1 59.5q10 33 41.5 70t79 71.5t103 63t118.5 48t121 23.5q52 4 96 -39.5t40 -98.5
q-2 -23 -18.5 -64t-44.5 -81.5t-64 -51.5t-77 24q28 14 56 40.5t48 57.5t33 61t12.5 53.5t-17.5 32.5q-38 21 -124 -6.5t-168 -76.5t-142 -102t-54 -78q9 -35 50.5 -55t98 -24t111 -0.5t102.5 11.5q9 1 19 -9.5t16.5 -25.5t6.5 -27q-71 8 -156 -14.5t-156 -63t-128 -87
t-83.5 -90.5t-11.5 -70q24 -39 100 -44t170 20t197 79.5t176 125.5zM221 673q50 40 136 79t144 54q-58 -6 -151 -51.5t-129 -81.5zM172 645q75 72 182.5 121t182.5 58q-85 -1 -200 -60t-165 -119zM532 139q-83 -64 -194.5 -100.5t-185.5 -35.5q83 -9 203 36.5t177 99.5z
M94 269q31 32 83.5 61.5t98.5 43.5q-32 -1 -100.5 -40t-81.5 -65zM323 382q-48 -4 -148 -65t-118 -100q45 49 121.5 95t144.5 70z" />
    <glyph glyph-name="F" unicode="F" horiz-adv-x="516" 
d="M490 482q75 -1 125.5 -22.5t55.5 -62.5q-44 41 -195 41q-21 -64 -54.5 -134t-66.5 -125t-62 -100t-48 -70l-18 -24q-21 9 -31.5 42t-0.5 46q42 60 57 133t1.5 126.5t-47.5 67.5q14 20 48.5 37t79 28t93.5 15q91 248 -27 337q-40 30 -97 31t-114 -21t-113 -59.5t-97 -81
t-62.5 -90t-12.5 -81.5q3 -14 19.5 -14.5t40 8t52 20.5t58.5 20t56.5 8.5t49 -15t33.5 -49.5q-38 14 -80 8.5t-72.5 -18t-60.5 -23.5t-45 -8q-36 7 -60.5 28t-34.5 46t-11 54q-1 39 31 90t85 96t120.5 80.5t136.5 44t134 -13.5q54 -21 96.5 -71t53.5 -104q20 -92 -16 -220z
M-52 705q39 42 115 86t132 63q-59 -11 -140 -61.5t-107 -87.5zM-93 673q53 75 148.5 131t170.5 69q-59 -5 -128 -38.5t-120 -78t-71 -83.5zM482 585q-8 -40 -31 -104q5 1 8 1q25 72 23 103zM482 517q-5 -16 -11 -35h4q7 23 7 35zM254 399q33 -12 41 -73.5t-11 -125.5
q78 124 125 236q-119 -8 -155 -37zM277 155q18 6 48 51t61.5 107.5t56.5 124.5h-10q-24 -60 -54 -120t-57.5 -104.5t-44.5 -58.5zM331 187q23 23 63 101t66 150h-5q-52 -133 -124 -251zM323 448q57 18 148.5 18t127.5 -18q-16 23 -124.5 22.5t-151.5 -22.5z" />
    <glyph glyph-name="G" unicode="G" horiz-adv-x="557" 
d="M315 360q68 68 130 239q55 148 45 205q-4 20 -17 18q-49 -5 -100 -42t-93 -93.5t-79.5 -126t-63 -142t-39.5 -137t-12 -116t21 -76.5q13 -16 29 -22t36.5 -0.5t39.5 13.5t45.5 29.5t46 38t49.5 47.5t47.5 49.5t47.5 51.5l2 3q-36 5 -78.5 -8t-74.5 -28.5t-62 -24.5
t-52.5 6.5t-34.5 62.5q19 -14 48 -16t59 5.5t64.5 17t65.5 19t61 11t53 -6t38.5 -33.5t20.5 -71q-29 33 -61 50q8 -15 7 -39q-30 -40 -47 -67t-42 -82.5t-45.5 -139.5t-39.5 -202q-39 25 -43.5 90.5t16 143.5t58.5 160q-95 -128 -192 -133q-52 -2 -104 50.5t-53 105.5
q-1 100 24 203t68 187.5t96 153.5t110 110.5t108 49.5q39 7 76 -33.5t42 -87.5q6 -62 -31 -170t-90 -176q-13 -17 -45 -33.5t-55 -13.5zM268 289q10 -5 75 15.5t90 17.5q-6 8 -29 4t-43.5 -10.5t-48.5 -15.5t-44 -11zM322 -94q17 99 80 252q-21 -14 -55.5 -120t-24.5 -132z
M333 -125q7 47 43.5 158.5t53.5 134.5q-17 -8 -42.5 -75.5t-42.5 -136t-12 -81.5zM47 273q9 119 79 267.5t156 220.5q-44 -17 -104.5 -110.5t-100 -205t-30.5 -172.5zM70 320q15 77 58.5 174t92.5 166q-42 -37 -99 -164t-52 -176zM499 653q-4 -30 -17 -66.5t-30 -69
t-35 -57.5q25 20 56 92t26 101zM384 426q36 31 79 139.5t34 150.5q-7 -66 -40 -148.5t-73 -141.5z" />
    <glyph glyph-name="H" unicode="H" horiz-adv-x="665" 
d="M528 428q40 117 94.5 226t104.5 172q11 4 22.5 0.5t21 -17.5t9.5 -32q-113 -175 -178 -353q122 -14 137 -81q-47 35 -151 42q-70 -208 -71 -403q-35 30 -44.5 94t2 141t39.5 169q-66 -2 -138 -13q-93 -242 -266 -406q-13 14 -16 43.5t9 39.5q34 32 44.5 85t-7.5 103
t-60 71q-1 20 66 47t164 47q37 92 57.5 171t18.5 145.5t-35 94.5q-29 24 -80 24t-106.5 -19t-112 -51t-100 -69t-68.5 -77t-18 -70q2 -9 18 -7.5t43 6.5t60 15t69.5 17.5t71.5 13.5t66 3t53.5 -12.5t33 -34.5t4.5 -63q-19 35 -59 46t-87.5 3t-94 -20.5t-89 -20.5t-62.5 -2
q-28 9 -45 28t-21.5 41.5t-3 42.5t6.5 37q13 35 56 81.5t103.5 88.5t140.5 66.5t153 14.5q54 -7 101 -61.5t58 -111.5q7 -38 -5 -122.5t-46 -183.5q74 11 137 11zM674 387q-13 18 -79 25.5t-137.5 2t-100.5 -21.5q61 20 168 18.5t149 -24.5zM656 671q-9 -10 -27 -48.5
t-39.5 -90.5t-40.5 -104h5q34 95 102 243zM694 702q-19 -17 -56.5 -97.5t-72.5 -177.5h5q32 89 67 167t57 108zM508 220q15 70 48 166h-5q-41 -120 -43 -166zM503 259q17 69 36 127h-5q-34 -101 -31 -127zM131 300q26 -11 42 -61t4 -98q60 93 114 216q-111 -25 -160 -57z
M398 625q-10 -78 -65 -217q5 0 12 2q61 159 53 215zM403 549q-14 -60 -43 -137l7 1q37 102 36 136zM253 180q37 37 97 189l-7 -1q-41 -101 -90 -188zM195 144q22 7 59 70.5t73 150.5q-5 -1 -12 -3q-34 -79 -67 -140t-53 -78zM225 573q-34 18 -123 3.5t-128 -36.5
q64 20 134 31t117 2zM161 846q-39 -7 -92 -34.5t-95 -59.5t-58 -55q38 42 114 86t131 63zM-125 666q53 74 147.5 129.5t169.5 69.5q-88 -8 -187 -73t-130 -126z" />
    <glyph glyph-name="I" unicode="I" horiz-adv-x="469" 
d="M131 66q41 56 85 132t82 156t69 160.5t48.5 146.5t17 114t-22.5 62q-22 17 -58 13.5t-77 -17.5t-82.5 -41t-75.5 -56.5t-57.5 -64t-26.5 -63.5q-41 63 -19.5 117t77.5 92t123.5 58.5t117.5 16.5q68 -5 106 -45t42 -89q8 -64 -7.5 -145t-44 -155t-67 -151t-72 -132
t-64.5 -98q39 2 71.5 -1t59 -11.5t41 -25t12.5 -40.5q-24 24 -102 28.5t-171.5 -15.5t-149.5 -59q-11 13 -4.5 39.5t21.5 35.5q37 22 128 38zM431 556q-20 -70 -64 -170t-102 -194q37 35 101 176.5t65 187.5zM430 631q-16 -89 -96 -258.5t-119 -222.5q18 9 72 108.5
t100.5 215t42.5 157.5zM42 720q18 41 67.5 77t103.5 58q-26 -1 -67 -22.5t-73.5 -54t-30.5 -58.5z" />
    <glyph glyph-name="I" unicode="&#xcf;" horiz-adv-x="469" 
d="M131 66q41 56 85 132t82 156t69 160.5t48.5 146.5t17 114t-22.5 62q-22 17 -58 13.5t-77 -17.5t-82.5 -41t-75.5 -56.5t-57.5 -64t-26.5 -63.5q-41 63 -19.5 117t77.5 92t123.5 58.5t117.5 16.5q68 -5 106 -45t42 -89q8 -64 -7.5 -145t-44 -155t-67 -151t-72 -132
t-64.5 -98q39 2 71.5 -1t59 -11.5t41 -25t12.5 -40.5q-24 24 -102 28.5t-171.5 -15.5t-149.5 -59q-11 13 -4.5 39.5t21.5 35.5q37 22 128 38zM431 556q-20 -70 -64 -170t-102 -194q37 35 101 176.5t65 187.5zM430 631q-16 -89 -96 -258.5t-119 -222.5q18 9 72 108.5
t100.5 215t42.5 157.5zM42 720q18 41 67.5 77t103.5 58q-26 -1 -67 -22.5t-73.5 -54t-30.5 -58.5z" />
    <glyph glyph-name="I" unicode="&#xce;" horiz-adv-x="469" 
d="M131 66q41 56 85 132t82 156t69 160.5t48.5 146.5t17 114t-22.5 62q-22 17 -58 13.5t-77 -17.5t-82.5 -41t-75.5 -56.5t-57.5 -64t-26.5 -63.5q-41 63 -19.5 117t77.5 92t123.5 58.5t117.5 16.5q68 -5 106 -45t42 -89q8 -64 -7.5 -145t-44 -155t-67 -151t-72 -132
t-64.5 -98q39 2 71.5 -1t59 -11.5t41 -25t12.5 -40.5q-24 24 -102 28.5t-171.5 -15.5t-149.5 -59q-11 13 -4.5 39.5t21.5 35.5q37 22 128 38zM431 556q-20 -70 -64 -170t-102 -194q37 35 101 176.5t65 187.5zM430 631q-16 -89 -96 -258.5t-119 -222.5q18 9 72 108.5
t100.5 215t42.5 157.5zM42 720q18 41 67.5 77t103.5 58q-26 -1 -67 -22.5t-73.5 -54t-30.5 -58.5z" />
    <glyph glyph-name="I" unicode="&#xcd;" horiz-adv-x="469" 
d="M131 66q41 56 85 132t82 156t69 160.5t48.5 146.5t17 114t-22.5 62q-22 17 -58 13.5t-77 -17.5t-82.5 -41t-75.5 -56.5t-57.5 -64t-26.5 -63.5q-41 63 -19.5 117t77.5 92t123.5 58.5t117.5 16.5q68 -5 106 -45t42 -89q8 -64 -7.5 -145t-44 -155t-67 -151t-72 -132
t-64.5 -98q39 2 71.5 -1t59 -11.5t41 -25t12.5 -40.5q-24 24 -102 28.5t-171.5 -15.5t-149.5 -59q-11 13 -4.5 39.5t21.5 35.5q37 22 128 38zM431 556q-20 -70 -64 -170t-102 -194q37 35 101 176.5t65 187.5zM430 631q-16 -89 -96 -258.5t-119 -222.5q18 9 72 108.5
t100.5 215t42.5 157.5zM42 720q18 41 67.5 77t103.5 58q-26 -1 -67 -22.5t-73.5 -54t-30.5 -58.5z" />
    <glyph glyph-name="I" unicode="&#xcc;" horiz-adv-x="469" 
d="M131 66q41 56 85 132t82 156t69 160.5t48.5 146.5t17 114t-22.5 62q-22 17 -58 13.5t-77 -17.5t-82.5 -41t-75.5 -56.5t-57.5 -64t-26.5 -63.5q-41 63 -19.5 117t77.5 92t123.5 58.5t117.5 16.5q68 -5 106 -45t42 -89q8 -64 -7.5 -145t-44 -155t-67 -151t-72 -132
t-64.5 -98q39 2 71.5 -1t59 -11.5t41 -25t12.5 -40.5q-24 24 -102 28.5t-171.5 -15.5t-149.5 -59q-11 13 -4.5 39.5t21.5 35.5q37 22 128 38zM431 556q-20 -70 -64 -170t-102 -194q37 35 101 176.5t65 187.5zM430 631q-16 -89 -96 -258.5t-119 -222.5q18 9 72 108.5
t100.5 215t42.5 157.5zM42 720q18 41 67.5 77t103.5 58q-26 -1 -67 -22.5t-73.5 -54t-30.5 -58.5z" />
    <glyph glyph-name="J" unicode="J" horiz-adv-x="291" 
d="M294 776q11 4 38.5 -20t32.5 -44q18 -141 -54 -343q-77 -212 -198 -334q-149 -149 -297 -76q-87 43 -165 164q77 -57 150 -78t132.5 -8.5t112.5 49t93 92.5t71.5 124.5t51 142t28.5 147.5q2 26 -11 55t-36 53t-57 35.5t-70 2.5q-7 5 -2 29.5t15 33.5q11 10 38.5 18.5
t64 13.5t77.5 7t80.5 -3t71.5 -14.5t51.5 -28t20.5 -43.5q-38 26 -122.5 36.5t-166.5 2.5t-116 -31q53 11 103 -19.5t65 -76.5q3 60 -2 113zM248 816q42 10 113.5 5.5t97.5 -20.5q-11 19 -95.5 24t-115.5 -9zM241 273q-21 -55 -64.5 -117.5t-102 -111t-108.5 -50.5
q31 -13 89.5 27t113.5 111.5t72 140.5zM-105 9q53 -10 104.5 8.5t90 55t72 82t54 89.5t31.5 77t9 46q-7 -33 -26.5 -78.5t-53.5 -98t-74.5 -95t-95.5 -68t-111 -18.5z" />
    <glyph glyph-name="K" unicode="K" horiz-adv-x="859" 
d="M972 838q-31 11 -133.5 -75t-222 -212.5t-238.5 -267.5q71 -111 184.5 -174t270.5 -70q-71 -36 -141.5 -34t-137 35t-120.5 84.5t-93 114.5q-127 -155 -181 -240q-16 4 -29 21.5t-19.5 37.5t-6.5 39.5t8 26.5q82 92 170 254q-15 74 8 127q8 -38 19 -74q34 68 59 131.5
t39 120t11.5 99t-23.5 62.5q-23 21 -64.5 23.5t-90 -12.5t-101 -40t-98.5 -59.5t-81.5 -70.5t-52.5 -74t-8 -68q8 -30 34 -36t60.5 5.5t75 30t81 34.5t76 23t62.5 -9t38 -58q-29 17 -60 15t-72.5 -18t-76 -34t-72 -32t-60.5 -14q-40 1 -74 33.5t-48 78.5t-1 86
q20 58 71.5 112t114.5 91t129 58.5t116 19.5q36 -1 70 -16.5t61.5 -42t43.5 -67.5t15 -89q-4 -153 -136 -376l8 -16q533 689 609 537q5 -9 7 -21zM273 576q-26 13 -101.5 -12.5t-103.5 -49.5q50 25 107 44t98 18zM-44 720q41 45 122 91.5t140 66.5q-41 -7 -98 -36.5
t-102 -63.5t-62 -58zM-87 687q56 79 157 138t182 74q-95 -8 -200.5 -77.5t-138.5 -134.5zM201 201q21 10 93 138q-2 4 -3 10q-61 -112 -90 -148zM252 241q19 17 51 72q-1 2 -3 7q-24 -42 -48 -79zM281 229q-8 -12 1 -3q6 8 38 50q-2 4 -4 9q-3 -5 -16 -25.5t-19 -30.5z
M320 404q2 -5 3 -10q108 205 104 268q-19 -86 -107 -258zM334 368q17 32 33 66t28.5 64.5t20.5 55t9 36.5q-31 -95 -94 -215zM727 24q-48 -6 -111.5 12.5t-102.5 48.5q14 -21 57.5 -42t86.5 -27t70 8zM837 821q-39 -14 -130 -105t-166 -180t-84 -110q45 61 176.5 203
t203.5 192z" />
    <glyph glyph-name="L" unicode="L" horiz-adv-x="949" 
d="M230 58q41 56 85.5 132t83.5 157t70.5 162.5t49.5 148.5t18 115.5t-22 63.5q-23 17 -59 13.5t-76.5 -17.5t-82.5 -41t-76 -56.5t-57 -64t-27 -63.5q-41 63 -19.5 117t77.5 92t123.5 58.5t118.5 16.5q46 -4 79.5 -25.5t49 -49.5t18.5 -59q8 -64 -7.5 -145t-44 -155.5
t-67 -151.5t-72 -131.5t-64.5 -98.5q245 47 305 55q213 26 253 -48q14 -25 11 -63q-62 44 -146.5 57.5t-169 2.5t-173.5 -32t-165.5 -41.5t-138.5 -29t-99 9t-41 67.5q73 -27 265 4zM317 59l-5 -6q28 4 82.5 15t99.5 20.5t94.5 16.5t78.5 6q-17 8 -67.5 1.5t-153 -27.5
t-129.5 -26zM535 556q-20 -70 -64 -170t-101 -194q36 35 100 176.5t65 187.5zM534 631q-16 -89 -95.5 -258.5t-119.5 -222.5q18 9 72 108.5t100.5 215t42.5 157.5zM146 720q18 41 67.5 77t103.5 58q-26 -1 -67 -22.5t-73.5 -54t-30.5 -58.5z" />
    <glyph glyph-name="M" unicode="M" horiz-adv-x="1005" 
d="M152 10q-24 13 -30 50.5t21 66.5q56 53 114.5 137t103 177t72 179t22 150.5t-48.5 84.5q-53 25 -153.5 -4.5t-196.5 -88t-174 -133.5t-93 -134q-9 -39 36 -38q42 1 195 55q175 62 237 64q71 2 71 -54q1 -21 -10 -52q-9 42 -44.5 49t-88.5 -12t-109.5 -43t-121 -43.5
t-109.5 -15.5q-24 2 -44.5 18.5t-31 39t-14.5 47.5t4 45q22 64 91.5 134.5t153 123t173.5 83.5t153 23q66 -8 114 -49.5t57 -98.5q16 -110 -42 -275q112 177 338 351q8 0 17.5 -6.5t18 -21.5t10.5 -35q-30 -48 -109 -228t-127 -337q30 57 79.5 123.5t100 122t95.5 101.5
t75 74l30 28q14 1 31 0.5t30 -7.5t10 -21q-25 -51 -51.5 -114.5t-52.5 -148.5t-39.5 -160t-6.5 -143.5t42 -104.5q-46 15 -74.5 47t-38 72.5t-6.5 92.5t14.5 101t31 105t38 98.5t39.5 85.5q-54 -51 -96.5 -95t-100.5 -112t-106.5 -148t-82.5 -165q-22 12 -40 45t-12 79
q5 39 37.5 134.5t84 215t100.5 207.5q-7 -6 -28.5 -23.5t-31 -25.5t-31 -27.5t-36.5 -36t-39 -43t-46.5 -56t-51.5 -68t-61 -86t-68 -103.5q-79 -128 -193 -253zM947 474q-30 -33 -64.5 -156t-21.5 -174q9 94 33.5 183t52.5 147zM992 524q-22 -21 -47 -83.5t-41 -132
t-23 -132.5t8 -84q-5 43 7.5 125.5t39 170t56.5 136.5zM577 264q27 99 61 186t98 222q-26 -29 -94 -199t-65 -209zM582 225q25 112 89.5 269t102.5 209q-9 -8 -24.5 -34t-33 -62.5t-36 -79.5t-35.5 -88.5t-31 -86t-22.5 -74.5t-9.5 -53zM307 545q-6 16 -42 17.5t-99.5 -16.5
t-117.5 -47q79 38 159 53t100 -7zM-72 702q49 49 144 99t164 70q-73 -10 -174 -67.5t-134 -101.5zM-124 666q69 89 187.5 152t211.5 75q-45 -2 -95.5 -17t-97 -39t-88 -53t-72.5 -60t-46 -58zM447 541q-20 -65 -64.5 -155.5t-102.5 -171.5q37 27 101.5 154.5t65.5 172.5z
M220 191q30 3 86.5 89.5t100.5 189t40 146.5q-12 -60 -56 -156t-93.5 -174t-77.5 -95z" />
    <glyph glyph-name="N" unicode="N" horiz-adv-x="762" 
d="M97 121q41 34 83.5 87t79 113t69 124.5t55 126t35.5 113t12 88.5t-17 51q-27 26 -83 26t-120.5 -21t-133.5 -56.5t-124 -76t-90 -84t-33 -76.5q1 -16 95 6q156 38 204 44q154 18 152 -72q0 -20 -8 -44q-15 37 -56 49t-94 3.5t-105.5 -22t-100 -22.5t-67.5 -2
q-29 10 -44 30.5t-15.5 44.5t4 46t14.5 40q19 38 74 88t128 96t163.5 72t168.5 15q56 -8 97.5 -66.5t43.5 -120.5q1 -42 -29 -137t-86 -205q165 185 444 385q14 0 27.5 -17.5t13.5 -47.5q-9 -13 -27 -44t-44.5 -84t-53 -112t-49.5 -128t-36.5 -132.5t-11 -125t23.5 -105.5
q-55 18 -80 68t-20.5 115.5t23.5 138t50 143t59 124.5t52 88q-10 -8 -50 -38t-62 -47.5t-71.5 -61.5t-94 -89t-112 -118.5t-142.5 -162.5q-53 -68 -112 -127q-25 18 -24.5 58t25.5 62zM320 322q36 61 63 122t28 86q-22 -65 -68.5 -153.5t-106.5 -168.5q5 3 12 10
q28 49 72 104zM691 476q-31 -33 -71.5 -153.5t-30.5 -171.5q14 93 43 180.5t59 144.5zM738 525q-30 -27 -66.5 -119.5t-55 -185.5t-3.5 -121q-3 68 37 211t88 215zM-32 524q62 19 130.5 29.5t114.5 2.5q-33 18 -120 4t-125 -36zM-88 692q48 48 142 97.5t162 69.5
q-72 -10 -172 -67t-132 -100zM-139 656q68 88 185 150t208 74q-72 -3 -156 -40t-147.5 -87.5t-89.5 -96.5zM177 185q29 3 87.5 88t104.5 186t43 145q-13 -60 -59 -154.5t-97.5 -171.5t-78.5 -93z" />
    <glyph glyph-name="N" unicode="&#xd1;" horiz-adv-x="762" 
d="M97 121q41 34 83.5 87t79 113t69 124.5t55 126t35.5 113t12 88.5t-17 51q-27 26 -83 26t-120.5 -21t-133.5 -56.5t-124 -76t-90 -84t-33 -76.5q1 -16 95 6q156 38 204 44q154 18 152 -72q0 -20 -8 -44q-15 37 -56 49t-94 3.5t-105.5 -22t-100 -22.5t-67.5 -2
q-29 10 -44 30.5t-15.5 44.5t4 46t14.5 40q19 38 74 88t128 96t163.5 72t168.5 15q56 -8 97.5 -66.5t43.5 -120.5q1 -42 -29 -137t-86 -205q165 185 444 385q14 0 27.5 -17.5t13.5 -47.5q-9 -13 -27 -44t-44.5 -84t-53 -112t-49.5 -128t-36.5 -132.5t-11 -125t23.5 -105.5
q-55 18 -80 68t-20.5 115.5t23.5 138t50 143t59 124.5t52 88q-10 -8 -50 -38t-62 -47.5t-71.5 -61.5t-94 -89t-112 -118.5t-142.5 -162.5q-53 -68 -112 -127q-25 18 -24.5 58t25.5 62zM320 322q36 61 63 122t28 86q-22 -65 -68.5 -153.5t-106.5 -168.5q5 3 12 10
q28 49 72 104zM691 476q-31 -33 -71.5 -153.5t-30.5 -171.5q14 93 43 180.5t59 144.5zM738 525q-30 -27 -66.5 -119.5t-55 -185.5t-3.5 -121q-3 68 37 211t88 215zM-32 524q62 19 130.5 29.5t114.5 2.5q-33 18 -120 4t-125 -36zM-88 692q48 48 142 97.5t162 69.5
q-72 -10 -172 -67t-132 -100zM-139 656q68 88 185 150t208 74q-72 -3 -156 -40t-147.5 -87.5t-89.5 -96.5zM177 185q29 3 87.5 88t104.5 186t43 145q-13 -60 -59 -154.5t-97.5 -171.5t-78.5 -93z" />
    <glyph glyph-name="O" unicode="O" horiz-adv-x="623" 
d="M424 204q118 1 229 28q-33 -37 -103.5 -56t-158.5 -17q-96 -125 -166 -153q-15 -4 -27 -4t-22.5 8.5t-18 18t-14.5 23t-10.5 24t-6.5 21.5q-12 40 -4 117q-43 19 -70 44q-1 1 -7.5 6t-10 8.5l-10 10t-11 12t-9 13t-7.5 15t-4 14.5q-5 44 13 104.5t52.5 122.5t82.5 124
t100 110t109 79t106 32q11 1 23 -0.5t30.5 -5t35.5 -13t35 -23.5t33 -38.5t24 -55.5q26 -82 -40.5 -250.5t-172.5 -318.5zM274 798q-25 -11 -72.5 -65.5t-87.5 -116.5t-43 -90q42 83 98.5 156t104.5 116zM339 824q-41 -13 -108.5 -90t-115 -160t-36.5 -112q2 50 95 181
t165 181zM147 194l1 9h-2q0 -5 1 -9zM159 250q39 155 105 269q-16 -15 -38.5 -60.5t-43.5 -103t-30 -102.5q3 -1 7 -3zM169 143q0 20 5 50q-5 2 -9 3q-4 -38 4 -53zM174 244q4 -2 9 -4q20 86 56 181t73 147q-33 -28 -76 -131t-62 -193zM203 53q55 26 126 109q-69 7 -130 24
q-15 -98 4 -133zM363 205q57 75 108.5 167t86 179.5t45 159.5t-14.5 106q-53 72 -172 4q-111 -64 -215 -208q-110 -150 -140 -293q27 -32 69 -55q8 42 21 84t35 90.5t51 93t70.5 90t91.5 84.5q12 2 28 -22t10 -45q-89 -69 -147.5 -181t-82.5 -227q69 -22 156 -27z" />
    <glyph glyph-name="O" unicode="&#xd8;" horiz-adv-x="623" 
d="M424 204q118 1 229 28q-33 -37 -103.5 -56t-158.5 -17q-96 -125 -166 -153q-15 -4 -27 -4t-22.5 8.5t-18 18t-14.5 23t-10.5 24t-6.5 21.5q-12 40 -4 117q-43 19 -70 44q-1 1 -7.5 6t-10 8.5l-10 10t-11 12t-9 13t-7.5 15t-4 14.5q-5 44 13 104.5t52.5 122.5t82.5 124
t100 110t109 79t106 32q11 1 23 -0.5t30.5 -5t35.5 -13t35 -23.5t33 -38.5t24 -55.5q26 -82 -40.5 -250.5t-172.5 -318.5zM274 798q-25 -11 -72.5 -65.5t-87.5 -116.5t-43 -90q42 83 98.5 156t104.5 116zM339 824q-41 -13 -108.5 -90t-115 -160t-36.5 -112q2 50 95 181
t165 181zM147 194l1 9h-2q0 -5 1 -9zM159 250q39 155 105 269q-16 -15 -38.5 -60.5t-43.5 -103t-30 -102.5q3 -1 7 -3zM169 143q0 20 5 50q-5 2 -9 3q-4 -38 4 -53zM174 244q4 -2 9 -4q20 86 56 181t73 147q-33 -28 -76 -131t-62 -193zM203 53q55 26 126 109q-69 7 -130 24
q-15 -98 4 -133zM363 205q57 75 108.5 167t86 179.5t45 159.5t-14.5 106q-53 72 -172 4q-111 -64 -215 -208q-110 -150 -140 -293q27 -32 69 -55q8 42 21 84t35 90.5t51 93t70.5 90t91.5 84.5q12 2 28 -22t10 -45q-89 -69 -147.5 -181t-82.5 -227q69 -22 156 -27z" />
    <glyph glyph-name="O" unicode="&#xd6;" horiz-adv-x="623" 
d="M424 204q118 1 229 28q-33 -37 -103.5 -56t-158.5 -17q-96 -125 -166 -153q-15 -4 -27 -4t-22.5 8.5t-18 18t-14.5 23t-10.5 24t-6.5 21.5q-12 40 -4 117q-43 19 -70 44q-1 1 -7.5 6t-10 8.5l-10 10t-11 12t-9 13t-7.5 15t-4 14.5q-5 44 13 104.5t52.5 122.5t82.5 124
t100 110t109 79t106 32q11 1 23 -0.5t30.5 -5t35.5 -13t35 -23.5t33 -38.5t24 -55.5q26 -82 -40.5 -250.5t-172.5 -318.5zM274 798q-25 -11 -72.5 -65.5t-87.5 -116.5t-43 -90q42 83 98.5 156t104.5 116zM339 824q-41 -13 -108.5 -90t-115 -160t-36.5 -112q2 50 95 181
t165 181zM147 194l1 9h-2q0 -5 1 -9zM159 250q39 155 105 269q-16 -15 -38.5 -60.5t-43.5 -103t-30 -102.5q3 -1 7 -3zM169 143q0 20 5 50q-5 2 -9 3q-4 -38 4 -53zM174 244q4 -2 9 -4q20 86 56 181t73 147q-33 -28 -76 -131t-62 -193zM203 53q55 26 126 109q-69 7 -130 24
q-15 -98 4 -133zM363 205q57 75 108.5 167t86 179.5t45 159.5t-14.5 106q-53 72 -172 4q-111 -64 -215 -208q-110 -150 -140 -293q27 -32 69 -55q8 42 21 84t35 90.5t51 93t70.5 90t91.5 84.5q12 2 28 -22t10 -45q-89 -69 -147.5 -181t-82.5 -227q69 -22 156 -27z" />
    <glyph glyph-name="O" unicode="&#xd5;" horiz-adv-x="623" 
d="M424 204q118 1 229 28q-33 -37 -103.5 -56t-158.5 -17q-96 -125 -166 -153q-15 -4 -27 -4t-22.5 8.5t-18 18t-14.5 23t-10.5 24t-6.5 21.5q-12 40 -4 117q-43 19 -70 44q-1 1 -7.5 6t-10 8.5l-10 10t-11 12t-9 13t-7.5 15t-4 14.5q-5 44 13 104.5t52.5 122.5t82.5 124
t100 110t109 79t106 32q11 1 23 -0.5t30.5 -5t35.5 -13t35 -23.5t33 -38.5t24 -55.5q26 -82 -40.5 -250.5t-172.5 -318.5zM274 798q-25 -11 -72.5 -65.5t-87.5 -116.5t-43 -90q42 83 98.5 156t104.5 116zM339 824q-41 -13 -108.5 -90t-115 -160t-36.5 -112q2 50 95 181
t165 181zM147 194l1 9h-2q0 -5 1 -9zM159 250q39 155 105 269q-16 -15 -38.5 -60.5t-43.5 -103t-30 -102.5q3 -1 7 -3zM169 143q0 20 5 50q-5 2 -9 3q-4 -38 4 -53zM174 244q4 -2 9 -4q20 86 56 181t73 147q-33 -28 -76 -131t-62 -193zM203 53q55 26 126 109q-69 7 -130 24
q-15 -98 4 -133zM363 205q57 75 108.5 167t86 179.5t45 159.5t-14.5 106q-53 72 -172 4q-111 -64 -215 -208q-110 -150 -140 -293q27 -32 69 -55q8 42 21 84t35 90.5t51 93t70.5 90t91.5 84.5q12 2 28 -22t10 -45q-89 -69 -147.5 -181t-82.5 -227q69 -22 156 -27z" />
    <glyph glyph-name="O" unicode="&#xd4;" horiz-adv-x="623" 
d="M424 204q118 1 229 28q-33 -37 -103.5 -56t-158.5 -17q-96 -125 -166 -153q-15 -4 -27 -4t-22.5 8.5t-18 18t-14.5 23t-10.5 24t-6.5 21.5q-12 40 -4 117q-43 19 -70 44q-1 1 -7.5 6t-10 8.5l-10 10t-11 12t-9 13t-7.5 15t-4 14.5q-5 44 13 104.5t52.5 122.5t82.5 124
t100 110t109 79t106 32q11 1 23 -0.5t30.5 -5t35.5 -13t35 -23.5t33 -38.5t24 -55.5q26 -82 -40.5 -250.5t-172.5 -318.5zM274 798q-25 -11 -72.5 -65.5t-87.5 -116.5t-43 -90q42 83 98.5 156t104.5 116zM339 824q-41 -13 -108.5 -90t-115 -160t-36.5 -112q2 50 95 181
t165 181zM147 194l1 9h-2q0 -5 1 -9zM159 250q39 155 105 269q-16 -15 -38.5 -60.5t-43.5 -103t-30 -102.5q3 -1 7 -3zM169 143q0 20 5 50q-5 2 -9 3q-4 -38 4 -53zM174 244q4 -2 9 -4q20 86 56 181t73 147q-33 -28 -76 -131t-62 -193zM203 53q55 26 126 109q-69 7 -130 24
q-15 -98 4 -133zM363 205q57 75 108.5 167t86 179.5t45 159.5t-14.5 106q-53 72 -172 4q-111 -64 -215 -208q-110 -150 -140 -293q27 -32 69 -55q8 42 21 84t35 90.5t51 93t70.5 90t91.5 84.5q12 2 28 -22t10 -45q-89 -69 -147.5 -181t-82.5 -227q69 -22 156 -27z" />
    <glyph glyph-name="O" unicode="&#xd3;" horiz-adv-x="623" 
d="M424 204q118 1 229 28q-33 -37 -103.5 -56t-158.5 -17q-96 -125 -166 -153q-15 -4 -27 -4t-22.5 8.5t-18 18t-14.5 23t-10.5 24t-6.5 21.5q-12 40 -4 117q-43 19 -70 44q-1 1 -7.5 6t-10 8.5l-10 10t-11 12t-9 13t-7.5 15t-4 14.5q-5 44 13 104.5t52.5 122.5t82.5 124
t100 110t109 79t106 32q11 1 23 -0.5t30.5 -5t35.5 -13t35 -23.5t33 -38.5t24 -55.5q26 -82 -40.5 -250.5t-172.5 -318.5zM274 798q-25 -11 -72.5 -65.5t-87.5 -116.5t-43 -90q42 83 98.5 156t104.5 116zM339 824q-41 -13 -108.5 -90t-115 -160t-36.5 -112q2 50 95 181
t165 181zM147 194l1 9h-2q0 -5 1 -9zM159 250q39 155 105 269q-16 -15 -38.5 -60.5t-43.5 -103t-30 -102.5q3 -1 7 -3zM169 143q0 20 5 50q-5 2 -9 3q-4 -38 4 -53zM174 244q4 -2 9 -4q20 86 56 181t73 147q-33 -28 -76 -131t-62 -193zM203 53q55 26 126 109q-69 7 -130 24
q-15 -98 4 -133zM363 205q57 75 108.5 167t86 179.5t45 159.5t-14.5 106q-53 72 -172 4q-111 -64 -215 -208q-110 -150 -140 -293q27 -32 69 -55q8 42 21 84t35 90.5t51 93t70.5 90t91.5 84.5q12 2 28 -22t10 -45q-89 -69 -147.5 -181t-82.5 -227q69 -22 156 -27z" />
    <glyph glyph-name="O" unicode="&#xd2;" horiz-adv-x="623" 
d="M424 204q118 1 229 28q-33 -37 -103.5 -56t-158.5 -17q-96 -125 -166 -153q-15 -4 -27 -4t-22.5 8.5t-18 18t-14.5 23t-10.5 24t-6.5 21.5q-12 40 -4 117q-43 19 -70 44q-1 1 -7.5 6t-10 8.5l-10 10t-11 12t-9 13t-7.5 15t-4 14.5q-5 44 13 104.5t52.5 122.5t82.5 124
t100 110t109 79t106 32q11 1 23 -0.5t30.5 -5t35.5 -13t35 -23.5t33 -38.5t24 -55.5q26 -82 -40.5 -250.5t-172.5 -318.5zM274 798q-25 -11 -72.5 -65.5t-87.5 -116.5t-43 -90q42 83 98.5 156t104.5 116zM339 824q-41 -13 -108.5 -90t-115 -160t-36.5 -112q2 50 95 181
t165 181zM147 194l1 9h-2q0 -5 1 -9zM159 250q39 155 105 269q-16 -15 -38.5 -60.5t-43.5 -103t-30 -102.5q3 -1 7 -3zM169 143q0 20 5 50q-5 2 -9 3q-4 -38 4 -53zM174 244q4 -2 9 -4q20 86 56 181t73 147q-33 -28 -76 -131t-62 -193zM203 53q55 26 126 109q-69 7 -130 24
q-15 -98 4 -133zM363 205q57 75 108.5 167t86 179.5t45 159.5t-14.5 106q-53 72 -172 4q-111 -64 -215 -208q-110 -150 -140 -293q27 -32 69 -55q8 42 21 84t35 90.5t51 93t70.5 90t91.5 84.5q12 2 28 -22t10 -45q-89 -69 -147.5 -181t-82.5 -227q69 -22 156 -27z" />
    <glyph glyph-name="P" unicode="P" horiz-adv-x="657" 
d="M173 -9q-16 2 -30.5 18.5t-22 37t-9.5 40.5t7 28q84 110 166 293q-37 28 -74 63q41 -27 81 -47q25 56 43.5 108t31.5 102.5t17 91.5t-3.5 73.5t-26.5 49.5q-21 17 -55 18t-73 -12t-82.5 -36.5t-84.5 -54t-76.5 -65.5t-60 -69.5t-34.5 -68t-1 -58.5t29.5 -31t47.5 4.5
t60 27.5t66.5 37.5t67 34.5t61.5 19.5t51 -8.5t34 -50q-22 16 -52 14.5t-58.5 -13t-61.5 -29t-61 -34.5t-56 -30t-47 -15q-39 -3 -72 23t-47 67.5t-4 81.5q16 59 63.5 117.5t106.5 101t122.5 70t112.5 31.5q46 3 89.5 -17t74.5 -65.5t33 -108.5q4 -137 -90 -337q12 -4 23 -8
q168 256 241 345q173 214 207 73q21 -86 2.5 -190t-73 -187.5t-146 -114.5t-217.5 27q-145 -212 -220 -348zM343 367q-11 -24 -23.5 -48t-26 -49t-18.5 -35q28 36 85 122q-8 5 -17 10zM764 793q-110 -78 -346 -419q83 -20 145 -5t103 54t66 91t34.5 106.5t8.5 99.5t-12 70
q0 1 1 3zM339 402q27 62 48.5 127t20.5 89q-22 -96 -75 -214zM323 409q36 80 60.5 160t19.5 113q-5 -47 -30.5 -122t-57.5 -148q7 -3 8 -3zM305 392q-45 -97 -70 -119q27 10 77 114q-1 1 -4 3zM322 380q-18 -40 -38 -76q17 17 43 73zM794 599q-3 -43 -21 -87t-44.5 -78
t-62.5 -55.5t-74 -21.5q38 -5 77.5 17.5t67.5 59.5t44.5 82t12.5 83zM777 591q-8 -47 -27.5 -87.5t-46.5 -71t-60 -49.5q43 19 75 58t45.5 78.5t13.5 71.5zM16 482q22 4 56.5 23.5t76.5 42.5t78 32q-25 1 -64.5 -19t-82 -45.5t-64.5 -33.5zM-28 737q37 40 109.5 82t125.5 60
q-56 -10 -133 -58.5t-102 -83.5zM237 897q-57 -4 -122.5 -36.5t-114 -74.5t-67.5 -79q51 72 141.5 124.5t162.5 65.5z" />
    <glyph glyph-name="Q" unicode="Q" horiz-adv-x="603" 
d="M398 152q44 -92 163 -70q-27 -31 -57 -43.5t-56.5 -7t-49.5 24.5t-38 49q-70 -78 -122 -99q-15 -4 -27 -4t-22.5 8.5t-18 18t-14.5 23t-10.5 24t-6.5 21.5q-12 41 -4 118q-37 14 -70 43q-1 1 -7.5 6t-10 8.5l-10 10t-11 12t-9 13t-7.5 15t-4 14.5q-5 44 13 104.5
t52.5 122.5t82.5 124t100 110t109 79t106 32q14 1 29 -0.5t38.5 -9t43 -21t39.5 -41t31 -64.5q19 -61 -15 -174.5t-98.5 -232.5t-138.5 -214zM287 798q-25 -11 -72.5 -65.5t-87.5 -116.5t-43 -90q42 83 98.5 156t104.5 116zM352 824q-41 -13 -108.5 -90t-115 -160
t-36.5 -112q2 50 95 181t165 181zM160 194l2 14l-3 1q0 -9 1 -15zM170 242q39 160 107 277q-25 -25 -63.5 -116t-50.5 -158q3 -1 7 -3zM182 143q0 23 7 62h-9q-7 -45 2 -62zM185 238q5 -1 10 -1q20 86 56.5 182t73.5 149q-33 -29 -77 -134.5t-63 -195.5zM341 162
q-10 57 9 116q-14 -19 -34.5 -34.5t-47 -26t-53.5 -12.5q-20 -113 1 -152q55 26 125 109zM371 321q0 -65 9 -111q76 101 138.5 225.5t88 228t-5.5 153.5q-53 72 -172 4q-110 -64 -215 -207q-110 -151 -141 -295q32 -43 68 -63q7 42 20 85t35 92.5t51 95t71.5 92.5t93.5 86
q7 1 17.5 -9.5t17.5 -27t3 -30.5q-89 -69 -147 -179.5t-82 -224.5q75 5 147 86l3 6v-2l2 2q-1 -3 -2 -7zM384 134q14 -32 42 -51.5t54 -21.5q-65 21 -94 76z" />
    <glyph glyph-name="R" unicode="R" horiz-adv-x="787" 
d="M162 -69q-15 2 -29.5 18.5t-22 37t-10 40t6.5 28.5q51 66 107.5 172.5t100.5 220.5t55.5 206.5t-28.5 130.5q-21 18 -55 19t-73 -12t-82 -37t-83.5 -54t-76 -65t-60 -69t-34.5 -67.5t-1 -59.5q9 -24 29.5 -30t47.5 4.5t59.5 27.5t66 37.5t67 34.5t61.5 19t50.5 -9
t33.5 -49q-22 15 -52 13.5t-58.5 -12.5t-61.5 -28.5t-60 -34.5t-55.5 -30t-47.5 -14q-39 -4 -71.5 22t-46.5 67t-4 82q13 47 46.5 94t77.5 85.5t93.5 69t98 48.5t87.5 21q46 3 89.5 -16.5t74 -65.5t32.5 -108q1 -33 -4 -70.5t-12.5 -69.5t-21.5 -71t-25.5 -67t-29 -65
t-28 -57t-27.5 -52.5t-22 -41.5q28 37 89 128q-1 11 -1 21q4 -2 11 -5q166 252 235 338q180 225 215 85q8 -32 8.5 -70.5t-6 -79.5t-19.5 -83t-31.5 -82t-42.5 -75t-51.5 -62.5t-60.5 -44.5t-68 -22.5t-74.5 6t-79.5 39.5q32 -50 55 -79.5t54 -57.5t65 -41t80 -19.5
t107 -2.5q-33 -46 -79.5 -57.5t-92.5 7t-89.5 54t-76.5 83.5t-48 96q-132 -195 -201 -319zM751 729q-112 -78 -352 -426q56 -19 102.5 -14.5t84 25t66.5 54.5t49.5 74t33.5 83t19 82t4.5 70.5t-8.5 48.5q0 2 1 3zM753 486q-19 -90 -89 -160.5t-144 -64.5q48 -11 103.5 24
t92 92.5t37.5 108.5zM736 479q-23 -69 -65.5 -120t-96.5 -76q66 22 110.5 82.5t51.5 113.5zM6 420q25 5 95.5 45.5t114.5 51.5q-25 1 -64 -18.5t-81.5 -45.5t-64.5 -33zM396 555q-14 -60 -46.5 -146t-76.5 -166q30 30 77.5 151.5t45.5 160.5zM392 619q-10 -82 -71.5 -229
t-96.5 -178q24 8 67.5 92.5t74.5 181t26 133.5zM-38 674q19 20 50 43t64 41.5t64.5 33.5t55.5 23q-37 -6 -87.5 -32.5t-90.5 -56.5t-56 -52zM226 834q-84 -8 -178.5 -70t-123.5 -120q50 71 140 124t162 66z" />
    <glyph glyph-name="S" unicode="S" horiz-adv-x="486" 
d="M352 345q70 70 135 245q56 153 47 214q-3 23 -17 21q-51 -5 -101 -33t-89 -70t-74 -95.5t-56.5 -110t-36 -113t-13.5 -105t13 -85.5q8 -22 48.5 -46t95.5 -36t114 1q25 -98 -66 -151q-78 -46 -185 -33q-109 13 -152 77q-37 54 -7 130q29 -61 75 -94.5t96 -37.5t99.5 12
t92.5 49q-48 -14 -121 15t-128 82.5t-55 103.5q-2 98 21.5 188.5t63.5 159t91 122t106.5 85t109.5 39.5q41 7 79.5 -35t43.5 -91q6 -64 -32.5 -176.5t-93.5 -182.5q-13 -18 -46.5 -35t-57.5 -14zM258 1q-62 -18 -128.5 1t-88.5 67q8 -25 34 -44.5t58 -28t66.5 -8t58.5 12.5z
M248 10q-51 -9 -96.5 0t-78.5 33q25 -22 59.5 -32.5t64.5 -9.5t51 9zM543 649q-6 -46 -31 -103t-53 -97q25 21 57.5 95.5t26.5 104.5zM541 715q-7 -69 -41.5 -155t-75.5 -147q24 21 54.5 82t49.5 126.5t13 93.5zM94 334q6 104 64 235t132 195q-39 -16 -89.5 -98.5
t-83 -180.5t-23.5 -151zM238 675q-36 -33 -83 -145t-41 -155q7 46 27 102t45.5 107t51.5 91z" />
    <glyph glyph-name="T" unicode="T" horiz-adv-x="241" 
d="M167 414q100 205 189 323q19 9 39.5 -6.5t18.5 -54.5q-29 -38 -55.5 -77t-72 -118.5t-83.5 -162t-78 -202t-66 -243.5q-32 31 -32.5 99t22.5 148.5t65 178.5v0q3 8 7 16q9 26 12.5 61.5t0.5 73t-17 72.5t-35.5 60.5t-57.5 36t-82 -0.5q-13 15 -12 46t9 47
q13 26 75.5 52.5t149.5 46t187 26t187 -1.5t150.5 -42t76.5 -91q-47 34 -131.5 50t-180 12.5t-191 -17t-174.5 -37.5t-121 -52q46 9 83.5 -1.5t61 -35t40 -58t18.5 -71.5t-3 -77zM678 760q-18 25 -107.5 35t-186.5 2.5t-137 -28.5q83 27 228 24.5t203 -33.5zM212 457
q-26 -22 -90.5 -178.5t-60.5 -195.5q44 147 151 374zM66 37q19 70 87 235t92 199q-15 -9 -46.5 -73t-61 -139t-51.5 -141.5t-20 -80.5z" />
    <glyph glyph-name="U" unicode="U" horiz-adv-x="788" 
d="M157 -64q-16 4 -29 21.5t-19.5 37.5t-6.5 39.5t8 26.5q57 64 122 171.5t113.5 218t66.5 203t-19 127.5q-23 21 -64.5 23.5t-90 -12.5t-100.5 -40t-98.5 -59.5t-82 -70.5t-52.5 -74t-8 -68q8 -30 34 -36t60.5 5.5t75 30t81 34.5t76 23t63 -9t37.5 -58q-29 17 -60 15
t-72.5 -17.5t-76 -34t-72 -32.5t-60.5 -14q-30 1 -58 20.5t-44.5 49t-24 64t3.5 64.5q20 58 71.5 112t114.5 91t129 58.5t116 19.5q36 -1 70 -16.5t61.5 -42t43.5 -67.5t15 -89q-1 -23 -6.5 -51.5t-12.5 -54.5t-22 -63t-25 -62t-32 -68t-33 -65.5t-36.5 -69.5t-35 -63.5
t-37 -65.5t-33.5 -59q47 21 111.5 77.5t128 127.5t137.5 163.5t132 170.5t119 163q14 0 35 -22.5t21 -51.5q-9 -13 -27 -44.5t-45 -84t-53 -112t-49 -128.5t-36.5 -132t-11.5 -125t24 -106q-40 13 -64 43t-31.5 68.5t-4 87t15.5 97.5t31 102t39 98t42 87q-17 -22 -70.5 -91
t-92.5 -118t-99 -118.5t-107.5 -115.5t-101 -83t-94.5 -46zM729 433q-31 -33 -71.5 -153.5t-30.5 -171.5q13 93 42 180.5t60 144.5zM776 482q-30 -27 -66.5 -119t-55 -185.5t-3.5 -121.5q-4 69 36.5 211.5t88.5 214.5zM424 599q-19 -85 -102.5 -248t-123.5 -213
q18 8 73.5 103.5t105 206t47.5 151.5zM65 451q50 25 107 44t98 18q-18 9 -62 -1.5t-85 -28.5t-58 -32zM-47 657q41 45 122 91.5t140 66.5q-62 -11 -148 -65t-114 -93zM-90 624q57 79 157.5 138t181.5 74q-95 -8 -200.5 -77.5t-138.5 -134.5zM249 178q36 33 103 169t70 180
q-22 -67 -68 -163t-105 -186z" />
    <glyph glyph-name="U" unicode="&#xdc;" horiz-adv-x="788" 
d="M157 -64q-16 4 -29 21.5t-19.5 37.5t-6.5 39.5t8 26.5q57 64 122 171.5t113.5 218t66.5 203t-19 127.5q-23 21 -64.5 23.5t-90 -12.5t-100.5 -40t-98.5 -59.5t-82 -70.5t-52.5 -74t-8 -68q8 -30 34 -36t60.5 5.5t75 30t81 34.5t76 23t63 -9t37.5 -58q-29 17 -60 15
t-72.5 -17.5t-76 -34t-72 -32.5t-60.5 -14q-30 1 -58 20.5t-44.5 49t-24 64t3.5 64.5q20 58 71.5 112t114.5 91t129 58.5t116 19.5q36 -1 70 -16.5t61.5 -42t43.5 -67.5t15 -89q-1 -23 -6.5 -51.5t-12.5 -54.5t-22 -63t-25 -62t-32 -68t-33 -65.5t-36.5 -69.5t-35 -63.5
t-37 -65.5t-33.5 -59q47 21 111.5 77.5t128 127.5t137.5 163.5t132 170.5t119 163q14 0 35 -22.5t21 -51.5q-9 -13 -27 -44.5t-45 -84t-53 -112t-49 -128.5t-36.5 -132t-11.5 -125t24 -106q-40 13 -64 43t-31.5 68.5t-4 87t15.5 97.5t31 102t39 98t42 87q-17 -22 -70.5 -91
t-92.5 -118t-99 -118.5t-107.5 -115.5t-101 -83t-94.5 -46zM729 433q-31 -33 -71.5 -153.5t-30.5 -171.5q13 93 42 180.5t60 144.5zM776 482q-30 -27 -66.5 -119t-55 -185.5t-3.5 -121.5q-4 69 36.5 211.5t88.5 214.5zM424 599q-19 -85 -102.5 -248t-123.5 -213
q18 8 73.5 103.5t105 206t47.5 151.5zM65 451q50 25 107 44t98 18q-18 9 -62 -1.5t-85 -28.5t-58 -32zM-47 657q41 45 122 91.5t140 66.5q-62 -11 -148 -65t-114 -93zM-90 624q57 79 157.5 138t181.5 74q-95 -8 -200.5 -77.5t-138.5 -134.5zM249 178q36 33 103 169t70 180
q-22 -67 -68 -163t-105 -186z" />
    <glyph glyph-name="U" unicode="&#xdb;" horiz-adv-x="788" 
d="M157 -64q-16 4 -29 21.5t-19.5 37.5t-6.5 39.5t8 26.5q57 64 122 171.5t113.5 218t66.5 203t-19 127.5q-23 21 -64.5 23.5t-90 -12.5t-100.5 -40t-98.5 -59.5t-82 -70.5t-52.5 -74t-8 -68q8 -30 34 -36t60.5 5.5t75 30t81 34.5t76 23t63 -9t37.5 -58q-29 17 -60 15
t-72.5 -17.5t-76 -34t-72 -32.5t-60.5 -14q-30 1 -58 20.5t-44.5 49t-24 64t3.5 64.5q20 58 71.5 112t114.5 91t129 58.5t116 19.5q36 -1 70 -16.5t61.5 -42t43.5 -67.5t15 -89q-1 -23 -6.5 -51.5t-12.5 -54.5t-22 -63t-25 -62t-32 -68t-33 -65.5t-36.5 -69.5t-35 -63.5
t-37 -65.5t-33.5 -59q47 21 111.5 77.5t128 127.5t137.5 163.5t132 170.5t119 163q14 0 35 -22.5t21 -51.5q-9 -13 -27 -44.5t-45 -84t-53 -112t-49 -128.5t-36.5 -132t-11.5 -125t24 -106q-40 13 -64 43t-31.5 68.5t-4 87t15.5 97.5t31 102t39 98t42 87q-17 -22 -70.5 -91
t-92.5 -118t-99 -118.5t-107.5 -115.5t-101 -83t-94.5 -46zM729 433q-31 -33 -71.5 -153.5t-30.5 -171.5q13 93 42 180.5t60 144.5zM776 482q-30 -27 -66.5 -119t-55 -185.5t-3.5 -121.5q-4 69 36.5 211.5t88.5 214.5zM424 599q-19 -85 -102.5 -248t-123.5 -213
q18 8 73.5 103.5t105 206t47.5 151.5zM65 451q50 25 107 44t98 18q-18 9 -62 -1.5t-85 -28.5t-58 -32zM-47 657q41 45 122 91.5t140 66.5q-62 -11 -148 -65t-114 -93zM-90 624q57 79 157.5 138t181.5 74q-95 -8 -200.5 -77.5t-138.5 -134.5zM249 178q36 33 103 169t70 180
q-22 -67 -68 -163t-105 -186z" />
    <glyph glyph-name="U" unicode="&#xda;" horiz-adv-x="788" 
d="M157 -64q-16 4 -29 21.5t-19.5 37.5t-6.5 39.5t8 26.5q57 64 122 171.5t113.5 218t66.5 203t-19 127.5q-23 21 -64.5 23.5t-90 -12.5t-100.5 -40t-98.5 -59.5t-82 -70.5t-52.5 -74t-8 -68q8 -30 34 -36t60.5 5.5t75 30t81 34.5t76 23t63 -9t37.5 -58q-29 17 -60 15
t-72.5 -17.5t-76 -34t-72 -32.5t-60.5 -14q-30 1 -58 20.5t-44.5 49t-24 64t3.5 64.5q20 58 71.5 112t114.5 91t129 58.5t116 19.5q36 -1 70 -16.5t61.5 -42t43.5 -67.5t15 -89q-1 -23 -6.5 -51.5t-12.5 -54.5t-22 -63t-25 -62t-32 -68t-33 -65.5t-36.5 -69.5t-35 -63.5
t-37 -65.5t-33.5 -59q47 21 111.5 77.5t128 127.5t137.5 163.5t132 170.5t119 163q14 0 35 -22.5t21 -51.5q-9 -13 -27 -44.5t-45 -84t-53 -112t-49 -128.5t-36.5 -132t-11.5 -125t24 -106q-40 13 -64 43t-31.5 68.5t-4 87t15.5 97.5t31 102t39 98t42 87q-17 -22 -70.5 -91
t-92.5 -118t-99 -118.5t-107.5 -115.5t-101 -83t-94.5 -46zM729 433q-31 -33 -71.5 -153.5t-30.5 -171.5q13 93 42 180.5t60 144.5zM776 482q-30 -27 -66.5 -119t-55 -185.5t-3.5 -121.5q-4 69 36.5 211.5t88.5 214.5zM424 599q-19 -85 -102.5 -248t-123.5 -213
q18 8 73.5 103.5t105 206t47.5 151.5zM65 451q50 25 107 44t98 18q-18 9 -62 -1.5t-85 -28.5t-58 -32zM-47 657q41 45 122 91.5t140 66.5q-62 -11 -148 -65t-114 -93zM-90 624q57 79 157.5 138t181.5 74q-95 -8 -200.5 -77.5t-138.5 -134.5zM249 178q36 33 103 169t70 180
q-22 -67 -68 -163t-105 -186z" />
    <glyph glyph-name="U" unicode="&#xd9;" horiz-adv-x="788" 
d="M157 -64q-16 4 -29 21.5t-19.5 37.5t-6.5 39.5t8 26.5q57 64 122 171.5t113.5 218t66.5 203t-19 127.5q-23 21 -64.5 23.5t-90 -12.5t-100.5 -40t-98.5 -59.5t-82 -70.5t-52.5 -74t-8 -68q8 -30 34 -36t60.5 5.5t75 30t81 34.5t76 23t63 -9t37.5 -58q-29 17 -60 15
t-72.5 -17.5t-76 -34t-72 -32.5t-60.5 -14q-30 1 -58 20.5t-44.5 49t-24 64t3.5 64.5q20 58 71.5 112t114.5 91t129 58.5t116 19.5q36 -1 70 -16.5t61.5 -42t43.5 -67.5t15 -89q-1 -23 -6.5 -51.5t-12.5 -54.5t-22 -63t-25 -62t-32 -68t-33 -65.5t-36.5 -69.5t-35 -63.5
t-37 -65.5t-33.5 -59q47 21 111.5 77.5t128 127.5t137.5 163.5t132 170.5t119 163q14 0 35 -22.5t21 -51.5q-9 -13 -27 -44.5t-45 -84t-53 -112t-49 -128.5t-36.5 -132t-11.5 -125t24 -106q-40 13 -64 43t-31.5 68.5t-4 87t15.5 97.5t31 102t39 98t42 87q-17 -22 -70.5 -91
t-92.5 -118t-99 -118.5t-107.5 -115.5t-101 -83t-94.5 -46zM729 433q-31 -33 -71.5 -153.5t-30.5 -171.5q13 93 42 180.5t60 144.5zM776 482q-30 -27 -66.5 -119t-55 -185.5t-3.5 -121.5q-4 69 36.5 211.5t88.5 214.5zM424 599q-19 -85 -102.5 -248t-123.5 -213
q18 8 73.5 103.5t105 206t47.5 151.5zM65 451q50 25 107 44t98 18q-18 9 -62 -1.5t-85 -28.5t-58 -32zM-47 657q41 45 122 91.5t140 66.5q-62 -11 -148 -65t-114 -93zM-90 624q57 79 157.5 138t181.5 74q-95 -8 -200.5 -77.5t-138.5 -134.5zM249 178q36 33 103 169t70 180
q-22 -67 -68 -163t-105 -186z" />
    <glyph glyph-name="V" unicode="V" horiz-adv-x="456" 
d="M207 -65q-21 -1 -43 20.5t-32 47t-2 38.5q38 75 71 193t51 234.5t9 210t-50 114.5q-28 15 -68 6t-81.5 -35t-85 -64t-77.5 -82t-59 -88t-30 -83t10 -67q14 -23 36 -25t46.5 12.5t53.5 36.5t58 47.5t59 44.5t57 29t52.5 0t43.5 -43q-27 10 -60 -1t-65 -36t-62 -51.5
t-61 -49.5t-52 -28q-38 -10 -79 11.5t-66 61.5t-23 81q3 60 38 124.5t85 115.5t106.5 88.5t104.5 48.5q46 11 93 -1t87 -52t55 -100q8 -33 11 -70t2 -70t-6.5 -73t-11 -69t-15.5 -68.5t-16 -60.5t-16.5 -55.5t-12.5 -43.5q-5 -16 5 -5q6 8 108 165q252 392 374 444
q63 28 95 -31q-44 13 -141.5 -80t-197 -227.5t-186 -280.5t-112.5 -234zM-14 396q41 37 90 70t87 43q-28 5 -92 -38.5t-85 -74.5zM-172 562q27 53 91 118t115 100q-57 -27 -124 -100.5t-82 -117.5zM-205 520q22 60 70 121.5t99 103t96 63.5q-88 -32 -169 -125t-96 -163z
M304 561q-4 -69 -22.5 -171.5t-50.5 -203.5q26 41 53.5 187t19.5 188zM194 136q14 12 42 116.5t46 222t5 155.5q3 -59 -15 -168.5t-41 -200.5t-37 -125z" />
    <glyph glyph-name="W" unicode="W" horiz-adv-x="896" 
d="M144 59q52 48 102.5 130.5t85.5 172t57 175t21.5 148.5t-25.5 82q-30 27 -86 27t-119 -21.5t-128.5 -57t-116.5 -76.5t-81 -84.5t-25 -76.5q1 -6 10 -8t29.5 2t37 7.5t50.5 12.5q51 13 79 19.5t77 15t76.5 4.5t56 -14t37.5 -37t1 -69q-19 37 -62 49t-95.5 3.5
t-103.5 -21.5t-98 -22.5t-69 -2.5q-29 10 -46.5 31t-21 45t-1 46t9.5 40q12 31 46 70t86 78.5t111.5 71t130 47.5t135.5 7q57 -8 105.5 -67t56.5 -122q9 -65 -35 -221t-138 -315q279 276 422 640q14 4 37 -10t34 -40q-17 -58 -46.5 -264t-30.5 -372q20 102 101 296
q129 307 237 388q76 56 129 -18q-50 2 -111.5 -56t-123.5 -161t-121.5 -258t-103.5 -335q-24 6 -50 32.5t-33 72.5q-10 64 9.5 257t55.5 340q-19 -54 -69.5 -140t-121 -184.5t-165 -201.5t-187.5 -175q-27 17 -31 58t19 62zM669 145q-1 103 8.5 196t36.5 240
q-18 -35 -38 -217t-7 -219zM684 109q-6 116 14.5 284t43.5 229q-26 -39 -49.5 -243t-8.5 -270zM-31 466q61 19 129 29.5t115 2.5q-36 17 -122 3t-122 -35zM-106 634q44 50 132.5 99t155.5 70q-71 -10 -165.5 -67.5t-122.5 -101.5zM-153 599q40 59 109 110t137 79.5t125 35.5
q-72 -3 -152.5 -40.5t-139 -88t-79.5 -96.5zM415 472q-15 -66 -52 -155.5t-88 -169.5q34 26 88 153t52 172zM217 124q29 3 78.5 88.5t85 187.5t27.5 146q-6 -60 -42.5 -155t-79.5 -173t-69 -94z" />
    <glyph glyph-name="X" unicode="X" horiz-adv-x="549" 
d="M683 781q-196 -144 -375 -338q80 -287 206 -559q-29 4 -62.5 48t-66.5 117.5t-63 159t-58 185.5q-178 -201 -320 -433q-11 27 -9 60t20.5 76.5t45.5 88.5t65.5 97t80.5 102t91 103q-62 232 -83 382q2 13 11 19.5t24 -1.5t30 -33q23 -156 63 -318q98 102 197 191.5
t166 139.5q11 2 21.5 -2t18 -14t7.5 -28.5t-10 -42.5zM366 587q-19 -8 -78 -69l3 -12q36 40 75 81zM243 469q-74 -81 -136.5 -160.5t-69.5 -107.5q81 112 209 256zM22 147q61 89 231 283l-3 12q-80 -90 -151.5 -182.5t-76.5 -112.5zM394 62q0 1 -41.5 135.5t-86 287.5
t-52.5 200q3 -81 78.5 -322t101.5 -301zM298 480q83 93 110 114q-25 -7 -113 -102z" />
    <glyph glyph-name="Y" unicode="Y" horiz-adv-x="736" 
d="M121 166q-23 6 -36.5 45t-0.5 49q42 46 88.5 124.5t80.5 160t45.5 150t-16.5 95.5q-20 19 -58.5 19.5t-81 -14t-86.5 -40t-77.5 -55.5t-51 -63t-9.5 -60q8 -25 32.5 -28.5t56 9.5t68 27t68 24t57.5 -1.5t36 -47.5q-20 18 -57.5 11.5t-69 -21.5t-68.5 -30t-57 -14
q-46 3 -77.5 54.5t-17.5 96.5q18 56 75.5 104.5t123.5 73t117 21.5q26 -2 51.5 -14t46.5 -32.5t34 -51.5t13 -67q0 -49 -23 -120t-55.5 -137.5t-64 -120.5t-53.5 -82q75 8 167.5 74.5t167.5 154t123.5 186t41.5 165.5q6 2 19 -5t26.5 -18.5t25 -25.5t13.5 -26
q21 -159 -56 -387q-80 -240 -214 -389q-161 -178 -325 -132q-127 35 -242 209q108 -78 205 -101t169 4.5t134 83.5t104.5 136t75 163t50.5 163.5t26 138.5t7 87q-17 -83 -72.5 -177t-130.5 -173t-168.5 -134t-179.5 -62zM595 218q-17 -48 -52 -103.5t-78.5 -105.5t-95 -84.5
t-95.5 -37.5q26 -10 74.5 16.5t97.5 74t91.5 113.5t57.5 127zM612 329q-6 -32 -23.5 -75t-44.5 -94t-65 -98t-81 -85t-98 -58.5t-110 -13.5q62 -12 122.5 10.5t106 65.5t84 97t62.5 106t36.5 91t10.5 54zM43 552q94 45 152 41q-13 7 -45.5 0.5t-63 -19t-43.5 -22.5zM-43 708
q30 33 89 65.5t103 46.5q-23 -3 -53.5 -16.5t-58 -30t-49.5 -34.5t-31 -31zM-75 684q28 40 74.5 73.5t91.5 52.5t82 24q-70 -3 -147 -52.5t-101 -97.5zM308 600q-15 -50 -47.5 -120.5t-75.5 -135.5q27 24 74.5 123.5t48.5 132.5zM149 315q12 6 52 76t75 151t33 112
q-13 -64 -72 -183t-88 -156z" />
    <glyph glyph-name="Y" unicode="&#xdd;" horiz-adv-x="736" 
d="M121 166q-23 6 -36.5 45t-0.5 49q42 46 88.5 124.5t80.5 160t45.5 150t-16.5 95.5q-20 19 -58.5 19.5t-81 -14t-86.5 -40t-77.5 -55.5t-51 -63t-9.5 -60q8 -25 32.5 -28.5t56 9.5t68 27t68 24t57.5 -1.5t36 -47.5q-20 18 -57.5 11.5t-69 -21.5t-68.5 -30t-57 -14
q-46 3 -77.5 54.5t-17.5 96.5q18 56 75.5 104.5t123.5 73t117 21.5q26 -2 51.5 -14t46.5 -32.5t34 -51.5t13 -67q0 -49 -23 -120t-55.5 -137.5t-64 -120.5t-53.5 -82q75 8 167.5 74.5t167.5 154t123.5 186t41.5 165.5q6 2 19 -5t26.5 -18.5t25 -25.5t13.5 -26
q21 -159 -56 -387q-80 -240 -214 -389q-161 -178 -325 -132q-127 35 -242 209q108 -78 205 -101t169 4.5t134 83.5t104.5 136t75 163t50.5 163.5t26 138.5t7 87q-17 -83 -72.5 -177t-130.5 -173t-168.5 -134t-179.5 -62zM595 218q-17 -48 -52 -103.5t-78.5 -105.5t-95 -84.5
t-95.5 -37.5q26 -10 74.5 16.5t97.5 74t91.5 113.5t57.5 127zM612 329q-6 -32 -23.5 -75t-44.5 -94t-65 -98t-81 -85t-98 -58.5t-110 -13.5q62 -12 122.5 10.5t106 65.5t84 97t62.5 106t36.5 91t10.5 54zM43 552q94 45 152 41q-13 7 -45.5 0.5t-63 -19t-43.5 -22.5zM-43 708
q30 33 89 65.5t103 46.5q-23 -3 -53.5 -16.5t-58 -30t-49.5 -34.5t-31 -31zM-75 684q28 40 74.5 73.5t91.5 52.5t82 24q-70 -3 -147 -52.5t-101 -97.5zM308 600q-15 -50 -47.5 -120.5t-75.5 -135.5q27 24 74.5 123.5t48.5 132.5zM149 315q12 6 52 76t75 151t33 112
q-13 -64 -72 -183t-88 -156z" />
    <glyph glyph-name="Z" unicode="Z" horiz-adv-x="603" 
d="M50 586q-11 26 -3.5 56.5t23.5 42.5q57 47 145.5 86t175 53t149.5 -8q53 -21 81.5 -79.5t13.5 -112.5q-11 -36 -61.5 -74.5t-121 -67.5t-137.5 -39q47 -3 84 -14t60 -27t40 -36.5t23 -42t9 -43.5t-1 -41q-6 -44 -31 -93t-62.5 -92.5t-84.5 -85t-96 -70t-98 -47t-90 -17.5
t-72 19q-69 47 -67 140q56 -37 124 -37.5t129.5 26.5t120.5 71t101.5 93.5t67 96.5t20.5 77q-3 29 -30 49.5t-66 31t-87.5 14.5t-91.5 3t-81 -5q-9 0 -18 11.5t-14.5 26.5t-5.5 27q76 -11 152 -0.5t145.5 39.5t120 64t76 72.5t13.5 65.5q-15 33 -77.5 40t-143 -10.5
t-173.5 -61t-161 -101.5zM361 45q-57 -64 -157 -114t-163 -29q15 -10 42.5 -10.5t67 12.5t77.5 32.5t74.5 48.5t58.5 60zM404 119q-16 -26 -47.5 -57t-76 -64.5t-93.5 -54.5t-101 -26t-99 21q65 -37 136.5 -22.5t133 57t102.5 85t45 61.5zM175 713q63 41 144 62t134 17
q-59 10 -147 -16.5t-131 -62.5zM548 570q-34 -30 -88.5 -56t-100.5 -36q15 -1 44 8.5t58 23.5t54 30.5t33 29.5zM311 474q48 0 152 53.5t125 91.5q-49 -45 -128.5 -86t-148.5 -59z" />
    <glyph glyph-name="a" unicode="a" horiz-adv-x="327" 
d="M261 254q10 29 9.5 65t-14.5 40q-16 5 -53 -23t-76.5 -72.5t-71 -106t-35.5 -115.5q45 64 112 130t82 66q16 -1 29 -9t17 -23q1 -2 -2 -31.5t-3 -61.5t15.5 -70.5t46.5 -61.5q-39 2 -64.5 32.5t-32.5 70.5t-7 74.5t6 51.5q-10 -2 -42.5 -30t-77 -83.5t-71.5 -112.5
q-15 -2 -30 25t-14 65q2 46 42 120t94.5 132t92.5 61q73 6 86 -46q16 -69 -38 -87zM225 192q-9 -30 -1.5 -80.5t21.5 -68.5q-12 28 -18 76t-2 73zM234 209q-8 -33 -4.5 -72t14 -74t22.5 -49q-23 46 -30 101t-2 94zM25 142q17 38 59 97.5t72 89.5q-37 -29 -81.5 -94.5
t-49.5 -92.5zM182 362q-29 -19 -62 -55t-57.5 -73.5t-41 -72.5t-16.5 -52q14 59 72.5 138t104.5 115z" />
    <glyph glyph-name="a" unicode="&#xe5;" horiz-adv-x="327" 
d="M261 254q10 29 9.5 65t-14.5 40q-16 5 -53 -23t-76.5 -72.5t-71 -106t-35.5 -115.5q45 64 112 130t82 66q16 -1 29 -9t17 -23q1 -2 -2 -31.5t-3 -61.5t15.5 -70.5t46.5 -61.5q-39 2 -64.5 32.5t-32.5 70.5t-7 74.5t6 51.5q-10 -2 -42.5 -30t-77 -83.5t-71.5 -112.5
q-15 -2 -30 25t-14 65q2 46 42 120t94.5 132t92.5 61q73 6 86 -46q16 -69 -38 -87zM225 192q-9 -30 -1.5 -80.5t21.5 -68.5q-12 28 -18 76t-2 73zM234 209q-8 -33 -4.5 -72t14 -74t22.5 -49q-23 46 -30 101t-2 94zM25 142q17 38 59 97.5t72 89.5q-37 -29 -81.5 -94.5
t-49.5 -92.5zM182 362q-29 -19 -62 -55t-57.5 -73.5t-41 -72.5t-16.5 -52q14 59 72.5 138t104.5 115z" />
    <glyph glyph-name="a" unicode="&#xe4;" horiz-adv-x="327" 
d="M261 254q10 29 9.5 65t-14.5 40q-16 5 -53 -23t-76.5 -72.5t-71 -106t-35.5 -115.5q45 64 112 130t82 66q16 -1 29 -9t17 -23q1 -2 -2 -31.5t-3 -61.5t15.5 -70.5t46.5 -61.5q-39 2 -64.5 32.5t-32.5 70.5t-7 74.5t6 51.5q-10 -2 -42.5 -30t-77 -83.5t-71.5 -112.5
q-15 -2 -30 25t-14 65q2 46 42 120t94.5 132t92.5 61q73 6 86 -46q16 -69 -38 -87zM225 192q-9 -30 -1.5 -80.5t21.5 -68.5q-12 28 -18 76t-2 73zM234 209q-8 -33 -4.5 -72t14 -74t22.5 -49q-23 46 -30 101t-2 94zM25 142q17 38 59 97.5t72 89.5q-37 -29 -81.5 -94.5
t-49.5 -92.5zM182 362q-29 -19 -62 -55t-57.5 -73.5t-41 -72.5t-16.5 -52q14 59 72.5 138t104.5 115z" />
    <glyph glyph-name="a" unicode="&#xe3;" horiz-adv-x="327" 
d="M261 254q10 29 9.5 65t-14.5 40q-16 5 -53 -23t-76.5 -72.5t-71 -106t-35.5 -115.5q45 64 112 130t82 66q16 -1 29 -9t17 -23q1 -2 -2 -31.5t-3 -61.5t15.5 -70.5t46.5 -61.5q-39 2 -64.5 32.5t-32.5 70.5t-7 74.5t6 51.5q-10 -2 -42.5 -30t-77 -83.5t-71.5 -112.5
q-15 -2 -30 25t-14 65q2 46 42 120t94.5 132t92.5 61q73 6 86 -46q16 -69 -38 -87zM225 192q-9 -30 -1.5 -80.5t21.5 -68.5q-12 28 -18 76t-2 73zM234 209q-8 -33 -4.5 -72t14 -74t22.5 -49q-23 46 -30 101t-2 94zM25 142q17 38 59 97.5t72 89.5q-37 -29 -81.5 -94.5
t-49.5 -92.5zM182 362q-29 -19 -62 -55t-57.5 -73.5t-41 -72.5t-16.5 -52q14 59 72.5 138t104.5 115z" />
    <glyph glyph-name="a" unicode="&#xe2;" horiz-adv-x="327" 
d="M261 254q10 29 9.5 65t-14.5 40q-16 5 -53 -23t-76.5 -72.5t-71 -106t-35.5 -115.5q45 64 112 130t82 66q16 -1 29 -9t17 -23q1 -2 -2 -31.5t-3 -61.5t15.5 -70.5t46.5 -61.5q-39 2 -64.5 32.5t-32.5 70.5t-7 74.5t6 51.5q-10 -2 -42.5 -30t-77 -83.5t-71.5 -112.5
q-15 -2 -30 25t-14 65q2 46 42 120t94.5 132t92.5 61q73 6 86 -46q16 -69 -38 -87zM225 192q-9 -30 -1.5 -80.5t21.5 -68.5q-12 28 -18 76t-2 73zM234 209q-8 -33 -4.5 -72t14 -74t22.5 -49q-23 46 -30 101t-2 94zM25 142q17 38 59 97.5t72 89.5q-37 -29 -81.5 -94.5
t-49.5 -92.5zM182 362q-29 -19 -62 -55t-57.5 -73.5t-41 -72.5t-16.5 -52q14 59 72.5 138t104.5 115z" />
    <glyph glyph-name="a" unicode="&#xe1;" horiz-adv-x="327" 
d="M261 254q10 29 9.5 65t-14.5 40q-16 5 -53 -23t-76.5 -72.5t-71 -106t-35.5 -115.5q45 64 112 130t82 66q16 -1 29 -9t17 -23q1 -2 -2 -31.5t-3 -61.5t15.5 -70.5t46.5 -61.5q-39 2 -64.5 32.5t-32.5 70.5t-7 74.5t6 51.5q-10 -2 -42.5 -30t-77 -83.5t-71.5 -112.5
q-15 -2 -30 25t-14 65q2 46 42 120t94.5 132t92.5 61q73 6 86 -46q16 -69 -38 -87zM225 192q-9 -30 -1.5 -80.5t21.5 -68.5q-12 28 -18 76t-2 73zM234 209q-8 -33 -4.5 -72t14 -74t22.5 -49q-23 46 -30 101t-2 94zM25 142q17 38 59 97.5t72 89.5q-37 -29 -81.5 -94.5
t-49.5 -92.5zM182 362q-29 -19 -62 -55t-57.5 -73.5t-41 -72.5t-16.5 -52q14 59 72.5 138t104.5 115z" />
    <glyph glyph-name="a" unicode="&#xe0;" horiz-adv-x="327" 
d="M261 254q10 29 9.5 65t-14.5 40q-16 5 -53 -23t-76.5 -72.5t-71 -106t-35.5 -115.5q45 64 112 130t82 66q16 -1 29 -9t17 -23q1 -2 -2 -31.5t-3 -61.5t15.5 -70.5t46.5 -61.5q-39 2 -64.5 32.5t-32.5 70.5t-7 74.5t6 51.5q-10 -2 -42.5 -30t-77 -83.5t-71.5 -112.5
q-15 -2 -30 25t-14 65q2 46 42 120t94.5 132t92.5 61q73 6 86 -46q16 -69 -38 -87zM225 192q-9 -30 -1.5 -80.5t21.5 -68.5q-12 28 -18 76t-2 73zM234 209q-8 -33 -4.5 -72t14 -74t22.5 -49q-23 46 -30 101t-2 94zM25 142q17 38 59 97.5t72 89.5q-37 -29 -81.5 -94.5
t-49.5 -92.5zM182 362q-29 -19 -62 -55t-57.5 -73.5t-41 -72.5t-16.5 -52q14 59 72.5 138t104.5 115z" />
    <glyph glyph-name="b" unicode="b" horiz-adv-x="395" 
d="M331 237q13 -39 2.5 -91t-42.5 -93t-87.5 -51t-132.5 36q-25 -59 -36 -106q-16 4 -32.5 41.5t-14.5 78.5q3 69 95.5 320t123.5 307q8 3 23.5 -10t18.5 -36q-46 -91 -127 -314t-85 -281q13 31 25.5 59.5t27 58t29 53.5t30 46t31.5 36.5t31.5 23t31.5 7.5t31 -12
q41 -28 57 -73zM40 148q22 81 82.5 250.5t82.5 201.5q-27 -29 -97 -228t-68 -224zM180 569q-22 -26 -82.5 -192t-58.5 -195l8.5 27.5t10 33t10.5 32.5t13.5 39.5t14 40t17.5 48t19 49t23 57.5t25 60zM73 43q76 -18 124.5 -5t72.5 48.5t28 76.5t-8.5 79.5t-36.5 58.5
q-41 -24 -91.5 -98.5t-88.5 -159.5zM182 28q40 3 68.5 22t41.5 46t17.5 56.5t1 55t-12.5 40.5q7 -21 9.5 -44.5t-0.5 -47t-12 -45t-23.5 -39t-37.5 -29t-52 -15.5zM224 31q29 3 51.5 24.5t32 50t13 59t-5.5 50.5q5 -35 -1 -71t-29 -69t-61 -44z" />
    <glyph glyph-name="c" unicode="c" horiz-adv-x="297" 
d="M186 237q31 34 33 77q0 20 -8 20q-30 1 -60.5 -23t-52 -61.5t-35.5 -79t-13 -79t17 -56.5q7 -7 24.5 -7.5t44.5 9t57.5 27.5t66 52.5t66.5 79.5q-1 -11 -13 -35.5t-34 -56.5t-53 -58t-70 -38.5t-85 1.5q-26 8 -41.5 34.5t-19.5 57.5q-4 29 7.5 71t33.5 83.5t59 74
t79 39.5q23 4 41.5 -13t18.5 -35q0 -24 -17.5 -56.5t-45.5 -27.5zM29 138q5 29 21 65.5t38 67.5t43 48q-33 -17 -68.5 -81.5t-33.5 -99.5zM157 345q-55 -19 -99 -97.5t-39 -144.5q0 77 47.5 150.5t90.5 91.5z" />
    <glyph glyph-name="c" unicode="&#xe7;" horiz-adv-x="297" 
d="M186 237q31 34 33 77q0 20 -8 20q-30 1 -60.5 -23t-52 -61.5t-35.5 -79t-13 -79t17 -56.5q7 -7 24.5 -7.5t44.5 9t57.5 27.5t66 52.5t66.5 79.5q-1 -11 -13 -35.5t-34 -56.5t-53 -58t-70 -38.5t-85 1.5q-26 8 -41.5 34.5t-19.5 57.5q-4 29 7.5 71t33.5 83.5t59 74
t79 39.5q23 4 41.5 -13t18.5 -35q0 -24 -17.5 -56.5t-45.5 -27.5zM29 138q5 29 21 65.5t38 67.5t43 48q-33 -17 -68.5 -81.5t-33.5 -99.5zM157 345q-55 -19 -99 -97.5t-39 -144.5q0 77 47.5 150.5t90.5 91.5z" />
    <glyph glyph-name="d" unicode="d" horiz-adv-x="381" 
d="M488 671q16 0 31 -12.5t19 -33.5q-1 -1 -18 -31.5t-35 -64t-45.5 -88t-51.5 -107.5t-49.5 -118.5t-43.5 -125t-29.5 -123t-10.5 -115.5q-24 18 -31.5 59t0 97t24 118.5t41.5 133.5q-32 -47 -66 -90.5t-72 -86.5t-71 -66t-51 -16q-48 36 -38 99t47.5 125t81.5 108.5
t64 49.5q32 4 59 -26t35 -61q41 56 60 89q84 200 150 286zM7 111q12 61 63 136t91 106q-51 -31 -102.5 -115.5t-51.5 -126.5zM139 322q-33 -25 -71.5 -87.5t-43.5 -90.5q15 38 52 94.5t63 83.5zM25 40q102 65 227 223q-1 27 -14 53t-27 26q-7 -1 -35.5 -31.5t-61.5 -73.5
t-59.5 -99t-29.5 -98zM468 566q-30 -31 -111.5 -213.5t-79.5 -224.5q17 54 34 100.5t39.5 98.5t50.5 108.5t67 130.5zM280 86q33 121 110 289.5t120 224.5q-18 -16 -56 -85t-75 -151.5t-66.5 -162.5t-32.5 -115z" />
    <glyph glyph-name="e" unicode="e" horiz-adv-x="369" 
d="M48 27q8 -15 59 4t123.5 68.5t131.5 111.5q-26 -59 -83.5 -114.5t-120 -85.5t-100.5 -20q-24 6 -39 27t-17 52q-2 23 2 49q-30 4 -56 20q31 0 62 6q18 71 69 137t113 97q13 7 29 -1t19 -19q15 -41 -9 -93.5t-73.5 -93.5t-104.5 -51q-20 -68 -5 -94zM51 174q23 52 51 88
q-9 -4 -30 -42.5t-21 -45.5zM140 186q26 12 50.5 48t22.5 54q-6 -25 -28 -55.5t-45 -46.5zM118 181q38 16 65.5 58t22.5 65q-12 -74 -88 -123zM207 339q-92 -64 -139 -177q40 17 71 43t49 60.5t19 73.5zM148 333q-38 -21 -74.5 -78.5t-44.5 -89.5q53 120 119 168zM21 93
q7 61 53.5 137.5t95.5 110.5q-52 -27 -103 -113.5t-46 -134.5z" />
    <glyph glyph-name="e" unicode="&#xeb;" horiz-adv-x="369" 
d="M48 27q8 -15 59 4t123.5 68.5t131.5 111.5q-26 -59 -83.5 -114.5t-120 -85.5t-100.5 -20q-24 6 -39 27t-17 52q-2 23 2 49q-30 4 -56 20q31 0 62 6q18 71 69 137t113 97q13 7 29 -1t19 -19q15 -41 -9 -93.5t-73.5 -93.5t-104.5 -51q-20 -68 -5 -94zM51 174q23 52 51 88
q-9 -4 -30 -42.5t-21 -45.5zM140 186q26 12 50.5 48t22.5 54q-6 -25 -28 -55.5t-45 -46.5zM118 181q38 16 65.5 58t22.5 65q-12 -74 -88 -123zM207 339q-92 -64 -139 -177q40 17 71 43t49 60.5t19 73.5zM148 333q-38 -21 -74.5 -78.5t-44.5 -89.5q53 120 119 168zM21 93
q7 61 53.5 137.5t95.5 110.5q-52 -27 -103 -113.5t-46 -134.5z" />
    <glyph glyph-name="e" unicode="&#xea;" horiz-adv-x="369" 
d="M48 27q8 -15 59 4t123.5 68.5t131.5 111.5q-26 -59 -83.5 -114.5t-120 -85.5t-100.5 -20q-24 6 -39 27t-17 52q-2 23 2 49q-30 4 -56 20q31 0 62 6q18 71 69 137t113 97q13 7 29 -1t19 -19q15 -41 -9 -93.5t-73.5 -93.5t-104.5 -51q-20 -68 -5 -94zM51 174q23 52 51 88
q-9 -4 -30 -42.5t-21 -45.5zM140 186q26 12 50.5 48t22.5 54q-6 -25 -28 -55.5t-45 -46.5zM118 181q38 16 65.5 58t22.5 65q-12 -74 -88 -123zM207 339q-92 -64 -139 -177q40 17 71 43t49 60.5t19 73.5zM148 333q-38 -21 -74.5 -78.5t-44.5 -89.5q53 120 119 168zM21 93
q7 61 53.5 137.5t95.5 110.5q-52 -27 -103 -113.5t-46 -134.5z" />
    <glyph glyph-name="e" unicode="&#xe9;" horiz-adv-x="369" 
d="M48 27q8 -15 59 4t123.5 68.5t131.5 111.5q-26 -59 -83.5 -114.5t-120 -85.5t-100.5 -20q-24 6 -39 27t-17 52q-2 23 2 49q-30 4 -56 20q31 0 62 6q18 71 69 137t113 97q13 7 29 -1t19 -19q15 -41 -9 -93.5t-73.5 -93.5t-104.5 -51q-20 -68 -5 -94zM51 174q23 52 51 88
q-9 -4 -30 -42.5t-21 -45.5zM140 186q26 12 50.5 48t22.5 54q-6 -25 -28 -55.5t-45 -46.5zM118 181q38 16 65.5 58t22.5 65q-12 -74 -88 -123zM207 339q-92 -64 -139 -177q40 17 71 43t49 60.5t19 73.5zM148 333q-38 -21 -74.5 -78.5t-44.5 -89.5q53 120 119 168zM21 93
q7 61 53.5 137.5t95.5 110.5q-52 -27 -103 -113.5t-46 -134.5z" />
    <glyph glyph-name="e" unicode="&#xe8;" horiz-adv-x="369" 
d="M48 27q8 -15 59 4t123.5 68.5t131.5 111.5q-26 -59 -83.5 -114.5t-120 -85.5t-100.5 -20q-24 6 -39 27t-17 52q-2 23 2 49q-30 4 -56 20q31 0 62 6q18 71 69 137t113 97q13 7 29 -1t19 -19q15 -41 -9 -93.5t-73.5 -93.5t-104.5 -51q-20 -68 -5 -94zM51 174q23 52 51 88
q-9 -4 -30 -42.5t-21 -45.5zM140 186q26 12 50.5 48t22.5 54q-6 -25 -28 -55.5t-45 -46.5zM118 181q38 16 65.5 58t22.5 65q-12 -74 -88 -123zM207 339q-92 -64 -139 -177q40 17 71 43t49 60.5t19 73.5zM148 333q-38 -21 -74.5 -78.5t-44.5 -89.5q53 120 119 168zM21 93
q7 61 53.5 137.5t95.5 110.5q-52 -27 -103 -113.5t-46 -134.5z" />
    <glyph glyph-name="f" unicode="f" horiz-adv-x="322" 
d="M90 301q39 100 81 180q15 2 36 -17.5t19 -40.5q-27 -50 -54 -110q112 8 159 -17q21 -12 16 -28q-30 16 -144 11q22 -8 25.5 -51t-9.5 -103t-35.5 -123.5t-55.5 -120.5t-67 -85q-25 -6 -46.5 36.5t-19.5 86.5q6 138 82 346q-57 -12 -73 -30q-3 22 20.5 39t65.5 27zM37 271
q84 33 228 32q-22 8 -110 -1t-118 -31zM178 278q-13 -1 -23 -2q-52 -122 -81.5 -237t-17.5 -192q33 33 61.5 86t45.5 107.5t25.5 105.5t5.5 87t-16 45zM143 380q-11 -14 -34 -75l5 1q13 35 29 74zM177 414q-18 -18 -52 -106l5 1q28 74 47 105zM24 -65q22 140 92 336h-5
q-34 -97 -61 -196.5t-26 -139.5zM101 269l-6 -1q-32 -91 -57 -181.5t-21 -114.5q28 143 84 297z" />
    <glyph glyph-name="g" unicode="g" horiz-adv-x="441" 
d="M279 251q23 30 32 73t-10 54q-31 10 -76 -23t-82 -84.5t-59.5 -112t-12.5 -100.5q39 48 106 96.5t114 55.5q30 4 59 -14.5t44 -71.5q11 -34 8 -68t-13 -70.5t-30 -69.5t-44.5 -63.5t-56.5 -53.5t-65 -39.5t-70 -21t-72.5 2t-72.5 29t-70 60.5q168 -87 304 16
q87 65 127 177q33 94 7 139q-5 9 -13 14q-21 17 -72 -6t-108.5 -74.5t-94.5 -111.5q-19 11 -37.5 48.5t-15.5 73.5q4 53 35.5 113.5t73 106.5t86.5 75.5t75 26.5q25 -2 49 -31.5t25 -54.5q1 -31 -20.5 -63t-49.5 -28zM374 45q-7 -58 -47 -120t-99 -105.5t-114 -45.5
q41 -4 90 24t87 70t62.5 91t20.5 86zM353 29q-20 -73 -68 -132.5t-110 -92.5q51 22 92.5 65t62.5 85.5t23 74.5zM41 155q18 50 67 115t90 102q-47 -31 -97.5 -103.5t-59.5 -113.5zM218 399q-74 -38 -135 -129.5t-66 -155.5q19 83 80 164.5t121 120.5z" />
    <glyph glyph-name="h" unicode="h" horiz-adv-x="387" 
d="M0 109q-4 53 47.5 205.5t105.5 280.5t91 205q17 2 41 -12.5t27 -40.5q-234 -458 -268 -651q25 51 60 95.5t66.5 71.5t55 43t35.5 19q20 6 38 -10.5t17 -38.5q-1 -3 -1 -9q-3 -35 -4 -55t1 -57t8.5 -62t22 -52t38.5 -44q-40 -8 -67.5 9t-40 47.5t-17 73.5t-2 82.5
t9.5 80.5q-21 -10 -42.5 -26t-51.5 -48t-60.5 -87.5t-54.5 -127.5q-16 2 -34 38.5t-21 69.5zM225 704q-25 -27 -98 -205t-72 -210q1 4 9 27t11 30.5t11.5 31.5t13.5 36.5t14.5 37.5t17 43t19 45t22.5 51t24.5 53.5t27.5 59.5zM253 736q-30 -31 -114.5 -244t-83.5 -240
q28 87 100.5 268.5t97.5 215.5zM287 73q-13 34 -16 96.5t3 87.5q-13 -37 -8 -99t21 -85zM288 279q-18 -60 -9 -137t31 -104q-17 38 -24 86t-5.5 86t7.5 69z" />
    <glyph glyph-name="i" unicode="i" horiz-adv-x="209" 
d="M19 84q-9 66 21 159t67 134q10 6 24.5 -7.5t11.5 -30.5q-19 -25 -39 -74.5t-31.5 -98.5t-13.5 -89.5t14 -47.5q23 -11 85 43.5t84 100.5q1 -38 -24.5 -80.5t-58 -69t-53.5 -27.5q-32 0 -57 22.5t-30 65.5zM30 106q-1 42 17 107t36 96q-27 -33 -44.5 -103t-8.5 -100z
M43 59q-6 69 14 144t49 124q-40 -51 -58.5 -140.5t-4.5 -127.5zM161 521q10 3 26.5 -3.5t21.5 -18.5q-3 -7 -15 -24.5t-23.5 -39t-20.5 -45.5q-18 25 -14 66t25 65z" />
    <glyph glyph-name="i" unicode="&#xef;" horiz-adv-x="209" 
d="M19 84q-9 66 21 159t67 134q10 6 24.5 -7.5t11.5 -30.5q-19 -25 -39 -74.5t-31.5 -98.5t-13.5 -89.5t14 -47.5q23 -11 85 43.5t84 100.5q1 -38 -24.5 -80.5t-58 -69t-53.5 -27.5q-32 0 -57 22.5t-30 65.5zM30 106q-1 42 17 107t36 96q-27 -33 -44.5 -103t-8.5 -100z
M43 59q-6 69 14 144t49 124q-40 -51 -58.5 -140.5t-4.5 -127.5zM161 521q10 3 26.5 -3.5t21.5 -18.5q-3 -7 -15 -24.5t-23.5 -39t-20.5 -45.5q-18 25 -14 66t25 65z" />
    <glyph glyph-name="i" unicode="&#xee;" horiz-adv-x="209" 
d="M19 84q-9 66 21 159t67 134q10 6 24.5 -7.5t11.5 -30.5q-19 -25 -39 -74.5t-31.5 -98.5t-13.5 -89.5t14 -47.5q23 -11 85 43.5t84 100.5q1 -38 -24.5 -80.5t-58 -69t-53.5 -27.5q-32 0 -57 22.5t-30 65.5zM30 106q-1 42 17 107t36 96q-27 -33 -44.5 -103t-8.5 -100z
M43 59q-6 69 14 144t49 124q-40 -51 -58.5 -140.5t-4.5 -127.5zM161 521q10 3 26.5 -3.5t21.5 -18.5q-3 -7 -15 -24.5t-23.5 -39t-20.5 -45.5q-18 25 -14 66t25 65z" />
    <glyph glyph-name="i" unicode="&#xed;" horiz-adv-x="209" 
d="M19 84q-9 66 21 159t67 134q10 6 24.5 -7.5t11.5 -30.5q-19 -25 -39 -74.5t-31.5 -98.5t-13.5 -89.5t14 -47.5q23 -11 85 43.5t84 100.5q1 -38 -24.5 -80.5t-58 -69t-53.5 -27.5q-32 0 -57 22.5t-30 65.5zM30 106q-1 42 17 107t36 96q-27 -33 -44.5 -103t-8.5 -100z
M43 59q-6 69 14 144t49 124q-40 -51 -58.5 -140.5t-4.5 -127.5zM161 521q10 3 26.5 -3.5t21.5 -18.5q-3 -7 -15 -24.5t-23.5 -39t-20.5 -45.5q-18 25 -14 66t25 65z" />
    <glyph glyph-name="i" unicode="&#xec;" horiz-adv-x="209" 
d="M19 84q-9 66 21 159t67 134q10 6 24.5 -7.5t11.5 -30.5q-19 -25 -39 -74.5t-31.5 -98.5t-13.5 -89.5t14 -47.5q23 -11 85 43.5t84 100.5q1 -38 -24.5 -80.5t-58 -69t-53.5 -27.5q-32 0 -57 22.5t-30 65.5zM30 106q-1 42 17 107t36 96q-27 -33 -44.5 -103t-8.5 -100z
M43 59q-6 69 14 144t49 124q-40 -51 -58.5 -140.5t-4.5 -127.5zM161 521q10 3 26.5 -3.5t21.5 -18.5q-3 -7 -15 -24.5t-23.5 -39t-20.5 -45.5q-18 25 -14 66t25 65z" />
    <glyph glyph-name="j" unicode="j" horiz-adv-x="192" 
d="M199 582q-4 -8 -19 -30.5t-29.5 -49.5t-26.5 -57q-21 31 -15.5 82t31.5 83q12 3 32 -5t27 -23zM89 397q15 20 53 -4q37 -168 -52 -366q-71 -156 -180 -245q-112 -91 -196 -52q-35 16 -61 56q51 -13 99.5 -5.5t87.5 32t75 61.5t62 82.5t49 95t36 99.5t23 96.5t9 85
t-5 64.5zM98 235q-13 -111 -81.5 -240.5t-154.5 -185.5q49 24 94 79t74.5 118t48 124.5t19.5 104.5zM-164 -218q58 12 116.5 77t97 146t57 162t4.5 124q6 -52 -13 -130t-55 -154t-91.5 -139.5t-115.5 -85.5z" />
    <glyph glyph-name="k" unicode="k" horiz-adv-x="440" 
d="M-12 91q13 97 105 320.5t161 329.5q12 4 29.5 -9.5t21.5 -34.5q-49 -75 -117 -228.5t-110 -281.5q25 -8 50 -11q38 48 84 91.5t77.5 66.5t42.5 24q11 0 20.5 -6t13.5 -12l4 -6q11 -40 -8 -78.5t-55 -64.5t-82 -40.5t-86 -11.5q-12 -15 -23 -30q49 -77 85 -77
q22 -1 48 4.5t62.5 19.5t77.5 46.5t77 79.5q-9 -49 -56.5 -96t-109.5 -71.5t-111 -11.5q-52 13 -91 79q-42 -63 -62 -124q-16 3 -34.5 52.5t-13.5 80.5zM328 274q-11 -28 -41.5 -58t-61.5 -42q34 7 68.5 42t34.5 58zM320 293q-23 -84 -123 -120q33 6 63 28.5t46 48.5t14 43z
M219 649q-27 -28 -103 -212t-76 -218l11 30.5t13.5 37t13.5 36.5t16.5 44t17.5 44.5t22 53l24 54t29 64t32 66.5zM248 682q-32 -31 -120.5 -252t-87.5 -249q29 90 105 278t103 223zM313 302q-73 -49 -141 -125q57 8 96 45.5t45 79.5zM99 139q2 3 5 7q-7 2 -12 4q1 -1 3.5 -5
t3.5 -6zM81 113q-8 17 -14 36q-20 -67 -24 -106q15 34 38 70z" />
    <glyph glyph-name="l" unicode="l" horiz-adv-x="176" 
d="M62 -169q-42 26 -49.5 101.5t13.5 173t58 208.5t81.5 210t88 176t74.5 108q22 6 43.5 -13.5t20.5 -54.5q-80 -91 -149.5 -223t-110.5 -260.5t-60.5 -243.5t-9.5 -182zM210 572q-29 -25 -86 -177.5t-59 -197.5q69 233 145 375zM51 70q41 175 103.5 337.5t118.5 255.5
q-54 -70 -130 -266.5t-92 -326.5z" />
    <glyph glyph-name="m" unicode="m" horiz-adv-x="536" 
d="M-2 71q-5 50 33 138t103 183q14 5 33 -7t16 -31q-23 -25 -70.5 -114t-53.5 -146q31 50 97 136t85 99q18 4 36 -6t23 -22q1 -4 -5.5 -37.5t-10 -70t6.5 -77.5q17 37 70.5 106t67.5 78q19 3 36.5 -9.5t18.5 -29.5q0 -10 -5 -53t-6 -76t12.5 -73t44.5 -62q-44 -10 -73 13.5
t-39.5 65t-9 88.5t14.5 86q-19 -19 -58 -75.5t-77 -131.5q-14 2 -32 19t-24 36q-5 11 -7.5 25t-3 29t-0.5 27t1.5 28.5t2.5 25t3.5 24.5t2.5 19q-31 -30 -87 -112t-100 -170q-19 3 -31.5 26t-14.5 51zM442 51q-14 31 -17.5 88.5t3.5 79.5q-15 -33 -9.5 -90.5t23.5 -77.5z
M469 18q-19 35 -27 79.5t-6.5 79.5t8.5 62q-15 -37 -14 -81.5t12 -84t27 -55.5zM261 105q-6 37 -5.5 85t5.5 76q-11 -28 -11 -85.5t11 -75.5zM255 79q-24 82 -7 200q-13 -22 -11.5 -98.5t18.5 -101.5zM13 105q7 40 34.5 101.5t48.5 92.5q-19 -19 -40 -59t-34 -79t-9 -56z
M119 306q-30 -25 -69 -116t-29 -127q13 107 98 243z" />
    <glyph glyph-name="n" unicode="n" horiz-adv-x="344" 
d="M1 97q3 62 46 156t79 139q12 8 35 -6.5t23 -32.5q-19 -22 -63.5 -100.5t-53.5 -125.5q32 47 87 105.5t81 68.5q12 2 25 -6.5t19 -20.5q4 -10 1 -32.5t-2.5 -60.5t2.5 -75.5t16 -76t39 -62.5q-31 -2 -54.5 9.5t-37 30.5t-21 47t-9 54.5t0 58t4.5 52.5l6 42
q-31 -21 -98 -108.5t-92 -148.5q-14 0 -24.5 28.5t-8.5 64.5zM251 18q-16 30 -20.5 100t0.5 91q-5 -13 -7 -40.5t0 -57.5t9.5 -56.5t17.5 -36.5zM280 -10q-18 33 -28 85.5t-9.5 94t4.5 70.5q-9 -31 -10 -78t11 -99t32 -73zM27 148q5 20 15 47.5t21.5 54t23 49t19.5 36.5
q-23 -28 -51.5 -94.5t-27.5 -92.5zM123 340q-24 -23 -61 -110.5t-34 -123.5q21 105 95 234z" />
    <glyph glyph-name="n" unicode="&#xf1;" horiz-adv-x="344" 
d="M1 97q3 62 46 156t79 139q12 8 35 -6.5t23 -32.5q-19 -22 -63.5 -100.5t-53.5 -125.5q32 47 87 105.5t81 68.5q12 2 25 -6.5t19 -20.5q4 -10 1 -32.5t-2.5 -60.5t2.5 -75.5t16 -76t39 -62.5q-31 -2 -54.5 9.5t-37 30.5t-21 47t-9 54.5t0 58t4.5 52.5l6 42
q-31 -21 -98 -108.5t-92 -148.5q-14 0 -24.5 28.5t-8.5 64.5zM251 18q-16 30 -20.5 100t0.5 91q-5 -13 -7 -40.5t0 -57.5t9.5 -56.5t17.5 -36.5zM280 -10q-18 33 -28 85.5t-9.5 94t4.5 70.5q-9 -31 -10 -78t11 -99t32 -73zM27 148q5 20 15 47.5t21.5 54t23 49t19.5 36.5
q-23 -28 -51.5 -94.5t-27.5 -92.5zM123 340q-24 -23 -61 -110.5t-34 -123.5q21 105 95 234z" />
    <glyph glyph-name="o" unicode="o" horiz-adv-x="243" 
d="M229 231q2 -24 -21.5 -82.5t-61 -109.5t-66.5 -49q-24 1 -42 23t-26 51q-7 22 -6 47.5t6.5 52t15.5 53.5t22.5 52t26.5 47.5t28 40.5t27 30t23 16q16 5 29.5 0t24 -18.5t12.5 -30.5q3 -20 -4 -47t-25 -30q10 22 9 55.5t-12 35.5q-12 2 -40 -38t-54 -96t-39.5 -116
t2.5 -99q7 -16 43.5 24t70.5 107t33 116q3 0 6.5 -1.5t10 -10.5t7.5 -23zM111 346q-37 -37 -69 -119t-25 -118q2 25 13 60.5t25 69t29.5 62.5t26.5 45zM37 130q3 38 28.5 98t45.5 88q-29 -29 -54 -93.5t-20 -92.5zM132 34q31 28 59 91t25 91q-6 -38 -34 -96.5t-50 -85.5z
" />
    <glyph glyph-name="o" unicode="&#xf8;" horiz-adv-x="243" 
d="M229 231q2 -24 -21.5 -82.5t-61 -109.5t-66.5 -49q-24 1 -42 23t-26 51q-7 22 -6 47.5t6.5 52t15.5 53.5t22.5 52t26.5 47.5t28 40.5t27 30t23 16q16 5 29.5 0t24 -18.5t12.5 -30.5q3 -20 -4 -47t-25 -30q10 22 9 55.5t-12 35.5q-12 2 -40 -38t-54 -96t-39.5 -116
t2.5 -99q7 -16 43.5 24t70.5 107t33 116q3 0 6.5 -1.5t10 -10.5t7.5 -23zM111 346q-37 -37 -69 -119t-25 -118q2 25 13 60.5t25 69t29.5 62.5t26.5 45zM37 130q3 38 28.5 98t45.5 88q-29 -29 -54 -93.5t-20 -92.5zM132 34q31 28 59 91t25 91q-6 -38 -34 -96.5t-50 -85.5z
" />
    <glyph glyph-name="o" unicode="&#xf6;" horiz-adv-x="243" 
d="M229 231q2 -24 -21.5 -82.5t-61 -109.5t-66.5 -49q-24 1 -42 23t-26 51q-7 22 -6 47.5t6.5 52t15.5 53.5t22.5 52t26.5 47.5t28 40.5t27 30t23 16q16 5 29.5 0t24 -18.5t12.5 -30.5q3 -20 -4 -47t-25 -30q10 22 9 55.5t-12 35.5q-12 2 -40 -38t-54 -96t-39.5 -116
t2.5 -99q7 -16 43.5 24t70.5 107t33 116q3 0 6.5 -1.5t10 -10.5t7.5 -23zM111 346q-37 -37 -69 -119t-25 -118q2 25 13 60.5t25 69t29.5 62.5t26.5 45zM37 130q3 38 28.5 98t45.5 88q-29 -29 -54 -93.5t-20 -92.5zM132 34q31 28 59 91t25 91q-6 -38 -34 -96.5t-50 -85.5z
" />
    <glyph glyph-name="o" unicode="&#xf5;" horiz-adv-x="243" 
d="M229 231q2 -24 -21.5 -82.5t-61 -109.5t-66.5 -49q-24 1 -42 23t-26 51q-7 22 -6 47.5t6.5 52t15.5 53.5t22.5 52t26.5 47.5t28 40.5t27 30t23 16q16 5 29.5 0t24 -18.5t12.5 -30.5q3 -20 -4 -47t-25 -30q10 22 9 55.5t-12 35.5q-12 2 -40 -38t-54 -96t-39.5 -116
t2.5 -99q7 -16 43.5 24t70.5 107t33 116q3 0 6.5 -1.5t10 -10.5t7.5 -23zM111 346q-37 -37 -69 -119t-25 -118q2 25 13 60.5t25 69t29.5 62.5t26.5 45zM37 130q3 38 28.5 98t45.5 88q-29 -29 -54 -93.5t-20 -92.5zM132 34q31 28 59 91t25 91q-6 -38 -34 -96.5t-50 -85.5z
" />
    <glyph glyph-name="o" unicode="&#xf4;" horiz-adv-x="243" 
d="M229 231q2 -24 -21.5 -82.5t-61 -109.5t-66.5 -49q-24 1 -42 23t-26 51q-7 22 -6 47.5t6.5 52t15.5 53.5t22.5 52t26.5 47.5t28 40.5t27 30t23 16q16 5 29.5 0t24 -18.5t12.5 -30.5q3 -20 -4 -47t-25 -30q10 22 9 55.5t-12 35.5q-12 2 -40 -38t-54 -96t-39.5 -116
t2.5 -99q7 -16 43.5 24t70.5 107t33 116q3 0 6.5 -1.5t10 -10.5t7.5 -23zM111 346q-37 -37 -69 -119t-25 -118q2 25 13 60.5t25 69t29.5 62.5t26.5 45zM37 130q3 38 28.5 98t45.5 88q-29 -29 -54 -93.5t-20 -92.5zM132 34q31 28 59 91t25 91q-6 -38 -34 -96.5t-50 -85.5z
" />
    <glyph glyph-name="o" unicode="&#xf3;" horiz-adv-x="243" 
d="M229 231q2 -24 -21.5 -82.5t-61 -109.5t-66.5 -49q-24 1 -42 23t-26 51q-7 22 -6 47.5t6.5 52t15.5 53.5t22.5 52t26.5 47.5t28 40.5t27 30t23 16q16 5 29.5 0t24 -18.5t12.5 -30.5q3 -20 -4 -47t-25 -30q10 22 9 55.5t-12 35.5q-12 2 -40 -38t-54 -96t-39.5 -116
t2.5 -99q7 -16 43.5 24t70.5 107t33 116q3 0 6.5 -1.5t10 -10.5t7.5 -23zM111 346q-37 -37 -69 -119t-25 -118q2 25 13 60.5t25 69t29.5 62.5t26.5 45zM37 130q3 38 28.5 98t45.5 88q-29 -29 -54 -93.5t-20 -92.5zM132 34q31 28 59 91t25 91q-6 -38 -34 -96.5t-50 -85.5z
" />
    <glyph glyph-name="o" unicode="&#xf2;" horiz-adv-x="243" 
d="M229 231q2 -24 -21.5 -82.5t-61 -109.5t-66.5 -49q-24 1 -42 23t-26 51q-7 22 -6 47.5t6.5 52t15.5 53.5t22.5 52t26.5 47.5t28 40.5t27 30t23 16q16 5 29.5 0t24 -18.5t12.5 -30.5q3 -20 -4 -47t-25 -30q10 22 9 55.5t-12 35.5q-12 2 -40 -38t-54 -96t-39.5 -116
t2.5 -99q7 -16 43.5 24t70.5 107t33 116q3 0 6.5 -1.5t10 -10.5t7.5 -23zM111 346q-37 -37 -69 -119t-25 -118q2 25 13 60.5t25 69t29.5 62.5t26.5 45zM37 130q3 38 28.5 98t45.5 88q-29 -29 -54 -93.5t-20 -92.5zM132 34q31 28 59 91t25 91q-6 -38 -34 -96.5t-50 -85.5z
" />
    <glyph glyph-name="p" unicode="p" horiz-adv-x="402" 
d="M50 96q51 139 142 353q9 2 25.5 -12.5t21.5 -32.5q-14 -30 -56.5 -134t-74.5 -189q6 -1 11 -2q49 96 106.5 186t71.5 99q13 6 26 0.5t18 -14.5q28 -42 36 -92t-5.5 -93.5t-44.5 -77.5t-79.5 -44.5t-110.5 4.5q-93 -184 -142 -379q-9 1 -20.5 38.5t-11.5 61.5q0 87 84 318
q-20 12 -40 26q22 -9 43 -16zM338 244q2 -66 -30 -113t-78 -60q43 2 80.5 51.5t27.5 121.5zM343 268q13 -53 -1 -100t-48 -75.5t-80 -33.5q46 -2 84 29.5t50.5 78.5t-5.5 101zM311 319q-80 -91 -160 -244q51 -2 88 14.5t55.5 44t26 61.5t4.5 66t-14 58zM77 -8q13 31 31 65
q-5 2 -7 3q-15 -40 -24 -68zM75 89q0 -1 1.5 -1t2.5 -1q88 254 117 295q-16 -17 -51.5 -105t-69.5 -188zM63 92l5 -2q43 125 104 264q-13 -15 -47.5 -97.5t-61.5 -164.5zM63 77l-4 3q-26 -77 -25 -94q22 70 29 91zM70 74q-36 -107 -35 -121q11 39 39 119q-1 0 -3 1z" />
    <glyph glyph-name="q" unicode="q" horiz-adv-x="298" 
d="M245 273q13 22 14 46t-7 31q-8 9 -30 -4.5t-49 -43.5t-53 -66.5t-45 -79t-20 -75.5q10 11 58 62t82 85t40 33q12 -2 28.5 -21t18.5 -39q0 -10 -45 -117.5t-91 -235t-47 -183.5q-11 12 -15.5 33.5t-4 46t6.5 57.5t13.5 63t20 68.5t22.5 67t24.5 66.5t22.5 59t20.5 51
t15.5 37q-12 -3 -73.5 -66t-109.5 -126q-12 2 -25.5 27.5t-12.5 44.5q1 49 35 115t84.5 120t95.5 69q13 4 27 -5t23 -23t11 -28q3 -14 0 -28t-12 -26t-23 -15zM109 -208q2 5 11 34.5t15 48t17 52.5t21 63t22 64t25.5 70t26.5 68q-20 -28 -79 -196.5t-59 -203.5zM111 -142
q3 10 20 61t35.5 102t47.5 123q-20 -27 -61 -141t-42 -145zM42 153q17 42 53 96.5t65 78.5q-24 -16 -51 -49.5t-45 -68.5t-22 -57zM172 352q-50 -26 -99 -101t-51 -126q15 62 60.5 127.5t89.5 99.5z" />
    <glyph glyph-name="r" unicode="r" horiz-adv-x="301" 
d="M0 83q4 29 45.5 141t68.5 161q23 3 36.5 -11t15.5 -36q-2 -6 -17 -30.5t-33.5 -62.5t-31.5 -79q59 91 116.5 136.5t93.5 18.5q19 -14 15.5 -47t-27.5 -39q4 20 -4 34t-24 17q-8 2 -22 -4.5t-37 -26t-49 -50t-60 -84.5t-68 -121q-11 3 -16 29t-2 54zM32 144q12 37 38 99
t43 94q-16 -16 -50.5 -98.5t-30.5 -94.5zM133 345q-18 -14 -58 -109t-42 -131q32 112 100 240z" />
    <glyph glyph-name="s" unicode="s" horiz-adv-x="293" 
d="M109 106q1 38 1 78.5t0.5 76t17 74.5t48.5 74q16 4 39.5 -17.5t21.5 -44.5q-21 -12 -36 -31.5t-23 -37.5t-13 -48.5t-6.5 -48.5t-2.5 -53q-1 -7 -1 -10q62 17 112 43.5t65 49.5q-15 -38 -64.5 -73.5t-114.5 -53.5q-6 -78 -32 -107q-13 -15 -58 3.5t-83.5 57.5t-34.5 72
q60 -25 164 -4zM57 91q11 -3 30 -1t38.5 7t36.5 11.5t23 11.5q-23 -11 -60 -20t-68 -9zM90 14q11 29 16 60q-74 -11 -138 9q21 -21 49.5 -39.5t49.5 -26.5t23 -3zM-55 110l1 -2q-1 1 -1 2zM150 333q-13 -13 -20 -43.5t-8 -57t-0.5 -68.5t-0.5 -55l3 1q3 21 3 72t4.5 91
t18.5 60zM177 346q-19 -13 -28.5 -40.5t-10.5 -59t-1.5 -67.5t-1.5 -67l7 2q1 15 1.5 79.5t7.5 100t26 52.5zM137 80l-5 -1q-4 -21 -11 -34q11 10 16 35z" />
    <glyph glyph-name="s" unicode="&#xdf;" horiz-adv-x="293" 
d="M109 106q1 38 1 78.5t0.5 76t17 74.5t48.5 74q16 4 39.5 -17.5t21.5 -44.5q-21 -12 -36 -31.5t-23 -37.5t-13 -48.5t-6.5 -48.5t-2.5 -53q-1 -7 -1 -10q62 17 112 43.5t65 49.5q-15 -38 -64.5 -73.5t-114.5 -53.5q-6 -78 -32 -107q-13 -15 -58 3.5t-83.5 57.5t-34.5 72
q60 -25 164 -4zM57 91q11 -3 30 -1t38.5 7t36.5 11.5t23 11.5q-23 -11 -60 -20t-68 -9zM90 14q11 29 16 60q-74 -11 -138 9q21 -21 49.5 -39.5t49.5 -26.5t23 -3zM-55 110l1 -2q-1 1 -1 2zM150 333q-13 -13 -20 -43.5t-8 -57t-0.5 -68.5t-0.5 -55l3 1q3 21 3 72t4.5 91
t18.5 60zM177 346q-19 -13 -28.5 -40.5t-10.5 -59t-1.5 -67.5t-1.5 -67l7 2q1 15 1.5 79.5t7.5 100t26 52.5zM137 80l-5 -1q-4 -21 -11 -34q11 10 16 35z" />
    <glyph glyph-name="t" unicode="t" horiz-adv-x="184" 
d="M175 577q47 99 80 133q17 5 34.5 -10.5t18.5 -43.5q-27 -33 -52 -73q160 8 181 -13q21 -23 6 -45t-44 -19q2 2 5.5 3.5t5.5 3t5.5 3.5t5 3.5t4 3t3.5 3.5t1.5 3.5t0.5 3.5t-2 4q-6 11 -64 12.5t-131 -5.5q-78 -143 -119.5 -327t-34.5 -292q-37 22 -45 90.5t9.5 158
t46.5 182.5t66 178q-106 -16 -151 -39q-8 5 -10.5 20t11.5 27q33 21 169 35zM59 547q38 8 104.5 15.5t101.5 9.5q-13 3 -61.5 -0.5t-93.5 -11t-51 -13.5zM26 530q112 28 257 32q-9 4 -45 2t-77 -6t-80 -12t-55 -16zM182 538h-1q-17 -18 -45 -90t-49 -145t-22 -97
q55 205 117 332zM196 540l-4 -1q-30 -62 -58 -140t-50 -162t-27 -144q50 247 139 447zM215 580q12 23 22 41q-11 -15 -25 -41h3z" />
    <glyph glyph-name="u" unicode="u" horiz-adv-x="318" 
d="M9 71q-6 54 30.5 139t81.5 139q12 8 29 -2.5t16 -26.5q-45 -50 -72 -134t-16 -115q10 -2 46 40t77.5 107.5t65.5 121.5q18 5 31.5 -7.5t12.5 -25.5q-7 -8 -19 -41.5t-24 -79.5t-12 -101t18 -94q-34 2 -52.5 24.5t-20 57t2 62.5t10.5 56q-130 -190 -147 -188
q-14 1 -34.5 21.5t-23.5 46.5zM231 34q-6 55 6 131t31 114q-24 -33 -36 -116t-1 -129zM219 56q-6 87 23 185q-14 -15 -23 -83t0 -102zM29 127q10 38 35.5 97t43.5 89q-23 -28 -51.5 -94.5t-27.5 -91.5zM125 318q-15 -14 -38.5 -60.5t-41 -98t-15.5 -75.5q21 105 95 234z" />
    <glyph glyph-name="u" unicode="&#xfc;" horiz-adv-x="318" 
d="M9 71q-6 54 30.5 139t81.5 139q12 8 29 -2.5t16 -26.5q-45 -50 -72 -134t-16 -115q10 -2 46 40t77.5 107.5t65.5 121.5q18 5 31.5 -7.5t12.5 -25.5q-7 -8 -19 -41.5t-24 -79.5t-12 -101t18 -94q-34 2 -52.5 24.5t-20 57t2 62.5t10.5 56q-130 -190 -147 -188
q-14 1 -34.5 21.5t-23.5 46.5zM231 34q-6 55 6 131t31 114q-24 -33 -36 -116t-1 -129zM219 56q-6 87 23 185q-14 -15 -23 -83t0 -102zM29 127q10 38 35.5 97t43.5 89q-23 -28 -51.5 -94.5t-27.5 -91.5zM125 318q-15 -14 -38.5 -60.5t-41 -98t-15.5 -75.5q21 105 95 234z" />
    <glyph glyph-name="u" unicode="&#xfb;" horiz-adv-x="318" 
d="M9 71q-6 54 30.5 139t81.5 139q12 8 29 -2.5t16 -26.5q-45 -50 -72 -134t-16 -115q10 -2 46 40t77.5 107.5t65.5 121.5q18 5 31.5 -7.5t12.5 -25.5q-7 -8 -19 -41.5t-24 -79.5t-12 -101t18 -94q-34 2 -52.5 24.5t-20 57t2 62.5t10.5 56q-130 -190 -147 -188
q-14 1 -34.5 21.5t-23.5 46.5zM231 34q-6 55 6 131t31 114q-24 -33 -36 -116t-1 -129zM219 56q-6 87 23 185q-14 -15 -23 -83t0 -102zM29 127q10 38 35.5 97t43.5 89q-23 -28 -51.5 -94.5t-27.5 -91.5zM125 318q-15 -14 -38.5 -60.5t-41 -98t-15.5 -75.5q21 105 95 234z" />
    <glyph glyph-name="u" unicode="&#xfa;" horiz-adv-x="318" 
d="M9 71q-6 54 30.5 139t81.5 139q12 8 29 -2.5t16 -26.5q-45 -50 -72 -134t-16 -115q10 -2 46 40t77.5 107.5t65.5 121.5q18 5 31.5 -7.5t12.5 -25.5q-7 -8 -19 -41.5t-24 -79.5t-12 -101t18 -94q-34 2 -52.5 24.5t-20 57t2 62.5t10.5 56q-130 -190 -147 -188
q-14 1 -34.5 21.5t-23.5 46.5zM231 34q-6 55 6 131t31 114q-24 -33 -36 -116t-1 -129zM219 56q-6 87 23 185q-14 -15 -23 -83t0 -102zM29 127q10 38 35.5 97t43.5 89q-23 -28 -51.5 -94.5t-27.5 -91.5zM125 318q-15 -14 -38.5 -60.5t-41 -98t-15.5 -75.5q21 105 95 234z" />
    <glyph glyph-name="u" unicode="&#xf9;" horiz-adv-x="318" 
d="M9 71q-6 54 30.5 139t81.5 139q12 8 29 -2.5t16 -26.5q-45 -50 -72 -134t-16 -115q10 -2 46 40t77.5 107.5t65.5 121.5q18 5 31.5 -7.5t12.5 -25.5q-7 -8 -19 -41.5t-24 -79.5t-12 -101t18 -94q-34 2 -52.5 24.5t-20 57t2 62.5t10.5 56q-130 -190 -147 -188
q-14 1 -34.5 21.5t-23.5 46.5zM231 34q-6 55 6 131t31 114q-24 -33 -36 -116t-1 -129zM219 56q-6 87 23 185q-14 -15 -23 -83t0 -102zM29 127q10 38 35.5 97t43.5 89q-23 -28 -51.5 -94.5t-27.5 -91.5zM125 318q-15 -14 -38.5 -60.5t-41 -98t-15.5 -75.5q21 105 95 234z" />
    <glyph glyph-name="v" unicode="v" horiz-adv-x="243" 
d="M73 28q-16 0 -36 16.5t-24 29.5q-37 97 38 243q15 4 27 -9t14 -30q-12 -13 -25.5 -51.5t-18.5 -84.5t11 -81q3 -3 23.5 16.5t45.5 53t48.5 77t33.5 87t-1 84.5q28 -23 32.5 -59.5t-10 -74.5t-38 -77.5t-49 -70t-45.5 -50t-26 -19.5zM62 289q-24 -38 -36 -99t-2 -93
q-4 32 6.5 89.5t31.5 102.5zM13 124q2 81 30 146q-18 -20 -28 -72t-2 -74z" />
    <glyph glyph-name="w" unicode="w" horiz-adv-x="414" 
d="M21 98q-11 51 11.5 133t77.5 133q15 0 31.5 -15.5t11.5 -26.5q-6 -5 -20 -28t-31 -57t-25.5 -76.5t-0.5 -75.5q16 5 43 42t48.5 75t45 81.5t24.5 46.5q9 3 17 -0.5t14.5 -10t10.5 -16t5 -18.5q-14 -15 -29.5 -60t-21 -98t12.5 -95q3 -2 13.5 9.5t24.5 32.5t30 51t30 64
t23.5 71t10.5 73t-8 69q28 -46 30 -105t-16.5 -110t-43 -95.5t-47 -70.5t-31.5 -27q-18 0 -41 19.5t-29 34.5q-21 57 -8 116q-27 -59 -51 -92t-59 -44q-6 -1 -16.5 7.5t-21.5 26t-15 36.5zM35 134q-1 36 17.5 93t36.5 83q-27 -27 -45 -88.5t-9 -87.5zM43 94
q-3 61 19.5 125.5t51.5 106.5q-41 -43 -62 -120.5t-9 -111.5zM213 37q-9 51 -3 118t20 101q-19 -29 -24.5 -104t7.5 -115zM209 223q-11 -14 -15 -75t7 -91q-12 78 8 166z" />
    <glyph glyph-name="x" unicode="x" horiz-adv-x="331" 
d="M111 358q-21 8 -46.5 -2.5t-36.5 -33.5q-6 6 1.5 29t27.5 41.5t42 11.5q28 -10 45 -41.5t28 -84.5q36 39 72 74.5t59.5 57t32.5 27.5q18 5 31.5 -15t2.5 -38q-76 -45 -186 -163q0 -2 4.5 -28t6 -31.5t6 -28t6.5 -30.5t7 -26.5t9 -28.5t10 -23.5t12 -23.5q-17 -1 -31 14.5
t-24.5 46.5t-17 59.5t-14.5 71.5q-90 -99 -196 -239q-12 77 185 296q-19 101 -36 108zM255 345q-26 -14 -125 -129t-107 -139q2 2 14 17.5t16 20.5t16.5 20.5t19 23.5t20 24.5t24 28t25.5 29t29 33t31.5 34t36.5 37.5zM288 363q-30 -16 -147 -154.5t-123 -158.5
q37 50 138.5 168.5t131.5 144.5zM141 316q4 -14 12 -59l4 4q-9 38 -16 55zM169 205l-5 -5q22 -108 29 -120q-2 11 -6 30.5t-9.5 48t-8.5 46.5z" />
    <glyph glyph-name="y" unicode="y" horiz-adv-x="347" 
d="M1 102q-2 30 7 75t39.5 108t77.5 107q5 1 14 -4t15.5 -17.5t1.5 -29.5q-45 -38 -76 -121t-24 -146q35 71 77 127.5t67 80t37 29.5q8 0 18 -4t18.5 -10.5t13.5 -14.5q60 -85 35 -226q-23 -131 -99 -214q-87 -97 -189 -58q-44 16 -87 59q76 -16 132 -4.5t93 46.5t59.5 80.5
t31 97t7.5 97t-10.5 78.5t-24.5 43q-22 -17 -42 -38.5t-34 -40t-29.5 -46.5t-24.5 -46t-24 -50.5t-23 -47.5q-19 5 -37.5 29t-19.5 61zM105 -172q55 -2 107.5 50.5t76.5 124t6 122.5q4 -30 -1 -63.5t-16 -65.5t-29.5 -61.5t-40.5 -52t-48.5 -37t-54.5 -17.5zM158 -137
q45 25 75.5 72.5t40.5 92.5t4 79q-1 -77 -34 -141.5t-86 -102.5zM107 332q-31 -31 -55.5 -96t-22.5 -100q7 45 31 105.5t47 90.5zM14 105q2 63 33 136.5t67 116.5q-44 -36 -76 -120t-24 -133z" />
    <glyph glyph-name="y" unicode="&#xff;" horiz-adv-x="347" 
d="M1 102q-2 30 7 75t39.5 108t77.5 107q5 1 14 -4t15.5 -17.5t1.5 -29.5q-45 -38 -76 -121t-24 -146q35 71 77 127.5t67 80t37 29.5q8 0 18 -4t18.5 -10.5t13.5 -14.5q60 -85 35 -226q-23 -131 -99 -214q-87 -97 -189 -58q-44 16 -87 59q76 -16 132 -4.5t93 46.5t59.5 80.5
t31 97t7.5 97t-10.5 78.5t-24.5 43q-22 -17 -42 -38.5t-34 -40t-29.5 -46.5t-24.5 -46t-24 -50.5t-23 -47.5q-19 5 -37.5 29t-19.5 61zM105 -172q55 -2 107.5 50.5t76.5 124t6 122.5q4 -30 -1 -63.5t-16 -65.5t-29.5 -61.5t-40.5 -52t-48.5 -37t-54.5 -17.5zM158 -137
q45 25 75.5 72.5t40.5 92.5t4 79q-1 -77 -34 -141.5t-86 -102.5zM107 332q-31 -31 -55.5 -96t-22.5 -100q7 45 31 105.5t47 90.5zM14 105q2 63 33 136.5t67 116.5q-44 -36 -76 -120t-24 -133z" />
    <glyph glyph-name="y" unicode="&#xfd;" horiz-adv-x="347" 
d="M1 102q-2 30 7 75t39.5 108t77.5 107q5 1 14 -4t15.5 -17.5t1.5 -29.5q-45 -38 -76 -121t-24 -146q35 71 77 127.5t67 80t37 29.5q8 0 18 -4t18.5 -10.5t13.5 -14.5q60 -85 35 -226q-23 -131 -99 -214q-87 -97 -189 -58q-44 16 -87 59q76 -16 132 -4.5t93 46.5t59.5 80.5
t31 97t7.5 97t-10.5 78.5t-24.5 43q-22 -17 -42 -38.5t-34 -40t-29.5 -46.5t-24.5 -46t-24 -50.5t-23 -47.5q-19 5 -37.5 29t-19.5 61zM105 -172q55 -2 107.5 50.5t76.5 124t6 122.5q4 -30 -1 -63.5t-16 -65.5t-29.5 -61.5t-40.5 -52t-48.5 -37t-54.5 -17.5zM158 -137
q45 25 75.5 72.5t40.5 92.5t4 79q-1 -77 -34 -141.5t-86 -102.5zM107 332q-31 -31 -55.5 -96t-22.5 -100q7 45 31 105.5t47 90.5zM14 105q2 63 33 136.5t67 116.5q-44 -36 -76 -120t-24 -133z" />
    <glyph glyph-name="z" unicode="z" horiz-adv-x="372" 
d="M50 347q34 25 122 40.5t135 0.5q21 -7 33.5 -28.5t11.5 -42.5t-10 -36q-15 -20 -84.5 -53t-109.5 -41q45 1 87.5 -28.5t48.5 -58.5q17 -73 -46 -176q-58 -95 -136 -136q-102 -53 -164 30q-18 23 -31 56q68 -50 128.5 -34.5t105 67.5t69.5 110.5t23 94.5q-1 13 -25.5 28
t-61 18t-78.5 -21q-13 8 -13.5 28t13.5 40q49 12 91.5 28t71.5 31.5t49 30.5t28.5 26t6.5 17t-21 8.5t-50 -1t-66 -11t-74 -23t-71 -36.5q-11 16 -6.5 37t23.5 35zM292 290q-23 -23 -75.5 -48.5t-100.5 -35.5q45 3 101 29.5t75 54.5zM68 319q27 18 83 33.5t106 15.5
q-45 6 -105 -10t-84 -39zM87 341q74 33 145 36q-27 8 -77.5 -6t-67.5 -30zM236 51q-21 -77 -66 -133.5t-103 -83.5q49 16 88.5 56.5t58.5 82.5t22 78zM8 -190q41 -10 87 11.5t81 59t58 86.5t21 91q-10 -64 -46.5 -123t-91 -94.5t-109.5 -30.5z" />
    <glyph glyph-name="nonbreakingspace" unicode="&#xa0;" horiz-adv-x="241" 
 />
  </font>
</defs>
</svg>
