<?xml version="1.0" standalone="no"?>
<!DOCTYPE svg PUBLIC "-//W3C//DTD SVG 1.1//EN" "http://www.w3.org/Graphics/SVG/1.1/DTD/svg11.dtd" >
<svg xmlns="http://www.w3.org/2000/svg" xmlns:xlink="http://www.w3.org/1999/xlink" version="1.1">
<metadata>
Created by FontForge 20161003 at Tue Jun 11 12:24:24 2019
 By www-data
Copyright (c) 2017 by Youssef Habchi. All rights reserved.
</metadata>
<defs>
<font id="Quinzey" horiz-adv-x="1010" >
  <font-face 
    font-family="Quinzey"
    font-weight="400"
    font-stretch="normal"
    units-per-em="1300"
    panose-1="0 0 0 0 0 0 0 0 0 0"
    ascent="950"
    descent="-350"
    x-height="468.5"
    cap-height="985"
    bbox="-587 -626 1777 1253"
    underline-thickness="50"
    underline-position="-150"
    unicode-range="U+000D-FB00"
  />
<missing-glyph horiz-adv-x="300" 
 />
    <glyph glyph-name="f_f" unicode="ff" horiz-adv-x="647" 
d="M76 497l36 5q1 0 7 -2l107 8q15 44 28 79.5t34.5 86t42.5 89t50.5 79.5t60 67.5t69 44t79.5 17.5q53 0 76 -29l2 -6q0 -5 -5 -10.5t-11 -6.5q-4 0 -8 3q-24 21 -56 21q-111 0 -206 -157q-41 -68 -92 -194l-32 -82q156 9 315 9q16 45 29 80t35 84.5t42.5 86.5t50 77
t59 65.5t67.5 42t78 16.5q30 0 30 -15q-2 -13 -15 -13h-17q-111 0 -206 -157q-41 -68 -92 -194q-8 -17 -28 -73q50 0 160 -2q2 0 10.5 0.5t14.5 0.5t13.5 -1.5t13 -5t7.5 -9.5q3 -8 -4 -16.5t-15 -5.5q-27 9 -46 9q-112 2 -164 2q-14 -39 -69 -215q-61 -206 -101 -361
q-73 -297 -80 -366q7 -4 7 -17q0 -9 -6.5 -15.5t-14.5 -6.5q-18 0 -18 22q23 168 93.5 435.5t156.5 523.5q-88 0 -132 -1q-118 -6 -184 -10q-29 -86 -65 -204q-61 -206 -101 -361q-73 -297 -80 -366q7 -4 7 -17q0 -9 -6.5 -15.5t-14.5 -6.5q-18 0 -18 22q21 161 89.5 421
t155.5 525l-139 -11q-6 0 -10.5 4.5t-4.5 10.5q-1 13 15 15z" />
    <glyph glyph-name="t_t" unicode="tt" horiz-adv-x="520" 
d="M92 718l36 5q1 0 7 -2l93 5q7 0 19.5 0.5t18.5 0.5q46 130 71 195q4 13 18 10q6 -1 9.5 -7t1.5 -11l-9 -23q-36 -93 -60 -162q73 3 211 5h32q57 160 68 188q4 13 18 10q6 -1 9.5 -7t1.5 -11l-9 -23q-43 -112 -58 -156q96 0 181 -3q15 0 15 -13q0 -6 -4.5 -10.5
t-10.5 -4.5q-41 2 -100 2h-91q-70 -205 -139 -449q-31 -115 -41 -164q-10 -53 -9 -77q7 -8 8 -10q3 -10 -6 -19t-20 -4q-10 4 -12 19q-5 30 9 90q12 60 41 169q51 188 139 445q-114 0 -205 -4l-38 -2q-75 -218 -137 -443q-31 -115 -41 -164q-10 -53 -9 -77q8 -8 8 -10
q3 -10 -6 -19t-20 -4q-10 4 -12 19q-5 30 9 90q12 60 41 169q60 222 136 438q-27 -2 -75.5 -5.5t-88.5 -5.5q-6 0 -10.5 4.5t-4.5 10.5q-1 13 15 15z" />
    <glyph glyph-name="f_t" unicode="ft" horiz-adv-x="589" 
d="M566 971q30 0 30 -15q-2 -13 -15 -13h-17q-111 0 -206 -157q-41 -68 -92 -194l-9 -23q154 8 290 8l45 132q36 104 77 213q4 13 18 10q6 -1 9.5 -7t1.5 -11l-9 -23q-37 -96 -66 -179q-23 -64 -45 -135q52 0 158 -2q2 0 10.5 0.5t14.5 0.5t13.5 -1.5t13 -5t7.5 -9.5
q3 -8 -4 -16.5t-15 -5.5q-27 9 -46 9q-110 2 -161 2q-48 -149 -87 -292q-31 -115 -41 -164q-10 -53 -9 -77q8 -8 8 -10q3 -10 -6 -19t-20 -4q-10 4 -12 19q-5 30 9 90q12 60 41 169q44 157 86 288q-91 0 -136 -1l-157 -8q-42 -115 -86 -264q-61 -206 -101 -361
q-73 -297 -80 -366q7 -4 7 -17q0 -9 -6.5 -15.5t-14.5 -6.5q-18 0 -18 22q23 168 93.5 435.5t156.5 523.5l16 47l-166 -13q-6 0 -10.5 4.5t-4.5 10.5q-1 13 15 15l36 5q1 0 7 -2q41 4 133 10q144 403 344 403z" />
    <glyph glyph-name="t_f" unicode="tf" horiz-adv-x="539" 
d="M46 555l36 5q1 0 7 -2q47 4 143 10l48 141q36 104 77 213q4 13 18 10q6 -1 9.5 -7t1.5 -11l-9 -23q-37 -96 -66 -179q-20 -56 -48 -142q103 5 234 7q141 394 340 394q44 0 71 -24t32 -64q0 -6 -4.5 -10.5t-10.5 -4.5q-13 0 -15 15q-5 29 -26 44.5t-49 15.5
q-111 0 -206 -157q-41 -68 -92 -194l-6 -15q119 2 205 -2q2 0 10.5 0.5t14.5 0.5t13.5 -1.5t13 -5t7.5 -9.5q3 -8 -4 -16.5t-15 -5.5q-27 9 -46 9q-142 2 -210 2q-36 -93 -90 -273q-61 -206 -101 -361q-73 -297 -80 -366q7 -4 7 -17q0 -9 -6.5 -15.5t-14.5 -6.5
q-18 0 -18 22q23 168 93.5 435.5t156.5 523.5q3 8 9.5 27.5t10.5 30.5q-57 0 -85 -1l-148 -8q-47 -144 -84 -283q-31 -115 -41 -164q-10 -53 -9 -77q8 -8 8 -10q3 -10 -6 -19t-20 -4q-10 4 -12 19q-5 30 9 90q12 60 41 169q42 157 83 278q-45 -3 -177 -14q-6 0 -10.5 4.5
t-4.5 10.5q-1 13 15 15z" />
    <glyph glyph-name="A_f" unicode="Af" horiz-adv-x="1331" 
d="M62 -7q-7 -7 -14 -7q-5 0 -9.5 4.5t-4.5 10.5q0 4 12 20l48 65q57 75 235 296q-125 -13 -205 -28q-4 -3 -4 -7q0 -15 -17 -15q-2 0 -58 8q-11 2 -11 14q0 10 11 15l47 9q98 20 202 30l61 6q89 107 144.5 172t140 154t162.5 159q3 3 23 20t28.5 24t25 18.5t29 16t23.5 4.5
q42 0 42 -74q0 -37 -26 -241q-11 -85 -30 -210q39 2 281 10l8 24q15 46 27.5 80t35 87.5t43.5 92.5t51 83t61 72t70.5 46.5t81.5 18.5q53 0 76 -29l2 -6q0 -5 -5 -10.5t-11 -6.5q-4 0 -8 3q-24 21 -56 21q-111 0 -206 -157q-41 -68 -92 -194q-5 -13 -46 -124q245 2 252 2
q6 0 10.5 -4.5t4.5 -10.5q0 -13 -15 -15q-55 4 -262 -2q-12 -33 -51 -162q-61 -206 -101 -361q-73 -297 -80 -366q7 -4 7 -17q0 -9 -6.5 -15.5t-14.5 -6.5q-18 0 -18 22q21 160 86 411t146 494q-197 -6 -275 -11l-2 -22q-36 -271 -36 -383q0 -50 2 -65q0 -1 12 -13t12 -23
q0 -20 -19 -20q-38 0 -38 115q0 75 12 171q15 153 27 238q-143 -7 -463 -34l-53 -5q-155 -190 -305 -392zM395 418q285 25 493 37l16 118q36 237 39 328q0 51 -11 51q-9 0 -24.5 -8t-35 -23.5t-37.5 -31t-41.5 -38.5t-37.5 -37l-34.5 -34.5l-24.5 -24.5q-154 -158 -302 -337
z" />
    <glyph glyph-name="r_f" unicode="rf" horiz-adv-x="786" 
d="M1094 942l2 -6q0 -5 -5 -10.5t-11 -6.5q-4 0 -8 3q-24 21 -56 21q-111 0 -206 -157q-41 -68 -92 -194q-6 -14 -15.5 -40t-15.5 -40q83 8 203 8q78 0 101 -2q13 -2 15 -15q0 -6 -4.5 -10.5t-9.5 -4.5q-20 0 -62 1t-62 1q-82 0 -192 -9q-35 -103 -65 -205
q-61 -206 -101 -361q-73 -297 -80 -366q7 -4 7 -17q0 -9 -6.5 -15.5t-14.5 -6.5q-18 0 -18 22q21 165 90 427.5t156 518.5l-21 -2q-1 0 -2 -0.5t-2 -0.5q-6 0 -11 4t-5 10q0 13 12 16q33 3 39 4q17 52 33.5 94t42 100t54.5 101.5t64.5 83.5t79 61.5t90.5 21.5q53 0 76 -29z
M107 279l26 76q-4 25 1 43q3 15 14.5 29t27.5 13q7 -1 12 -7t3 -12q-5 -14 -15.5 -40t-15.5 -40q-4 -12 -18.5 -49.5t-20.5 -57.5q24 30 70 81q60 65 135.5 119t137.5 54q56 0 74 -45q10 -24 2 -55q-6 -15 -18 -10q-16 6 -11 18q3 13 2 23q-2 17 -14 28.5t-29 11.5
q-57 0 -129 -51t-132 -115q-51 -54 -112 -137q-24 -80 -39 -153q-6 -15 -19 -10q-15 6 -10 18q12 52 24 97q16 59 54 171z" />
    <glyph glyph-name=".notdef" horiz-adv-x="300" 
 />
    <glyph glyph-name=".null" horiz-adv-x="0" 
 />
    <glyph glyph-name="nonmarkingreturn" horiz-adv-x="433" 
 />
    <glyph glyph-name="NULL" horiz-adv-x="0" 
 />
    <glyph glyph-name="NULL" horiz-adv-x="0" 
 />
    <glyph glyph-name="CR" unicode="&#xd;" horiz-adv-x="321" 
 />
    <glyph glyph-name="space" unicode=" " horiz-adv-x="300" 
 />
    <glyph glyph-name="exclam" unicode="!" horiz-adv-x="286" 
d="M360 946q0 -11 -4 -18q-43 -124 -108 -349.5t-86 -350.5q-2 -12 -14 -12q-5 0 -10 4.5t-5 9.5q0 4 1 5q24 121 89.5 353t99.5 335v2q0 10 5.5 23t15.5 13q6 0 11 -4.5t5 -10.5zM93 65q2 2 7 2q8 0 16.5 -11.5t8.5 -23.5q0 -18 -14 -32t-33 -14q-23 0 -23 16q0 39 38 63z
" />
    <glyph glyph-name="quotedbl" unicode="&#x22;" horiz-adv-x="308" 
d="M305 671q-5 -13 -19 -11q-15 5 -9 19q15 52 31 95q24 70 68 178q9 13 20 9q15 -6 8 -19q-60 -156 -67 -178q-22 -59 -32 -93zM186 674q-5 -13 -19 -11q-15 5 -9 19q15 52 31 95q24 70 68 178q9 13 20 9q15 -6 8 -19q-60 -156 -67 -178q-22 -59 -32 -93z" />
    <glyph glyph-name="numbersign" unicode="#" horiz-adv-x="1130" 
d="M82 279q-6 0 -11 4.5t-5 10.5q-1 13 14 15q80 5 232 19l116 8q14 50 66 186q-117 -3 -345 -5q-14 0 -16 16q0 13 22 19.5t44 6.5q26 0 56 -11l250 4q65 171 97 244l32 74q13 30 23 34q5 2 10 2q8 0 15 -6t8 -15q1 -8 -4.5 -14.5t-14.5 -6.5q-6 0 -7 1q-19 -38 -45.5 -104
t-51 -131t-29.5 -77q36 1 106.5 3t106.5 4q47 155 108 306q26 79 42 79q6 0 11.5 -4t5.5 -10q2 -12 -5 -29.5t-15 -19.5l-43 -117q-14 -34 -71 -204q180 7 464 23q14 0 16 -15q0 -13 -14 -15q-81 -6 -476 -23l-55 -181q12 0 196 7q42 2 233 4q14 0 16 -15q0 -15 -14 -15
q-367 -7 -441 -11l-41 -139q-35 -117 -65 -252q-12 -63 -14 -75q-5 -35 -5 -40l1 -9q1 -15 -14 -15t-16 15q-3 35 12 108q22 110 81 309q23 83 28 97l-225 -12q-46 -144 -58 -224l-8 -48q4 2 10 2q12 -3 12 -16q1 -9 -5.5 -14.5t-15.5 -5.5q-12 0 -20.5 8t-9.5 20
q-1 11 0.5 26.5t5.5 36.5t8.5 39.5t12 46l12 44t12.5 45t11 38.5q-189 -12 -336 -26zM460 338q161 8 225 11q10 29 27 86.5t30 94.5q-27 -2 -81 -3t-81 -2l-53 -2q-24 -65 -67 -185z" />
    <glyph glyph-name="dollar" unicode="$" horiz-adv-x="739" 
d="M772 770q2 -4 2 -8q0 -5 -4.5 -10t-10.5 -5q-8 0 -18 16q-45 62 -184 62q-80 0 -159 -43t-79 -101q0 -27 28 -53q42 -40 130.5 -97.5t103.5 -68.5q126 -90 126 -174q0 -19 -7 -42q-28 -83 -126 -128t-212 -52q-2 -9 -17 -63t-22 -83l-2 -13q1 -1 4 -13q0 -13 -6.5 -24
t-17.5 -11q-6 0 -10.5 5t-4.5 10q-2 15 9 36q31 123 40 155h-14q-25 0 -54.5 2.5t-71.5 13t-74 27t-55.5 48t-23.5 73.5q0 6 4.5 10.5t10.5 4.5t10.5 -4.5t4.5 -10.5q0 -37 26 -66q59 -68 223 -68q94 0 176 26q40 11 78 30.5t70.5 56t32.5 78.5q0 23 -12.5 47t-29.5 43
t-48.5 43.5t-53.5 39t-62 40.5t-58 38q-2 2 -17 12l-19.5 13t-18 13t-19 15.5t-16 15.5t-15 18t-10.5 18t-8 20.5t-2 21.5q0 52 48 93t110 59.5t120 18.5h16q22 63 64 164q3 7 12 7t11 -12v-3q0 -6 -1 -7q-35 -89 -58 -151q117 -13 161 -83z" />
    <glyph glyph-name="percent" unicode="%" horiz-adv-x="900" 
d="M320 923q52 0 82.5 -26t32.5 -77q0 -78 -62 -138.5t-140 -60.5q-49 0 -83.5 29.5t-34.5 76.5q0 75 63.5 135.5t141.5 60.5zM590 226l13 17q3 4 10 4q5 0 6 -1q64 42 119 42q46 0 76 -26.5t30 -67.5q0 -76 -68.5 -143t-146.5 -67q-44 0 -73 29.5t-29 72.5q0 36 16 67.5
t47 72.5zM325 893h-7q-64 0 -118.5 -52.5t-54.5 -114.5q0 -36 26.5 -55.5t62.5 -19.5q62 0 116.5 49.5t54.5 114.5q0 41 -23 59.5t-57 18.5zM662 237q-10 -6 -26.5 -17.5t-26.5 -16.5v-1q-53 -68 -53 -118q0 -29 19.5 -49.5t52.5 -20.5q67 0 126.5 56.5t59.5 122.5
q0 31 -22 48t-54 17q-36 0 -76 -21zM905 909q6 2 7 2q6 0 11 -4.5t5 -10.5q0 -8 -8 -13q-163 -111 -377 -315q-254 -243 -390 -422q-4 -5 -17.5 -23t-19.5 -26.5t-16 -23.5t-17.5 -28.5t-12.5 -26.5v-1q5 -5 5 -12q0 -14 -15 -14q-21 0 -21 25q0 11 8 27q21 45 95 138
q162 199 362 396t401 332z" />
    <glyph glyph-name="ampersand" unicode="&#x26;" horiz-adv-x="959" 
d="M873 -25q10 -4 10 -15q0 -15 -14 -15q-4 0 -11 4q-54 23 -123 98q-38 38 -80 90q-245 -141 -447 -141q-76 0 -130 33.5t-54 102.5q0 63 44 119.5t115 113.5q81 63 264 168q-10 41 -10 92q0 47 15 100q25 92 92 164t158 72q49 0 82 -29.5t33 -78.5q0 -38 -19.5 -76.5
t-55.5 -73t-68 -59t-74 -52.5q-63 -40 -118 -72q43 -158 182 -344q167 96 280 221q23 23 23 42q0 23 19 23q11 0 17 -7t6 -16q0 -8 -5 -16q-103 -135 -306 -260l-16 -10q26 -37 72 -84q67 -74 119 -94zM532 108q61 28 105 53q-56 73 -104 160q-53 94 -79 182
q-8 -5 -45 -26.5t-49 -29t-42.5 -26t-47 -30t-40 -28t-42.5 -32.5q-134 -108 -134 -200q0 -53 44.5 -79t107.5 -26q146 0 326 82zM467 618q0 -44 8 -68q110 67 130 81q36 25 60.5 45t56.5 50.5t49 63t17 63.5q0 35 -23 56t-57 23q-28 1 -69 -15q-76 -29 -124 -114.5
t-48 -184.5z" />
    <glyph glyph-name="quotesingle" unicode="'" horiz-adv-x="300" 
d="M314 890q-7 3 -7 13q0 9 5.5 16t14.5 7q24 0 16 -43q-30 -120 -112 -229q-4 -4 -11 -4q-15 0 -15 14q0 7 4 11q67 87 105 215z" />
    <glyph glyph-name="parenleft" unicode="(" horiz-adv-x="395" 
d="M600 991q1 1 8 1q14 0 14 -14q0 -10 -7 -13q-128 -58 -250 -208q-117 -143 -189 -311t-72 -334q0 -88 27 -153q38 -87 85 -87q2 0 5.5 0.5t5.5 0.5q14 0 14 -14q0 -17 -27 -17q-37 1 -67 35q-73 77 -73 235q0 178 79.5 357t210.5 334q115 134 236 188z" />
    <glyph glyph-name="parenright" unicode=")" horiz-adv-x="405" 
d="M-87 -157q-1 -1 -8 -1q-14 0 -14 14q0 9 7 13q128 58 250 208q117 143 189 311t72 334q0 88 -27 153q-38 87 -85 87q-2 0 -5.5 -0.5t-5.5 -0.5q-14 0 -14 14q0 17 27 17q37 -1 67 -35q73 -77 73 -235q0 -178 -79.5 -357t-210.5 -334q-115 -134 -236 -188z" />
    <glyph glyph-name="asterisk" unicode="*" horiz-adv-x="439" 
d="M159 627q-17 -21 -28 -21q-18 0 -20 20q-1 7 5.5 14t21.5 14.5t25.5 12.5t31.5 13t26 10l109 43q-11 12 -31.5 33t-37 39t-31.5 34q-4 6 -5 12q0 14 14 14q8 0 12 -4q33 -37 95 -103l12 34q30 82 50 124v2q-1 1 -1 3q-1 10 6 15t17 6q6 0 11 -5t5 -10q1 -3 -1 -8l-5 -9
q0 -3 -5.5 -14.5t-13 -26.5t-9.5 -22l-38 -98q120 45 219 71h2q17 0 18 -15q0 -11 -10 -14l-10 -3q-118 -32 -211 -68q92 -99 164 -172q11 -11 11 -19q2 -14 -14 -14q-7 0 -10 4q-33 33 -91 95t-83 88l-7 -19q-18 -54 -41 -148q0 -1 -1.5 -8.5t-3 -10t-5 -6t-8.5 -3.5
q-7 0 -11.5 4.5t-4.5 10.5q-1 4 1 10t2 8q16 69 45 158q-55 -21 -120 -48q-37 -16 -46 -23z" />
    <glyph glyph-name="plus" unicode="+" horiz-adv-x="608" 
d="M343 453q3 10 14 10q15 0 15 -15q0 -1 -4 -13q-36 -89 -64 -170h64q139 0 210 -8q15 -2 15 -15q0 -15 -15 -15q-68 8 -229 8h-55q-23 -71 -56 -194q10 -4 10 -17q0 -11 -8 -19t-18 -8q-8 0 -14.5 5t-6.5 13v3q23 96 63 217q-141 -2 -230 -10q-6 0 -10.5 5t-4.5 10
q0 15 15 15q80 8 240 10q16 50 69 188z" />
    <glyph glyph-name="comma" unicode="," horiz-adv-x="315" 
d="M179 71v4l-1 1q-22 12 -22 30t16 18q20 0 28.5 -19t8.5 -39q0 -25 -10 -46q-45 -115 -198 -232q-4 -3 -12 -9.5t-13.5 -10.5t-12.5 -7.5t-12 -3.5q-15 0 -15 15q0 6 3.5 9.5t11.5 8t11 6.5q91 69 146 134q71 86 71 141z" />
    <glyph glyph-name="hyphen" unicode="-" horiz-adv-x="431" 
d="M54 223q-6 0 -10.5 5t-4.5 10q0 15 15 15q68 3 139 3q95 0 189 -6q15 -2 15 -15q0 -6 -4.5 -10.5t-10.5 -4.5q-128 6 -191 6q-69 0 -137 -3z" />
    <glyph glyph-name="period" unicode="." horiz-adv-x="264" 
d="M134 76q2 2 7 2q8 0 16.5 -11.5t8.5 -23.5q0 -18 -14 -32t-33 -14q-23 0 -23 16q3 40 38 63z" />
    <glyph glyph-name="slash" unicode="/" horiz-adv-x="453" 
d="M594 926q4 7 13 7q6 0 10.5 -5t4.5 -11q0 -1 -2 -7q-306 -426 -588 -909q-5 -8 -13 -8q-15 0 -15 16q0 9 16 30q225 393 574 887z" />
    <glyph glyph-name="zero" unicode="0" horiz-adv-x="801" 
d="M363 842q47 31 109 53.5t116 22.5q72 0 125 -22.5t82.5 -61.5t43 -85t13.5 -99q0 -153 -74 -296.5t-194 -243.5q-142 -121 -287 -121q-23 0 -43 3q-58 10 -99.5 38.5t-63.5 69t-31.5 82.5t-9.5 89q0 154 90 318t223 253zM270 22q9 -1 26 -1q89 0 184 54.5t170 140.5
t123.5 201.5t48.5 228.5q0 59 -18 110q-20 66 -80 98t-137 32q-105 0 -197 -60q-71 -47 -147 -137q-73 -92 -117.5 -201.5t-44.5 -220.5q0 -99 49 -167.5t140 -77.5z" />
    <glyph glyph-name="one" unicode="1" horiz-adv-x="508" 
d="M158 613l-8 -2q-15 0 -16 15q-2 9 7 13q131 69 320 227q4 3 18 16.5t24.5 21t16.5 7.5q14 0 15 -16q0 -4 -2 -8q-6 -19 -19.5 -53.5t-17.5 -45.5l-63 -181q-80 -226 -142 -441q-32 -112 -44 -176q-2 -11 -16 -11q-13 0 -13 16t20 91q33 130 64 223q66 212 144 427
q3 8 8.5 25t13.5 38.5t18 48.5l-12 -10q-180 -153 -316 -225z" />
    <glyph glyph-name="two" unicode="2" horiz-adv-x="762" 
d="M218 614q7 -4 7 -12q0 -7 -4.5 -11.5t-10.5 -4.5q-14 0 -22 15.5t-8 28.5q0 31 31 79q68 100 188.5 163t244.5 63q74 0 122 -35t48 -100q0 -99 -136 -253q-160 -183 -461 -413q-92 -72 -139 -100l33 3q203 18 369 18q194 0 194 -27q0 -15 -15 -15q-1 0 -2 0.5t-2 0.5
q-51 11 -181 11q-90 0 -315 -15q-9 0 -21.5 -1t-46.5 -4.5t-75 -6.5q-15 0 -15 15q0 10 8 13l10 5q21 13 81 55q151 109 282 219q192 163 292 283q33 42 50.5 65t39 67t21.5 78q0 52 -36.5 79.5t-106.5 27.5q-79 0 -158.5 -29t-144.5 -79q-49 -37 -89 -84.5t-40 -83.5
q0 -10 8 -15z" />
    <glyph glyph-name="three" unicode="3" horiz-adv-x="811" 
d="M291 765l2 -8q0 -14 -15 -14q-17 0 -17 26q0 28 28 50q43 37 116 60.5t141 23.5q26 0 53 -3.5t63 -13t58 -32t22 -56.5q0 -55 -76 -114q-75 -59 -179 -110q46 -14 91 -35t90 -53t73 -78t28 -98q0 -61 -36 -113q-66 -100 -200.5 -161.5t-269.5 -61.5q-98 0 -166 40
q-41 23 -69 62t-28 82q0 39 20 39q14 0 14 -13q0 -3 -2 -12t-2 -15q0 -35 23 -64q63 -89 212 -89q127 0 244 53q40 19 77 43t73 56t58 72.5t22 81.5q0 43 -23 81.5t-62 67.5t-80 49.5t-85 34.5l-45 12q-16 3 -16 16q0 9 8 12q86 42 138 73q44 25 91 67t47 74q0 28 -29.5 46
t-64 24t-70.5 6q-84 0 -163 -32q-34 -13 -64.5 -35.5t-30.5 -37.5q0 -2 1 -3z" />
    <glyph glyph-name="four" unicode="4" horiz-adv-x="799" 
d="M671 647q5 8 13 8q14 0 14 -15v-4q1 -4 0 -4q-41 -98 -94 -229q73 10 151 10h7.5h12t15 -0.5t17 -1.5t16 -3.5t14 -6.5t9.5 -10t5 -14q0 -15 -15 -15q-6 0 -10.5 4.5t-4.5 10.5q-8 5 -70 5q-84 0 -159 -11q-48 -125 -81 -246q-8 -28 -25 -101q0 -3 3 -13t3 -17
q0 -22 -24 -24q-18 0 -18 24q0 37 32 139q34 119 76 234q-118 -16 -150 -21q-182 -27 -244 -27q-89 0 -93 68q-3 51 50 152q22 44 94 164q12 18 36.5 57t39.5 62.5t35.5 53t36.5 49.5q4 4 11 4q14 0 16 -14q0 -8 -4 -11q-19 -15 -143 -214q-88 -146 -113 -204
q-30 -65 -29 -98q1 -39 51 -39q49 0 104.5 6.5t147 20.5t166.5 23q36 98 101 248z" />
    <glyph glyph-name="five" unicode="5" horiz-adv-x="761" 
d="M280 806q0 -8 -3 -12q3 3 7 3q7 0 11.5 -4.5t4.5 -10.5q0 -12 -5 -11q-28 -46 -37 -64q-49 -89 -59 -155q3 -1 12 -1q87 -8 162.5 -27t144.5 -53t109.5 -91.5t40.5 -131.5q0 -110 -116 -190q-121 -81 -254 -81q-90 0 -171 36t-118 109q-2 6 -2 8q0 14 15 14q9 0 13 -7
q30 -68 110.5 -99t163.5 -31q65 0 139 28t132 86t58 129q0 30 -11 63q-58 176 -418 208q-23 0 -31.5 8t-8.5 26q0 8 1 11q11 45 50 130q37 77 52 94q-1 -1 -6 -1q-8 0 -13 6t-5 12q0 9 5 16t17.5 11.5t21 6.5t28.5 5t26 4q174 29 375 34q74 0 106 -3q15 -2 15 -15
q0 -26 -18 -26q-5 0 -8.5 1.5t-10 5.5t-11.5 6q-15 1 -41 1q-280 0 -473 -48z" />
    <glyph glyph-name="six" unicode="6" horiz-adv-x="768" 
d="M672 880q29 17 43 17q5 0 10 -5t5 -11q0 -9 -11 -14q-82 -29 -229.5 -132.5t-253.5 -232.5q-59 -76 -72 -96q131 80 312 80q46 0 91 -6q81 -13 137.5 -63.5t56.5 -126.5q0 -85 -73.5 -160t-178 -116t-204.5 -41q-109 0 -181 57t-72 150q0 46 18 100q2 8 5 16
q-12 2 -12 16q0 5 2 7q19 24 38 40q83 166 310 352q145 117 259 169zM472 456q-88 0 -184 -27t-165 -91q-41 -79 -41 -157q0 -62 38 -104.5t86 -58.5t100 -16q55 0 126.5 21t139 56.5t113.5 92t46 118.5q0 51 -25 86t-68 51.5t-82.5 22.5t-83.5 6z" />
    <glyph glyph-name="seven" unicode="7" horiz-adv-x="633" 
d="M141 840q-5 5 -5 11t4.5 10.5t10.5 4.5q8 0 11 -4q6 -13 113 -13q197 0 471 41q22 6 35 6q15 0 15 -14q0 -8 -5 -11l-25 -21q-262 -212 -485 -588q-60 -100 -86 -159q-3 -6 -9.5 -19.5t-10 -22t-7 -20.5t-3.5 -23q0 -4 2 -14q0 -16 -16 -16q-7 0 -15 8.5t-8 16.5
q0 50 115 243q218 373 483 600q-87 -11 -99 -13q-190 -26 -354 -26q-108 0 -132 23z" />
    <glyph glyph-name="eight" unicode="8" horiz-adv-x="778" 
d="M253 686q0 6 4.5 10.5t10.5 4.5q8 0 11 -4t3.5 -11t6.5 -20.5t19 -27.5q48 -55 144 -130q167 88 244 146q29 21 46 36.5t34.5 42t17.5 52.5q0 32 -21.5 56t-55.5 35.5t-66.5 17t-63.5 5.5q-71 0 -146.5 -21t-119.5 -65q-18 -18 -22 -34q5 -5 5 -11q0 -15 -14 -15
q-21 0 -21 26q0 20 24 46q50 54 131 79.5t166 25.5q37 0 75.5 -7.5t75.5 -23.5t60 -45.5t23 -67.5q0 -20 -5.5 -39t-20.5 -38t-26 -33t-37.5 -33t-38 -28t-45 -28.5t-41.5 -24t-43 -23.5q-78 -43 -92 -50q42 -33 59 -46.5t54 -48t54 -58t32.5 -57.5t15.5 -65
q0 -60 -41.5 -111.5t-103.5 -83.5t-130 -49.5t-126 -17.5q-42 0 -85 8t-86.5 26.5t-70.5 55t-27 86.5q0 48 25.5 93t73 84.5t89.5 66.5t98 58l117 63l-66 55q-33 29 -49 43.5t-35.5 43t-19.5 51.5zM609 328q-48 56 -162 146q-114 -63 -157 -88q-1 -1 -36 -22.5t-52.5 -33.5
t-51 -38.5t-52 -48t-33.5 -51t-15 -57.5q0 -45 24 -77t64 -47.5t78 -22t79 -6.5q75 0 158 28.5t145 84t62 121.5q0 54 -51 112z" />
    <glyph glyph-name="nine" unicode="9" horiz-adv-x="732" 
d="M693 833q0 -15 -15 -15q-11 0 -14 10q-2 8 -2 11q-5 23 -41 34t-73 11q-129 0 -280 -110q-43 -32 -81.5 -68t-74 -90t-35.5 -99q0 -39 24 -59.5t59 -20.5q73 0 191 61q194 98 433 315q4 4 11 4q6 0 10.5 -4.5t4.5 -11.5l-2 -6q-203 -291 -303 -626q-23 -82 -24 -129
q16 -3 16 -15l-13 -35q-5 -11 -15 -11q-18 0 -18 57q0 60 30 156q84 275 241 526q-198 -160 -323 -229q-146 -82 -236 -82q-52 0 -84 29t-32 78q0 75 59.5 148.5t144.5 134.5q163 117 297 117q33 0 61.5 -5t55 -24.5t28.5 -51.5z" />
    <glyph glyph-name="colon" unicode=":" horiz-adv-x="286" 
d="M90 114q2 2 7 2q8 0 16.5 -11.5t8.5 -23.5q0 -18 -14 -32t-33 -14q-23 0 -23 16q3 40 38 63zM195 420q2 2 7 2q8 0 16.5 -11.5t8.5 -23.5q0 -18 -14 -32t-33 -14q-23 0 -23 16q3 40 38 63z" />
    <glyph glyph-name="semicolon" unicode=";" horiz-adv-x="337" 
d="M210 420q2 2 7 2q8 0 16.5 -11.5t8.5 -23.5q0 -18 -14 -32t-33 -14q-23 0 -23 16q3 40 38 63zM149 71v4l-1 1q-22 12 -22 30t16 18q20 0 28.5 -19t8.5 -39q0 -25 -10 -46q-45 -115 -198 -232q-4 -3 -12 -9.5t-13.5 -10.5t-12.5 -7.5t-12 -3.5q-15 0 -15 15q0 6 3.5 9.5
t11.5 8t11 6.5q91 69 146 134q71 86 71 141z" />
    <glyph glyph-name="less" unicode="&#x3c;" horiz-adv-x="619" 
d="M603 443q7 4 17 4q6 0 11 -4t5 -10q0 -12 -11 -15l-14 -4q-49 -14 -131 -45q-198 -75 -372 -158l-21 -11q196 -60 323 -119l19 -9h5q14 0 24 -7.5t10 -19.5q0 -17 -16 -17q-6 0 -20 7t-18 11q-16 8 -33 15t-37.5 15.5t-32.5 13.5q-136 55 -265 91q-12 3 -12 16q0 4 5 9
q37 25 170 85q129 58 257 105q60 21 137 47z" />
    <glyph glyph-name="equal" unicode="=" horiz-adv-x="660" 
d="M138 306q-6 0 -10.5 4.5t-5.5 10.5q0 15 15 15q78 5 140 5q239 0 324 -4q14 0 14 -14q0 -6 -4 -11t-10 -5q-85 4 -326 4q-62 0 -137 -5zM217 133l-137 -4q-6 0 -10.5 4.5t-3.5 9.5q0 16 14 16q93 2 139 5q156 0 305 -7q14 -1 16 -14q0 -6 -5 -11t-11 -5q-126 6 -307 6z
" />
    <glyph glyph-name="greater" unicode="&#x3e;" horiz-adv-x="619" 
d="M-7 41q3 12 20 21q1 1 42 18q22 10 35 15q70 30 142.5 58t183.5 68t145 53q-173 71 -304 115q-55 18 -65.5 23t-10.5 14q0 14 15 14q10 0 67 -20q155 -53 285 -108q65 -25 65 -40q0 -9 -11 -14l-224 -84q-27 -10 -86 -31.5t-93.5 -34.5t-84 -33.5t-90.5 -40.5
q-4 -15 -17 -15q-8 0 -12 6.5t-2 15.5z" />
    <glyph glyph-name="question" unicode="?" horiz-adv-x="526" 
d="M183 209h3q15 0 15 -15q0 -6 -4.5 -10.5t-10.5 -4.5q-16 0 -25.5 11.5t-9.5 30.5q0 27 13 58q21 52 66.5 103t91 86.5t106.5 83t96 81.5q102 98 102 172q0 67 -48.5 98.5t-110.5 31.5q-76 0 -152.5 -43t-119.5 -110q-2 -4 -6 -11.5t-6.5 -12t-6.5 -8t-9 -3.5
q-15 0 -15 15l2 8q38 84 128.5 139t185.5 55q75 0 131.5 -41t56.5 -117q0 -53 -30 -99q-34 -53 -88.5 -103t-127.5 -106.5t-109 -90.5q-35 -33 -54 -53.5t-42 -59t-24 -73.5q0 -9 2 -12zM136 52q6 2 8 2q7 0 14 -13q10 -4 10 -19q0 -20 -15.5 -34.5t-35.5 -14.5
q-25 0 -25 17q0 18 13.5 35t30.5 27z" />
    <glyph glyph-name="at" unicode="@" horiz-adv-x="1212" 
d="M735 401q7 -4 7 -13q0 -6 -5 -10.5t-10 -4.5q-2 0 -12 6q-7 4 -21 4q-55 0 -141 -68q-150 -127 -150 -225q0 -16 9.5 -29t26.5 -13q32 0 89 42q105 77 188 212q21 34 41 73q3 8 14 8q5 0 9.5 -4.5t4.5 -10.5q0 -4 -6 -18q-56 -176 -56 -276q0 -102 71 -102q89 0 193 85
t177 218.5t73 258.5q0 74 -28 126.5t-76.5 79t-99 37.5t-108.5 11q-198 0 -402 -125q-63 -38 -127.5 -90t-133.5 -125.5t-121.5 -152.5t-86.5 -175t-34 -189q0 -69 20 -125t53 -91.5t78.5 -59t92.5 -33.5t99 -10q145 0 311 68h1q1 1 2 1q6 0 10.5 -5t4.5 -11q0 -11 -10 -14
q-160 -69 -319 -69q-179 0 -282 103q-91 91 -91 244q0 179 124 374q44 70 103 138.5t139 138t166.5 121.5t191.5 85t209 33q167 0 259 -78q85 -71 85 -203q0 -113 -52 -226t-137 -207q-147 -163 -284 -163q-56 0 -78.5 38.5t-22.5 91.5q0 73 27 181l-7 -10
q-89 -123 -178 -185q-55 -39 -95 -39q-31 0 -50 18.5t-19 50.5q0 72 62 150.5t143 129.5q68 45 118 45q24 0 41 -12z" />
    <glyph glyph-name="A" unicode="A" 
d="M62 -7q-7 -7 -14 -7q-5 0 -9.5 4.5t-4.5 10.5q0 4 12 20l48 65q56 75 241 304q-162 -16 -211 -25q-4 -3 -4 -7q0 -14 -17 -14h-5q-4 1 -8.5 2t-17 3t-27.5 4q-11 2 -11 14q0 10 11 15l47 8q120 20 270 32q90 109 142.5 170t136.5 150t161 157q3 3 23 20t28.5 24t25 18.5
t29 16t23.5 4.5q42 0 42 -74q0 -37 -26 -241q-9 -73 -31 -219q39 2 230 4q6 0 10.5 -4.5t4.5 -10.5q0 -13 -15 -15h-70l-164 -4q0 -3 -0.5 -7.5t-0.5 -6.5q-36 -271 -36 -383q0 -50 2 -65q0 -1 12 -13t12 -23q0 -20 -19 -20q-38 0 -38 115q0 75 12 171q19 180 26 231
q-51 -2 -146.5 -5.5t-171.5 -7t-144 -8.5l-47 -3q-155 -190 -311 -400zM400 425q196 16 487 23l17 125q36 237 39 328q0 51 -11 51q-9 0 -24.5 -8t-35 -23.5t-37.5 -31t-41.5 -38.5t-37.5 -37l-34.5 -34.5l-24.5 -24.5q-137 -138 -297 -330z" />
    <glyph glyph-name="B" unicode="B" horiz-adv-x="1027" 
d="M548 1011q3 7 13 7q6 0 10.5 -4.5t4.5 -11.5q0 -1 -1 -3.5t-3 -6t-4 -7.5l-20 -37q51 6 117 6q41 0 77 -4q40 -4 77.5 -12t83 -24t73 -46.5t27.5 -70.5q0 -105 -181 -200q-71 -38 -162 -70q95 -5 155 -23q82 -24 140.5 -73.5t58.5 -122.5q0 -39 -17 -78
q-41 -90 -170.5 -174t-299.5 -135t-325 -51q-203 0 -203 44q0 13 15 15q10 0 15 -12q30 -17 148 -17q183 0 396 71q171 57 275 136q63 50 100 96.5t37 101.5q0 63 -51 106t-124 64q-81 23 -184 23q-37 0 -76 -3q-14 0 -14 15q0 13 11 14l25 7q132 36 238 96q164 87 164 171
q0 43 -49.5 73.5t-115.5 43t-136 12.5t-140 -9q-5 -11 -25 -58q-77 -192 -93 -235q-72 -188 -153 -452l-20 -68q7 -10 8 -23q0 -14 -10 -24t-22 -10q-15 0 -15 16q0 26 29 113q93 325 249 695l17 40q-23 -4 -59 -11q-8 -2 -51.5 -13t-52.5 -13q-6 0 -10.5 4.5t-4.5 10.5
q0 10 11 15q96 28 182 39q26 52 35 67z" />
    <glyph glyph-name="C" unicode="C" horiz-adv-x="1000" 
d="M1038 855l-3 16q-3 26 -41 38t-71 12q-185 0 -421 -166q-68 -46 -141.5 -118.5t-139 -157.5t-107.5 -180.5t-42 -173.5q0 -47 16 -82t39.5 -55t57 -32t63 -16t63.5 -4q174 0 357.5 79.5t332.5 197.5q6 2 7 2q15 0 15 -15q0 -9 -7 -13q-164 -131 -348 -205.5t-358 -74.5
q-137 0 -204 59.5t-67 159.5q0 81 42 177.5t108.5 183.5t141.5 161t146 124q256 179 441 179q36 0 69 -8.5t60 -33.5t27 -62q0 -15 -16 -15q-14 0 -20 23z" />
    <glyph glyph-name="D" unicode="D" horiz-adv-x="1052" 
d="M275 914q-4 0 -13.5 -2.5t-14.5 -2.5q-15 0 -15 15q0 13 11 15q75 15 174 15q73 0 147 -9l10 26q3 10 14 10q16 0 16 -14q0 -4 -9 -27q45 -7 81 -16q78 -20 150.5 -56.5t134 -88t99 -122.5t37.5 -150q0 -71 -30.5 -138t-78 -118.5t-114 -98.5t-128.5 -79.5t-133 -62.5
q-292 -120 -554 -120q-59 0 -59 27q0 16 25 16q12 0 32 -4t25 -9q238 5 521 118q166 66 282 159q182 143 182 308q0 116 -89 215q-135 150 -395 192q-7 -14 -16.5 -41.5t-13.5 -36.5q-109 -296 -213 -609l-33 -104q8 2 9 2q14 0 14 -16q0 -19 -17.5 -44t-37.5 -25
q-14 0 -14 15q0 34 29 114q123 397 256 733l6 16q-66 8 -125 8q-91 0 -152 -10z" />
    <glyph glyph-name="E" unicode="E" horiz-adv-x="936" 
d="M409 495q-138 -12 -176 -16q-66 -153 -107 -268q-25 -65 -25 -119q0 -144 212 -144q37 0 84 5q256 25 440 71q12 3 16 3q15 0 15 -14q0 -12 -11 -15l-64 -15q-130 -30 -272 -47q-128 -17 -208 -17q-108 0 -175 42t-67 132q0 57 38 161q30 86 89 214q-5 -5 -16 -5
t-20.5 6.5t-9.5 17.5q0 13 15 15q16 3 48 5l175 380l-143 -16v-3q0 -17 -26 -17q-9 0 -23.5 7.5t-14.5 21.5q0 20 52 20q28 4 84 9.5t84 8.5q9 20 17 43q3 10 15 10q6 0 10.5 -4t4.5 -10q0 -8 -14 -36l146 12q251 20 514 24q6 0 10.5 -4.5t4.5 -10.5q0 -15 -15 -15
q-187 -3 -513 -24q-126 -10 -161 -13q-24 -52 -83.5 -180.5t-91.5 -199.5q257 24 502 28q13 0 15 -15q0 -6 -4.5 -10.5t-10.5 -4.5l-137 -3q-103 -4 -203 -10z" />
    <glyph glyph-name="F" unicode="F" horiz-adv-x="700" 
d="M512 896q-2 -15 -15 -15q-1 0 -7 2q-25 -62 -70 -185q-50 -134 -101 -283q197 30 379 30h9h11h11t12 -0.5t11 -1.5t10 -3t7.5 -4t5.5 -5t2 -7q0 -13 -17 -13q-6 0 -33.5 2t-41.5 2q-64 0 -227 -15q-91 -9 -150 -17l-23 -66q-83 -241 -105 -324q-2 -9 -4 -42t-9 -50.5
t-24 -17.5q-19 0 -19 15q0 3 4 20q9 34 23 83l72 227q12 38 22 67t15 43t8 23.5t4 12.5t2 5l-17 -3l-19 -3q-14 0 -15 13q0 14 11 16l17.5 2.5t18.5 3t15 2.5l105 293q30 83 79 208q-203 -13 -360 -29q0 -2 1 -2v-3q0 -17 -27 -17q-13 0 -27 9.5t-14 22.5q0 14 15 15
q203 22 425 34q8 18 18 18q16 0 16 -13v-3q314 19 655 17q15 0 15 -15t-15 -15q-382 2 -657 -17q0 -7 -2 -17z" />
    <glyph glyph-name="G" unicode="G" horiz-adv-x="1009" 
d="M1083 792q-3 -11 -14 -11q-16 0 -16 15q0 3 1 4q5 12 5 36q0 58 -54.5 85t-125.5 27q-63 0 -145 -21q-133 -35 -257.5 -114t-221.5 -184q-191 -207 -191 -370q0 -56 21.5 -98t58 -65t77 -34t85.5 -11q84 0 188 28q274 74 475 253q4 4 10 4q15 0 15 -14q1 -3 -1 -8
q-64 -146 -79 -188q-72 -193 -121 -373q-21 -78 -50 -212q0 -9 4.5 -24.5t5.5 -21.5q0 -14 -11 -28.5t-21 -14.5q-15 0 -15 15q0 44 17 123q14 68 43 172q76 276 173 504q-100 -79 -256 -150q-202 -95 -378 -95q-44 0 -82 7q-86 18 -137.5 82.5t-51.5 147.5q0 97 59 202.5
t146 196.5q126 132 289 219q193 102 351 102q50 0 95 -12t80.5 -45.5t35.5 -83.5q0 -19 -7 -45z" />
    <glyph glyph-name="H" unicode="H" horiz-adv-x="1002" 
d="M39 361q1 0 5 1t5 1q62 7 179 17q3 9 13.5 44t16.5 53q56 171 122 356q4 10 21 56.5t26 67.5q3 7 11 7q16 0 16 -15v-7l-9 -21l-34 -86q-49 -136 -122 -363l-29 -89q25 2 89 6.5t84 6.5q264 19 460 24q60 201 98 311q23 71 52 141l4 22q10 70 34 70q19 0 21 -20
q0 -8 -4 -17l-25 -63q-23 -51 -51 -142l-97 -302q133 2 177 -3q10 -1 10 -14q0 -15 -15 -15q-16 0 -38 1q-33 1 -144 0l-8 -27q-141 -455 -151 -563q0 -33 -17 -33q-14 0 -16 14q2 10 2 13q4 82 113 442q35 118 46 154l-106 -4q-286 -11 -528 -32q-100 -313 -100 -353
q0 -11 6 -17.5t6 -11.5q0 -11 -6 -24t-17 -13t-17 9t-6 19q0 74 102 388q-32 -3 -138 -14q-8 -6 -53 -6q-6 0 -10.5 5t-4.5 10q0 16 27 16z" />
    <glyph glyph-name="I" unicode="I" horiz-adv-x="899" 
d="M717 921q-191 -11 -381 -30q0 -1 0.5 -2t0.5 -3q0 -18 -27 -16q-13 -1 -27 9t-14 23q0 12 15 13q277 30 474 41q14 29 21 29q17 0 17 -15v-12q181 10 439 8q15 0 15 -15t-15 -15q-288 0 -441 -10q-3 -19 -13 -19q-5 0 -8 3l-32 -91q-83 -231 -177 -554q-38 -126 -65 -239
q-1 -11 -1 -22v-5h9q174 2 327 -4q15 0 15 -13q0 -6 -4.5 -10.5t-10.5 -4.5q-81 4 -184 4q-51 1 -151 -4q-6 -45 -31 -45q-19 0 -20 14q-2 12 3 29l-235 -12q-77 -4 -192 -12q-6 0 -10.5 4.5t-4.5 10.5q-1 13 15 15l36 5q1 0 7 -2q27 2 76.5 4.5t64.5 3.5q34 2 118 8t133 8
q6 28 11 42l63 227q49 179 175 554q11 31 37 102q-22 -2 -28 -2z" />
    <glyph glyph-name="J" unicode="J" horiz-adv-x="857" 
d="M957 914l-147 -6q-175 -6 -407 -25l1 -1v-4q0 -17 -27 -17q-14 1 -29.5 10t-15.5 22q0 9 16 15q31 6 283 20q168 10 336 15q11 38 16 49q4 7 12 7t12.5 -6.5t4.5 -12.5v-1q-1 -1 -1 -2q-4 -11 -10 -33q251 7 533 7q15 0 15 -15q0 -6 -4.5 -10.5t-10.5 -4.5q-51 1 -153 1
q-207 0 -390 -7q-74 -227 -192 -496q-24 -53 -40.5 -88t-48.5 -93t-60 -97t-69.5 -85.5t-83 -74.5t-95.5 -47.5t-112 -20.5q-107 0 -171.5 74.5t-64.5 173.5q0 82 30.5 161t82.5 137q3 4 10 4q15 0 16 -15q0 -6 -3 -10q-106 -110 -106 -282q0 -90 57 -151.5t144 -61.5
q70 0 133.5 29t115.5 81.5t91.5 108.5t78.5 128q117 219 253 624z" />
    <glyph glyph-name="K" unicode="K" horiz-adv-x="862" 
d="M488 429q111 -206 205 -351q88 -134 162 -200q28 -26 64 -37h9q14 -1 15 -15q0 -15 -14 -15q-32 -1 -73 29q-51 38 -96.5 95.5t-99.5 139.5q-86 129 -203 349l-18 34q-230 -240 -365 -491q-5 -8 -14 -8q-5 0 -9.5 4.5t-4.5 9.5q0 3 16 46l238 621l106 276q-7 0 -11.5 6.5
t-4.5 14.5q0 11 6.5 18.5t16.5 7.5q11 0 18.5 -10t7.5 -22q0 -10 -6 -28l-105 -274l-192 -500q4 6 38 56q113 159 250 302q-5 13 -5 19q-1 7 4 12t12 5q8 0 16 -9q149 150 323 279q112 82 191 125q87 47 119 47q33 0 37 -27q0 -6 -4.5 -10.5t-10.5 -4.5q-12 0 -15 10
q-4 2 -9 2q-18 -1 -56 -19q-111 -52 -271 -175q-165 -128 -287 -253q9 -21 20 -59z" />
    <glyph glyph-name="L" unicode="L" horiz-adv-x="833" 
d="M369 901l41 81q3 7 12 7q15 0 15 -14q0 -2 -2 -8q-57 -115 -82 -162q-68 -132 -116 -240q-1 -3 -24 -54t-32 -72t-31 -72t-32.5 -83t-24.5 -74t-20 -74.5t-6 -58.5q0 -44 18.5 -74t52 -45t69.5 -20.5t83 -5.5q127 3 351 39q68 11 154 32q29 8 37 8q6 0 11 -4.5t5 -10.5
q0 -12 -11 -14l-40 -9q-62 -15 -153 -30q-256 -41 -378 -41q-46 0 -84.5 9t-72 28.5t-52.5 55.5t-19 86q0 129 169 489q37 80 115 240q2 7 47 91z" />
    <glyph glyph-name="M" unicode="M" horiz-adv-x="1328" 
d="M32 7q-4 -7 -13 -7q-15 0 -15 14l2 8l31 62q38 77 147 265q175 293 320 463q29 33 43.5 49t43.5 43.5t54.5 40.5t48.5 13q18 0 29 -9t15.5 -26.5t5.5 -29.5t1 -31q0 -57 -25 -221q-9 -54 -35.5 -202.5t-37.5 -230.5l132 191q173 251 279 385q157 199 231 199q56 0 56 -99
q0 -33 -4.5 -77.5t-14.5 -105t-18 -105.5t-23.5 -124.5t-22.5 -117.5q-1 -6 -9.5 -51t-10.5 -57t-8.5 -50t-8.5 -56.5t-6 -49.5t-5 -57t-1 -52q0 -38 17 -50q2 2 7 2q7 0 11.5 -5t4.5 -11q0 -7 -8 -11.5t-15 -4.5q-46 0 -46 88q0 60 15.5 160t44 250t40.5 221q30 176 30 268
q0 66 -24 66q-23 0 -63 -34q-62 -49 -142 -152q-70 -87 -143 -189t-159.5 -228t-134.5 -193q-6 -7 -13 -7q-18 0 -18 40q0 28 11 98q10 66 34.5 197t34.5 198q18 128 18 189q0 55 -21 55q-27 0 -67.5 -32.5t-68.5 -65t-61 -73.5q-7 -9 -10 -13q-74 -91 -157 -220
q-168 -253 -298 -517z" />
    <glyph glyph-name="N" unicode="N" horiz-adv-x="1014" 
d="M58 -80q0 -10 -12 -10q-13 0 -16 14q-2 24 60 230q52 171 182 471t164 300q20 0 24 -24q24 -224 97 -491q46 -172 101 -300q58 -125 96 -125q71 0 154 256q4 11 6 17q44 141 142 452q65 191 104 256q1 1 3.5 5t3.5 5.5t4 5.5t4.5 5.5t4.5 5t5 5t5.5 3.5t6.5 3l6 2t7 1
q18 0 22 -16q0 -15 -15 -15h-4q-8 0 -22 -18q-41 -58 -112 -275q-32 -101 -57.5 -181.5t-38 -120t-21.5 -67.5t-13 -39.5t-6 -19.5q-1 -5 -9 -30t-12.5 -39t-14 -41.5t-17.5 -45t-19.5 -42t-23.5 -40t-26 -30.5t-29.5 -22t-31.5 -7q-63 0 -121 131q-61 125 -112 323
q-67 242 -94 474q-53 -78 -154.5 -323t-157.5 -416q-49 -155 -63 -227z" />
    <glyph glyph-name="O" unicode="O" horiz-adv-x="995" 
d="M750 961q108 0 193.5 -62t115.5 -163q10 -29 15 -77q16 -184 -105 -377q-32 -50 -74 -99.5t-100 -100.5t-121 -89.5t-140.5 -63.5t-155.5 -26q-140 2 -225 83t-95 194q-10 122 45.5 261.5t150.5 253.5t228.5 190t267.5 76zM1030 728q-25 88 -101 147.5t-176 59.5
q-117 0 -241.5 -68t-220.5 -174t-154 -245t-49 -270q15 -108 91.5 -177t194.5 -69q161 0 318.5 110.5t251.5 256.5q114 174 99 356q-3 39 -13 73z" />
    <glyph glyph-name="P" unicode="P" horiz-adv-x="867" 
d="M136 862q-1 -1 -5 -1q-6 0 -10.5 4.5t-4.5 10.5q0 10 12 15q158 53 324 66q10 23 13 28q4 7 13 7q15 0 15 -14q0 -10 -5 -18q46 2 71 2q230 0 361 -87q108 -75 108 -198q0 -67 -34 -129t-91 -108.5t-128 -82t-148 -54t-148 -18.5q-23 0 -46 2.5t-51 9t-45 21t-17 35.5
q0 24 20 26h5q7 -3 12 -21q0 -1 0.5 -6t1.5 -7t3.5 -6t9 -7t15.5 -6q31 -11 99 -11q136 0 270 67q101 50 171.5 125t70.5 168q0 105 -92 173q-122 84 -349 84q-42 0 -84 -3q-27 -61 -61 -151q-116 -295 -229 -720q-22 -77 -36 -158q0 -12 -14 -12q-13 0 -15 17q0 4 1.5 9.5
t1.5 7.5q11 70 39 168q72 268 152 501q80 231 126 336q-169 -18 -302 -65z" />
    <glyph glyph-name="Q" unicode="Q" horiz-adv-x="1018" 
d="M638 373q0 15 15 15q16 0 16 -30q17 -155 51 -305q154 107 251.5 272t97.5 337q0 121 -79 196.5t-204 75.5q-92 0 -208.5 -54t-158.5 -136v-2q0 -1 1 -4.5t1 -5.5q0 -16 -19 -16t-19 22q0 36 54 82q70 63 163 103t187 40q132 0 222.5 -82.5t90.5 -219.5
q0 -176 -104.5 -353t-268.5 -287q50 -201 103 -321q36 -75 66 -78q5 5 12 5q15 0 15 -14q0 -10 -9 -15.5t-19 -5.5q-46 0 -94 101q-47 102 -100 311q-163 -101 -329 -101q-77 0 -136 25t-94.5 68.5t-53.5 98t-18 117.5q0 106 41 207t116 218q6 9 16 9q13 0 13 -19
q0 -2 -2 -4q-72 -109 -112.5 -207t-40.5 -201q0 -119 68.5 -201t197.5 -82q162 0 327 104q-44 180 -56 337z" />
    <glyph glyph-name="R" unicode="R" horiz-adv-x="908" 
d="M420 969l19 32q4 6 13 6q15 0 15 -13q0 -2 -3 -7l-8 -16q173 10 318 -41q85 -30 146.5 -86t61.5 -136q0 -51 -29 -97.5t-78.5 -81t-105.5 -62.5t-120 -48t-112.5 -32t-91.5 -20q25 -50 63 -107t71 -100t97 -124q10 -11 25 -32q65 -81 101.5 -121.5t74.5 -67.5v1
q20 -20 37 -20q13 0 13 -13q0 -14 -21 -14q-30 4 -56 29q-32 24 -67.5 62t-58.5 67.5t-60 78.5q-55 72 -78 99q-78 97 -158 231l-4 6q-17 26 -17 37q0 13 15 15q43 5 103.5 20t136.5 42.5t139 62t106.5 84t43.5 103.5q0 70 -53.5 119.5t-129.5 77.5q-148 55 -330 42l-27 -53
q-47 -96 -139 -330q-54 -137 -96 -268q-88 -283 -96 -350q8 -6 9 -12q0 -8 -5.5 -14t-14.5 -6t-14.5 6.5t-5.5 15.5q-2 42 96 364q106 303 183 483q6 14 75 160q-101 -11 -212 -43q-75 -27 -92 -47q-3 -9 -13 -9q-6 0 -10.5 5t-4.5 10q0 18 24.5 31.5t67.5 27.5q3 1 5 1.5
t4 1.5q42 15 80 23q87 21 168 27z" />
    <glyph glyph-name="S" unicode="S" horiz-adv-x="961" 
d="M1010 907q25 -22 25 -39q0 -15 -14 -15q-9 -2 -14 6q-46 96 -219 79q-62 -4 -133 -32.5t-126 -81.5t-55 -112q0 -27 16.5 -53.5t47 -51.5t58.5 -43.5t67.5 -43t57.5 -36.5q44 -29 68 -47.5t59 -52t52 -70.5t17 -78q0 -43 -25 -90q-60 -111 -223 -186.5t-326 -86.5
q-108 -8 -201 17q-115 32 -115 66q0 11 6 20t17 10h6t5.5 -2t4.5 -3.5t4 -5t3.5 -5.5t3 -6t2 -6t2 -6.5t1.5 -5.5q91 -51 262 -41q140 11 261 61q51 21 96.5 46.5t88.5 59.5t68 76t25 87q0 23 -7.5 45.5t-17.5 40t-30.5 39t-34 34.5t-42.5 34t-42 30t-45.5 29.5t-41.5 26.5
q-2 2 -21.5 14.5t-24.5 16t-23 16t-24.5 18t-21.5 18.5t-21.5 21t-16.5 21t-14.5 24t-8 24t-3.5 26q0 63 54 121t132.5 92.5t155.5 40.5q154 12 225 -60z" />
    <glyph glyph-name="T" unicode="T" horiz-adv-x="641" 
d="M637 919l-131 -6q-220 -12 -399 -26q3 -16 -10 -20q-17 -6 -34 0.5t-25 22.5q-5 8 -1 14.5t13 7.5q136 12 276 21q136 9 454 19q257 6 490 2q14 0 14 -15t-14 -15q-184 2 -276 2q-190 -2 -341 -7q8 -5 8 -12q-20 -53 -41.5 -119.5t-32.5 -96.5q-97 -290 -181 -567
q-16 -50 -26 -88q8 -8 5 -15q-5 -11 -16 -42.5t-18 -45.5q-6 -14 -19 -10q-15 6 -10 18q1 7 63 214q158 498 181 568l65 188q2 5 6 8z" />
    <glyph glyph-name="U" unicode="U" horiz-adv-x="865" 
d="M259 917q1 2 3 8.5t4 10.5t6 7.5t9 3.5q16 0 16 -15q0 -2 -7 -18q-31 -78 -55 -154q-22 -69 -58 -209q-46 -182 -42 -324q6 -253 182 -262q119 -6 239 98q39 36 63 60t63 71t77 104q106 160 213 437q58 154 73 222q3 10 14 10q15 -1 15 -16q0 -4 -11 -46
q-18 -65 -88 -247q-96 -235 -193 -380q-99 -150 -210 -241q-137 -110 -256 -104q-204 9 -211 298q-3 123 42 320q53 222 112 366z" />
    <glyph glyph-name="V" unicode="V" horiz-adv-x="724" 
d="M177 886q1 10 14 10q15 0 15 -15q0 -7 -6 -49q-2 -19 -3.5 -40.5t-3 -48t-2.5 -40.5q-6 -120 -6 -246q0 -208 18 -334q1 -4 3 -17.5t3.5 -21.5t4 -22.5t5 -23.5t5.5 -21.5t6.5 -20t7.5 -15t9 -11t10 -3.5q14 0 48.5 35.5t59.5 68.5q49 61 101 129.5t119.5 158
t104.5 138.5q25 32 133.5 176.5t156.5 206.5q28 36 82 95q2 2 5.5 6t6 6t6.5 5.5t7 5t7 3t8 1.5q10 0 16.5 -6.5t6.5 -16.5q0 -11 -7 -18.5t-16 -7.5q-8 0 -14 6q-33 -36 -60 -69q-86 -104 -333 -439q-144 -195 -304 -394q-36 -47 -74.5 -84t-59.5 -37q-53 0 -76 137
q-26 155 -26 379q0 266 22 434z" />
    <glyph glyph-name="W" unicode="W" horiz-adv-x="1300" 
d="M325 925l-15 -39q-96 -257 -140 -428q-68 -258 -68 -403q0 -120 43 -120q19 0 40.5 12t33 22.5t33.5 32.5q62 62 155 192q52 72 104.5 152t119.5 187t99 156q31 54 51 54q15 0 15 -18q-6 -26 -14 -89q-28 -203 -28 -365q0 -39 1.5 -76.5t8 -86.5t17 -85t29.5 -61.5
t45 -25.5q30 0 62.5 20t50.5 39t47 53q163 190 358 602q70 152 97 232q17 54 18 80q-15 0 -15 16q0 15 18 15q27 0 27 -37q0 -31 -21 -86q-46 -131 -114 -270q-90 -186 -170 -324t-179 -253q-99 -117 -177 -117q-134 0 -134 365q0 205 34 405q-19 -30 -105 -165t-133 -208
q-50 -76 -79.5 -118.5t-78 -103.5t-94.5 -106q-70 -70 -117 -70q-79 0 -79 153q0 55 16 161q45 275 176 629q-10 4 -10 13q0 3 3 8l41 64q4 7 12 7q6 0 11 -4.5t5 -10.5z" />
    <glyph glyph-name="X" unicode="X" horiz-adv-x="901" 
d="M1164 966q1 1 7 1q15 0 15 -15q0 -9 -7 -12q-134 -71 -324 -223q-98 -79 -245 -205l-71 -62q66 -171 152 -345q58 -120 122 -216h1q6 2 7 2q8 0 16 -11.5t8 -20.5t-7.5 -16t-15.5 -7q-12 0 -75.5 108.5t-77.5 137.5q-89 174 -154 347q-72 -64 -117 -105q-14 -12 -80 -74
t-125.5 -118t-62.5 -59l-83 -81q-5 -5 -10 -5q-6 0 -10.5 4.5t-4.5 11.5q0 36 52 70q32 20 34 20q202 193 264 248l132 117q-50 136 -100 301q-15 46 -23 78q-1 2 -8 15t-9.5 18t-5.5 15t-3 18q0 24 16 24q10 0 17.5 -9.5t10 -20t6 -27.5t5.5 -23l23 -83q43 -149 95 -285
q58 53 93 82l101 85q32 27 142 116q6 5 31 24t33.5 25t31 23t34 25t32 22.5t35 23.5t33 21t36 21.5t34.5 18.5z" />
    <glyph glyph-name="Y" unicode="Y" horiz-adv-x="900" 
d="M330 935q4 7 12 7q6 0 11 -4t5 -10l-2 -8l-33 -56q-63 -108 -125 -235q-30 -62 -47.5 -101t-34 -96t-16.5 -102q0 -71 34 -104.5t91 -33.5q76 0 184 72.5t227 193.5q114 116 223.5 252t171.5 233q4 7 13 7q16 0 16 -14q0 -4 -2 -9t-5 -11t-4 -9q-136 -335 -231.5 -614
t-151.5 -549q0 -2 -1.5 -19t-1.5 -25q0 -63 -31 -63q-14 0 -15 16q-3 18 19 95q93 432 310 981l46 114q-36 -59 -133.5 -180t-205.5 -229q-119 -121 -231 -196.5t-198 -75.5q-42 0 -73 14.5t-48 39.5t-25 53.5t-8 60.5q0 114 128 365q53 107 132 240z" />
    <glyph glyph-name="Z" unicode="Z" horiz-adv-x="1043" 
d="M385 837q-1 -1 -4 -1q-14 0 -14 16q0 11 10 14q296 79 610 79q184 0 184 -66q0 -16 -11 -35t-19 -27.5t-26 -26.5q-104 -108 -449 -345q-42 -30 -152 -105.5t-185 -130t-143 -112.5q-6 -5 -28.5 -24.5t-32 -28t-26 -25.5t-28 -33t-20.5 -33q156 21 357 41q225 21 416 21
q115 0 196 -10q15 -2 15 -15q0 -6 -4.5 -10.5t-10.5 -4.5q-99 10 -189 10q-206 0 -422 -23q-257 -28 -321 -38q-34 -6 -55 -6q-18 0 -18 21q0 25 27 60.5t49.5 56.5t64.5 57q72 61 151.5 119t185 130.5t158.5 110.5q20 14 79.5 54.5t87.5 60.5t75 54t86 66t77 66
q66 60 79 86q6 12 6 21q0 34 -165 34q-112 0 -272 -17.5t-319 -60.5z" />
    <glyph glyph-name="bracketleft" unicode="[" horiz-adv-x="432" 
d="M383 957q3 8 13 8q8 0 13.5 -7.5t1.5 -15.5l-14 -31q-109 -268 -268 -861q-39 -127 -36 -171q1 -23 12.5 -34.5t24 -14t35.5 -2.5q132 0 197 15q2 1 19.5 9t31.5 8q8 0 17 -5t9 -15q0 -8 -7 -13.5t-21 -8.5t-27 -4.5t-33.5 -3.5t-33.5 -4q-51 -8 -138 -8q-55 0 -85 17
t-32 66q0 40 36 185q57 206 86 307t87.5 279t111.5 305zM376 984q-7 0 -11.5 4.5t-4.5 10.5q0 13 14 15q139 20 313 20q14 0 16 -15q0 -6 -4.5 -10.5t-9.5 -4.5q-174 0 -313 -20z" />
    <glyph glyph-name="backslash" unicode="\" horiz-adv-x="525" 
d="M387 -4q-54 215 -77.5 316t-54.5 255.5t-55 319.5q-7 27 -5 34q6 15 20 10q8 -5 9 -13q71 -441 192 -917q1 -3 0 -7q-6 -15 -20 -10q-8 4 -9 12z" />
    <glyph glyph-name="bracketright" unicode="]" horiz-adv-x="428" 
d="M43 -167q52 4 114 4q15 23 96 284.5t152 511.5q91 325 91 344q0 27 -65 27q-74 0 -176 -15q-31 -5 -52 -8q-3 0 -4 -1h-1q-16 0 -16 17q0 7 4 10t15.5 4.5t12.5 1.5q124 21 217 21q92 0 96 -68q0 -7 -5 -28.5t-15.5 -58.5t-21 -73.5t-27.5 -95t-29 -102.5
q-70 -250 -152 -513.5t-94 -275.5q-2 -2 -4.5 -5.5t-4.5 -5t-5 -1.5q-71 0 -131 -4q-128 -9 -161 -13q-1 0 -6.5 -1.5t-9.5 -1.5q-16 0 -16 17q-2 12 8 13q27 6 190 16z" />
    <glyph glyph-name="underscore" unicode="_" horiz-adv-x="780" 
d="M37 21l36 5q1 0 7 -2q93 8 284 10q174 2 327 -4q15 0 15 -13q0 -6 -4.5 -10.5t-10.5 -4.5q-81 4 -184 4q-118 0 -298 -5q-95 -4 -172 -10q-6 0 -10.5 4.5t-4.5 10.5q-1 13 15 15z" />
    <glyph glyph-name="grave" unicode="`" horiz-adv-x="317" 
d="M102 734q-9 12 3 21q11 7 21 -3q16 -22 47 -46q75 -60 156 -75q9 -2 19 -3.5t22 -3t19 -2.5q15 -2 13 -17q-2 -13 -17 -13q-44 6 -68 11q-128 31 -215 131z" />
    <glyph glyph-name="a" unicode="a" horiz-adv-x="561" 
d="M510 446q9 -11 9 -21q0 -15 -14 -15q-13 0 -17 15q-14 20 -49 20q-76 0 -180 -82q-69 -51 -140 -136t-71 -150q0 -44 42 -46q77 3 188 96q95 78 218 228l8 12q4 7 13 7q15 0 15 -14q0 -6 -6 -16q-65 -176 -91 -312q0 -1 -1.5 -16t-5.5 -22t-13 -7q-15 0 -15 15
q0 51 11 62q23 109 59 212l-11 -13q-112 -124 -204 -192q-90 -70 -165 -70q-31 0 -51.5 21.5t-20.5 52.5q0 76 67.5 161t155.5 150q125 89 194 89q49 0 75 -29z" />
    <glyph glyph-name="b" unicode="b" horiz-adv-x="540" 
d="M310 913l2.5 5l2.5 5t2.5 4.5t4 3.5t5.5 1q16 0 17 -15v-1q-1 -1 -3 -6t-5 -13q-45 -116 -124 -365l-64 -201l-33 -106q34 43 73 82q168 168 287 168q42 0 69.5 -28t27.5 -70q0 -49 -30 -100q-23 -38 -59.5 -80t-86.5 -86.5t-114 -73.5t-125 -29q-20 0 -41 7t-21 21
q0 15 13 15q8 0 25.5 -5.5t29.5 -5.5q53 0 117.5 33.5t117.5 80.5q58 49 101 111.5t43 114.5q0 31 -18.5 47.5t-49.5 16.5q-104 0 -258 -154q-68 -65 -130 -166l-2 -2l-27 -88q6 -6 6 -13q0 -8 -5.5 -13.5t-12.5 -5.5q-9 0 -15 6t-6 15q0 8 4 17q15 56 42 139
q17 55 55 177.5t59 188.5q72 229 126 368z" />
    <glyph glyph-name="c" unicode="c" horiz-adv-x="491" 
d="M467 443q0 -8 -5.5 -15.5t-14.5 -7.5q-6 0 -10 5t-4 11q0 1 2 7q-5 5 -18 5q-46 0 -110 -40q-54 -32 -108 -77t-101 -111t-47 -124q0 -35 28.5 -50.5t65.5 -15.5q128 0 307 130q6 2 7 2q6 0 10.5 -5t4.5 -10q0 -9 -7 -13l-24 -17q-169 -117 -302 -117q-55 0 -87.5 27
t-32.5 74q0 81 82 175.5t191 157.5q78 44 124 44q19 0 34 -8.5t15 -26.5z" />
    <glyph glyph-name="d" unicode="d" horiz-adv-x="575" 
d="M691 936q3 10 14 10q6 0 11 -4t5 -10l-10 -27q-12 -31 -73 -206l-67 -197v-2l-1 -2v-2l-5 -11q-70 -214 -102 -378q-9 -43 -9 -71q0 -4 4 -8.5t4 -10.5q0 -9 -5.5 -15.5t-13.5 -6.5q-20 0 -20 35q0 26 10 76q11 57 41 169l22 79q-81 -133 -190 -232q-133 -122 -220 -122
q-32 0 -52.5 20t-20.5 51q0 50 36.5 117t84.5 120q148 167 264 167q74 0 101 -66q18 34 26 51l8 20q70 227 158 456zM196 73q169 113 286 306q-7 3 -8 10q-6 27 -26 43t-48 16q-61 0 -132.5 -55t-136.5 -135q-33 -41 -60.5 -93t-27.5 -92q0 -44 43 -44t110 44z" />
    <glyph glyph-name="e" unicode="e" horiz-adv-x="495" 
d="M46 89q0 -30 23.5 -47.5t55.5 -17.5q76 0 157.5 37t143.5 93q4 4 10 4q16 0 16 -15q0 -7 -4 -10q-71 -61 -157 -100t-168 -39q-43 0 -75 26t-32 68q0 45 19 91q25 60 76 123t115 107q96 67 182 67q34 0 60 -15t26 -49q0 -33 -36 -69q-55 -55 -157 -91t-192 -36
q-15 0 -22 1q-41 -76 -41 -128zM207 257q55 11 97 28q36 14 67.5 29.5t62 43t30.5 53.5q0 36 -51 36q-77 0 -165.5 -60.5t-141.5 -140.5q46 0 101 11z" />
    <glyph glyph-name="f" unicode="f" horiz-adv-x="381" 
d="M642 942l2 -6q0 -5 -5 -10.5t-11 -6.5q-4 0 -8 3q-24 21 -56 21q-111 0 -206 -157q-41 -68 -92 -194q-8 -19 -22 -57q68 4 163 4q78 0 101 -2q14 -1 15 -15q0 -6 -4.5 -10.5t-9.5 -4.5q-21 0 -62 1t-62 1q-68 0 -153 -5q-31 -87 -73 -228q-61 -206 -101 -361
q-73 -297 -80 -366q7 -4 7 -17q0 -9 -6.5 -15.5t-14.5 -6.5q-18 0 -18 22q35 271 188 767q31 101 66 203q-99 -7 -142 -17q-1 0 -4 -1q-6 0 -11 4t-5 10q0 13 12 16q67 13 160 19q22 63 42.5 113t54.5 114.5t70 107.5t85.5 73t103.5 30q53 0 76 -29z" />
    <glyph glyph-name="g" unicode="g" horiz-adv-x="592" 
d="M496 433l2 -8q0 -15 -14 -15q-9 0 -14 8q-15 29 -53 29q-72 0 -158 -67.5t-146 -154.5q-65 -92 -65 -155q0 -38 41 -40q38 -1 87 28q96 56 193.5 163.5t157.5 225.5q3 7 12 7q15 0 15 -15v-4l-6 -39q-21 -123 -37 -202.5t-45.5 -190t-72 -204t-99.5 -174.5
q-172 -241 -353 -241q-83 0 -142 50.5t-59 129.5q0 23 9 52t24 29q6 0 11 -5t5 -10q0 -1 -2 -7q-17 -29 -17 -62q0 -69 52.5 -108t118.5 -39q132 0 266 150q69 77 122 172.5t87.5 205.5t55 203t40.5 216q-117 -174 -251 -281q-96 -80 -172 -80q-36 0 -53.5 20.5t-17.5 50.5
q0 81 67.5 171t152.5 156q93 79 176 79q59 0 82 -44z" />
    <glyph glyph-name="h" unicode="h" horiz-adv-x="570" 
d="M306 922q4 10 15 10q6 0 11 -4t4 -10q0 -2 -7 -21q-74 -197 -191 -592q-35 -115 -57 -201q52 82 116 158q26 32 54.5 62.5t70 69t84 62t76.5 23.5q28 0 45 -15.5t18 -42.5q1 -18 -11 -74q-2 -11 -39 -157q-31 -118 -31 -172q0 -12 1 -15q8 -5 8 -14q0 -15 -15 -15
q-24 0 -24 47q0 28 6 54q7 47 29 137q5 19 18 65.5t20.5 80.5t7.5 61q0 30 -32 30q-54 0 -132.5 -68.5t-129.5 -134.5q-100 -120 -160 -233q5 -5 5 -12q0 -8 -6 -14t-14 -6q-19 0 -19 23q1 11 10 46q35 135 71 261q121 410 198 611z" />
    <glyph glyph-name="i" unicode="i" horiz-adv-x="228" 
d="M174 444q4 7 13 7q14 0 14 -13q0 -7 -1 -9q-58 -165 -91 -302q-18 -62 -24 -120q-2 -15 -16 -15t-14 15q1 21 9 59q39 198 110 378zM200 610q0 14 17 19q10 2 19 2q22 0 22 -17q0 -11 -18 -22q-14 -8 -20 -8q-8 0 -14 8t-6 18z" />
    <glyph glyph-name="j" unicode="j" horiz-adv-x="275" 
d="M228 463q5 11 15 11q15 0 15 -14l-1 -4q-1 -4 -8.5 -32t-18.5 -74l-34 -131q-87 -324 -189 -504q-31 -55 -67 -103.5t-85.5 -98.5t-111 -79.5t-126.5 -29.5q-79 0 -141.5 48t-62.5 130q0 25 9.5 54.5t24.5 29.5q6 0 10.5 -5t4.5 -11q0 -1 -2 -7q-17 -31 -17 -59
q0 -68 51 -109t121 -41q59 0 116.5 28.5t105.5 77t85 98.5t68 106q57 102 97 217t80 264q23 88 23 89q2 9 5.5 24t4.5 18q4 14 14 50.5t14 56.5zM273 633q0 16 17 19q14 2 19 2q22 0 22 -17q0 -12 -18 -22q-13 -8 -20 -8q-8 0 -14 8t-6 18z" />
    <glyph glyph-name="k" unicode="k" horiz-adv-x="551" 
d="M303 922q3 10 14 10q16 0 16 -14q0 -2 -7 -21q-114 -325 -225 -748q46 78 111.5 153.5t137.5 131.5q86 70 146 70q30 0 49 -20t17 -50q-3 -62 -102 -135q-96 -66 -160 -87l28 -24q96 -83 188 -199q3 -4 3 -11q0 -6 -4.5 -10.5t-10.5 -4.5q-7 0 -10 5q-119 145 -236 239
q-7 4 -7 14q0 13 16 14q53 0 148 68q1 1 14 10.5t18 13t18.5 14t20 17t16.5 17.5t15.5 19.5t9.5 19t5 20.5q2 40 -36 40q-30 0 -54 -14q-129 -68 -272 -262q-74 -106 -98 -170l-1 -5l-2 -8q7 -4 7 -14q0 -9 -6 -14.5t-14 -5.5q-18 0 -18 22q0 6 2 20l6 27q9 44 17 71
q107 418 240 801z" />
    <glyph glyph-name="l" unicode="l" horiz-adv-x="237" 
d="M327 922q4 13 18 10q6 -1 9.5 -7t1.5 -11l-9 -23q-37 -96 -66 -179q-82 -243 -141 -455q-31 -115 -41 -164q-10 -53 -9 -77q8 -8 8 -10q3 -10 -6 -19t-20 -4q-10 4 -12 19q-5 30 9 90q12 60 41 169q50 184 140 448q36 104 77 213z" />
    <glyph glyph-name="m" unicode="m" horiz-adv-x="833" 
d="M787 408q0 30 -21 30q-36 0 -95 -46q-177 -140 -289 -376q-3 -7 -13 -7q-7 0 -11.5 4.5t-4.5 10.5l1 1v3l5 15q6 20 15.5 59t15.5 58q37 146 37 204q0 62 -27 62q-55 0 -164.5 -120.5t-143.5 -184.5q-16 -24 -71 -121q-4 -7 -13 -7q-15 0 -15 14q0 11 3.5 24t10 29
t8.5 23q68 213 132 361q3 7 13 7q15 0 15 -14q0 -2 -2 -8q-29 -63 -103 -275l-9 -26q104 158 206 251q80 75 138 75q52 0 52 -80q0 -55 -25 -168l-14 -60q68 111 157 200q122 122 191 122q21 0 35.5 -15t14.5 -41q0 -12 -10 -65q-2 -11 -39 -157q-31 -118 -31 -172
q0 -12 1 -15q8 -5 8 -14q0 -15 -15 -15q-24 0 -24 47q0 28 6 54q7 47 29 137q5 23 18.5 72t19.5 74q8 38 8 50z" />
    <glyph glyph-name="n" unicode="n" horiz-adv-x="555" 
d="M360 405q-54 -41 -111 -105q-107 -118 -194 -269q-3 -5 -7 -12.5t-6 -11t-4.5 -7.5t-5.5 -5.5t-7 -1.5q-6 0 -10.5 4t-4.5 10q0 14 22 76q48 155 133 361q3 7 12 7q15 0 15 -14q0 -2 -2 -8q-45 -108 -103 -275l-10 -29q76 111 153 197q143 157 230 157q28 0 45 -15.5
t18 -42.5q1 -18 -11 -74q-2 -11 -39 -157q-31 -118 -31 -172q0 -12 1 -15q8 -5 8 -14q0 -15 -15 -15q-24 0 -24 47q0 28 6 54q7 47 29 137q5 19 18 65.5t20.5 80.5t7.5 61q0 30 -32 30q-42 0 -101 -44z" />
    <glyph glyph-name="o" unicode="o" horiz-adv-x="488" 
d="M23 117q1 78 55 154q56 81 138.5 142t167.5 61q54 0 84 -32t30 -81q0 -71 -45 -142.5t-113 -127.5q-112 -90 -198 -90q-57 0 -88 34t-31 82zM53 116q0 -35 24 -60.5t61 -25.5q76 0 182 82q56 45 102 114t46 135q0 38 -23 60.5t-59 22.5q-89 0 -188 -84
q-54 -46 -99.5 -110.5t-45.5 -133.5z" />
    <glyph glyph-name="p" unicode="p" horiz-adv-x="573" 
d="M193 475q8 14 19 11q16 -7 10 -19l-9 -23q-51 -131 -82 -230q37 46 83 93q168 168 287 168q42 0 69.5 -28t27.5 -70q0 -49 -30 -100q-23 -38 -59.5 -80t-86.5 -86.5t-114 -73.5t-125 -29q-20 0 -41 7t-21 21q0 15 13 15q8 0 25.5 -5.5t29.5 -5.5q53 0 117.5 33.5
t117.5 80.5q58 49 101 111.5t43 114.5q0 31 -18.5 47.5t-49.5 16.5q-104 0 -258 -154q-64 -62 -139 -166q-66 -216 -117 -438q-28 -127 -40 -201q-4 -30 -6 -62q0 -21 3 -24q7 -10 -2 -19q-12 -12 -21 0q-11 11 -9 53q5 69 26 170q41 197 94 379q58 206 122 389
q30 80 40 104z" />
    <glyph glyph-name="q" unicode="q" horiz-adv-x="530" 
d="M516 344l-13 -27q-16 -40 -71 -203q-75 -224 -128 -463q-37 -162 -40 -229q0 -7 2 -16.5t2 -14.5q0 -7 -4 -11q-13 -9 -22 0q-8 7 -8 48q0 65 45 251q64 263 132 468q26 80 41 120q-114 -127 -207 -196q-90 -70 -165 -70q-31 0 -51.5 21.5t-20.5 52.5q0 76 67.5 161
t155.5 150q125 89 194 89q49 0 75 -29q9 -11 9 -21q0 -15 -14 -15q-13 0 -17 15q-14 20 -49 20q-76 0 -180 -82q-69 -51 -140 -136t-71 -150q0 -44 42 -46q77 3 188 96q102 87 173 171q13 15 53 69q4 7 13 7q15 0 15 -14q0 -6 -6 -16z" />
    <glyph glyph-name="r" unicode="r" horiz-adv-x="459" 
d="M107 279l26 76q-4 25 1 43q3 15 14.5 29t27.5 13q7 -1 12 -7t3 -12q-5 -14 -15.5 -40t-15.5 -40q-4 -12 -18.5 -49.5t-20.5 -57.5q24 30 70 81q60 65 135.5 119t137.5 54q56 0 74 -45q10 -24 2 -55q-6 -15 -18 -10q-16 6 -11 18q3 13 2 23q-2 17 -14 28.5t-29 11.5
q-57 0 -129 -51t-132 -115q-51 -54 -112 -137q-24 -80 -39 -153q-6 -15 -19 -10q-15 6 -10 18q12 52 24 97q16 59 54 171z" />
    <glyph glyph-name="s" unicode="s" horiz-adv-x="410" 
d="M379 435q-9 0 -27.5 2t-30.5 2q-153 -27 -153 -88q0 -10 6.5 -20.5t12.5 -16.5t19.5 -16.5t17.5 -13.5q10 -9 37.5 -30.5t44 -35.5t31 -36.5t14.5 -44.5q0 -39 -34 -69t-87 -46t-106 -24t-100 -8q-94 0 -94 26q0 15 15 15q1 0 2 -0.5t3 -0.5q33 -11 77 -11q69 0 142 17
q57 12 101.5 37.5t44.5 61.5q0 11 -3 21.5t-11 21t-14 18t-19 18t-19 15.5t-21 16t-19 14q-23 17 -34 26.5t-24 29t-13 39.5q0 71 145 107q58 13 91 13q38 0 43 -10q2 -3 2 -7q0 -22 -40 -22z" />
    <glyph glyph-name="t" unicode="t" horiz-adv-x="271" 
d="M472 712q-92 -2 -183 -6q-70 -205 -139 -449q-31 -115 -41 -164q-10 -53 -9 -77q8 -8 8 -10q3 -10 -6 -19t-20 -4q-10 4 -12 19q-5 30 9 90q12 60 41 169q50 185 138 443q-104 -7 -228 -24l-3 -3q-9 -10 -21 -8t-20 13q-11 14 -2 21q16 12 284 29q52 144 69 190
q4 13 18 10q6 -1 9.5 -7t1.5 -11l-9 -23q-41 -105 -59 -158q79 4 170 7q186 5 366 -6q15 -2 15 -13q0 -6 -4 -10.5t-10 -3.5q-175 9 -363 5z" />
    <glyph glyph-name="u" unicode="u" horiz-adv-x="547" 
d="M121 270q-19 -44 -28 -66t-19.5 -60.5t-10.5 -70.5q0 -40 40 -40q53 0 142 82q102 93 259 328q12 21 21 21q16 0 16 -14q0 -1 -2 -7q-90 -236 -111 -416q-1 -3 -1 -14t-3 -16t-12 -5q-6 0 -10.5 4.5t-4.5 10.5q0 21 6 59q17 118 68 276q-120 -170 -199 -244
q-29 -27 -51 -44.5t-56.5 -34t-65.5 -16.5q-29 0 -47.5 20t-18.5 55q0 89 76 235q30 65 46 90q2 13 7 27.5t16.5 29t25.5 14.5q15 0 15 -15q0 -1 -2 -7l-11 -19q-55 -95 -85 -163z" />
    <glyph glyph-name="v" unicode="v" horiz-adv-x="480" 
d="M102 438q3 11 16 11q6 0 10.5 -5.5t2.5 -13.5q-38 -146 -38 -290q0 -37 7 -73.5t21 -36.5q11 0 38 19.5t44 36.5q57 58 156 180q41 51 105 139l65 91q5 8 14 8q14 0 14 -15q0 -6 -2 -8q-135 -186 -169 -227q-125 -153 -165 -190q-64 -64 -101 -64q-57 0 -57 148
q0 112 39 290z" />
    <glyph glyph-name="w" unicode="w" horiz-adv-x="794" 
d="M144 455q3 7 12 7q15 0 15 -15q0 -6 -1 -7l-11 -21q-40 -82 -67 -190q-21 -76 -21 -130q0 -76 31 -76q38 0 107 76q85 94 185 267q2 3 9 16.5t11 21t10.5 17.5t11.5 15t9 5q6 0 11 -4t5 -10q0 -9 -6.5 -27t-7.5 -23q-39 -154 -39 -238q0 -45 14.5 -83t46.5 -38
q33 0 91 48q75 63 159 192q73 114 100 208q3 10 14 10q15 0 15 -15q0 -5 -6 -25q-30 -98 -118 -224q-89 -129 -169 -188q-45 -36 -89 -36t-66 43t-22 100q0 87 22 185q-84 -145 -171 -239q-26 -26 -39.5 -38.5t-40 -29t-47.5 -16.5q-62 0 -62 96q0 69 28 168q28 103 76 198z
" />
    <glyph glyph-name="x" unicode="x" horiz-adv-x="562" 
d="M129 123q-50 -47 -89 -90q1 -5 1 -14q0 -36 -31 -36q-27 0 -27 17q0 5 1.5 10t6 11t7 9t9 10t7.5 9q50 57 112 113q65 60 148 123q-3 5 -5 13q-24 59 -35 110q-7 0 -11.5 9t-4.5 17q0 10 8.5 24t19.5 14q7 0 11.5 -4.5t4.5 -10.5v-1v-1.5t-0.5 -4t-0.5 -6.5v-10
q9 -62 35 -131q94 70 142 103q59 40 70 47q27 19 74 42q17 10 22 10q7 0 12 -4.5t5 -10.5q0 -9 -7 -12q-78 -35 -180 -111l-126 -93q26 -61 66 -128q5 -9 16 -26.5t17.5 -28t17 -24t21.5 -23.5q6 -5 17 -10t17.5 -9t6.5 -11q0 -6 -4.5 -11t-11.5 -5q-32 1 -66 46
q-65 82 -120 212q-94 -74 -156 -133z" />
    <glyph glyph-name="y" unicode="y" horiz-adv-x="550" 
d="M515 447l12 28q3 11 14 11q6 0 11 -4.5t5 -10.5q0 -2 -2 -7t-5 -11t-4 -9q-35 -86 -81 -231q-98 -305 -146 -527q-3 -15 -17.5 -77.5t-21 -105t-6.5 -80.5q0 -19 2 -23.5t2 -9.5q0 -14 -15 -14q-20 0 -20 44q0 66 37.5 232.5t83.5 329.5q69 245 108 349
q-81 -127 -186 -226q-112 -105 -187 -105q-34 0 -56 20.5t-22 57.5q0 57 35 144q30 73 79 167q3 23 16 47.5t33 24.5q15 0 15 -15q0 -8 -13 -26q-49 -86 -78 -150q-57 -127 -57 -192q0 -29 12 -38t34 -9q50 0 125.5 61.5t133 128.5t98.5 127q6 9 31.5 51.5t29.5 47.5z" />
    <glyph glyph-name="z" unicode="z" horiz-adv-x="520" 
d="M205 413q-24 -8 -31 -8q-6 0 -10.5 4.5t-4.5 11.5q0 11 11 14q127 33 261 33h11q10 1 18 0.5t21 -1t22 -3t18.5 -6.5t14.5 -10.5t5 -15.5q0 -6 -3 -13t-6 -12.5t-10.5 -13t-11 -10.5t-12.5 -11t-10 -9q-41 -34 -88.5 -68t-109.5 -75t-92 -62q-9 -6 -33.5 -23t-37 -26
t-31.5 -23.5t-34.5 -28.5t-29.5 -29l41 6q40 6 159 15q75 5 137 5q47 0 77 -5q26 -5 26 -15q0 -15 -13 -15q-9 0 -37 2t-41 2q-83 0 -148 -4q-106 -8 -168 -17q-32 -6 -53 -6q-19 0 -19 19q0 12 15 29q19 21 44.5 43t44.5 35.5t52 36.5t48 34q23 17 125 86t153 112
q36 30 36 38q0 10 -74 10q-122 0 -232 -26z" />
    <glyph glyph-name="braceleft" unicode="{" horiz-adv-x="445" 
d="M677 1019q15 0 15 -15q0 -5 -4.5 -10t-10.5 -5q-14 2 -19 2q-125 0 -207 -143q-22 -38 -47.5 -113t-45 -132.5t-62.5 -114t-104 -78.5l-8 -3q43 -18 60.5 -44t17.5 -65q0 -30 -8.5 -70t-16.5 -65t-27.5 -78t-24.5 -68q-27 -72 -27 -125q0 -86 78 -104q6 -1 21.5 -2
t24.5 -4.5t9 -12.5q0 -15 -15 -15q-72 0 -109.5 37t-37.5 100q0 54 28 134q8 25 30 84.5t33.5 103.5t11.5 83q0 24 -6.5 40.5t-23 26.5t-26 14t-34.5 11q-3 1 -5.5 1.5t-4.5 1.5q-3 1 -11.5 1.5t-12.5 1.5t-9.5 3t-8 5t-2.5 8q0 15 16 15q52 6 86.5 20t69.5 49
q36 37 59.5 89t46 125.5t36.5 107.5q38 87 103.5 145.5t148.5 58.5q15 0 23 -1z" />
    <glyph glyph-name="bar" unicode="|" horiz-adv-x="255" 
d="M345 1042q3 7 11 7q16 0 16 -15q0 -8 -8 -28q-27 -72 -42 -124q-127 -432 -142 -493q-32 -126 -68.5 -295.5t-36.5 -205.5q1 -11 4.5 -22t3.5 -16q3 -28 -16 -28q-11 0 -17.5 9t-6.5 19q-3 53 42 261.5t88 364.5q70 262 130 442q39 116 42 124z" />
    <glyph glyph-name="braceright" unicode="}" horiz-adv-x="405" 
d="M-143 -245q-15 0 -15 15q0 5 4.5 10t10.5 5q14 -2 19 -2q66 0 119 40t88 103q21 38 46.5 113t45.5 132.5t63.5 114t103.5 78.5l8 3q-43 18 -60.5 44t-17.5 65q0 30 8.5 70t16.5 65t27.5 78t24.5 68q27 72 27 125q0 86 -78 104q-4 1 -12.5 1.5t-15 1t-13.5 2.5t-10.5 5.5
t-3.5 8.5q0 15 15 15q72 0 109.5 -37t37.5 -100q0 -54 -28 -134q-7 -20 -23.5 -65.5t-25.5 -73t-17.5 -65.5t-8.5 -67q0 -24 6.5 -40.5t23 -26.5t26 -14t34.5 -11q3 -1 5.5 -1.5t4.5 -1.5q3 -1 11.5 -1.5t12.5 -1.5t9.5 -3t8 -5t2.5 -8q0 -15 -16 -15q-52 -6 -86.5 -20
t-69.5 -49q-36 -37 -59.5 -89t-46 -125.5t-36.5 -107.5q-38 -87 -103.5 -145.5t-148.5 -58.5q-15 0 -23 1z" />
    <glyph glyph-name="exclamdown" unicode="&#xa1;" horiz-adv-x="247" 
d="M81 -6q-7 -12 -22 -4q-7 8 -5 21.5t7 20.5l1 2q20 94 88 329t113 355l1 2q0 1 1 3q6 10 20 4q11 -7 6 -18q-48 -120 -111.5 -345t-92.5 -352q-2 -12 -6 -18zM337 986q2 2 7 2q8 0 16.5 -11.5t8.5 -23.5q0 -18 -14 -32t-33 -14q-23 0 -23 16q0 39 38 63z" />
    <glyph glyph-name="cent" unicode="&#xa2;" horiz-adv-x="577" 
d="M598 634q0 -14 -15 -15q-4 0 -6.5 1.5t-4.5 4.5t-3 5.5t-2.5 7.5t-2.5 8q-7 19 -40 19q-70 0 -159.5 -52.5t-154.5 -128.5q-86 -98 -86 -167q0 -92 138 -92q146 0 295 88q6 2 8 2q5 0 9.5 -4.5t4.5 -10.5q0 -9 -7 -13q-131 -73 -263 -89q-35 -127 -55 -217
q-2 -12 -14 -12q-15 0 -15 16q0 3 7 31q16 75 44 179h-28q-61 0 -107.5 30.5t-46.5 88.5q0 70 72 164q46 62 122.5 120t156.5 83l34 88q11 36 11 47q1 11 9 22t17 11q8 0 13.5 -6.5t5.5 -14.5q0 -6 -6 -20l-15 -38l-33 -80q27 5 49 5q29 0 48.5 -17t19.5 -44z" />
    <glyph glyph-name="sterling" unicode="&#xa3;" horiz-adv-x="892" 
d="M219 458l60 5l79 6l18 28q6 9 25.5 39.5t27.5 42.5t26 37.5t29.5 41.5t28.5 36.5t33 37.5q106 118 221 118q50 0 80 -32.5t30 -79.5v-9q-1 -13 -15 -15q-6 0 -10.5 4.5t-4.5 10.5v16q0 35 -25.5 56t-58.5 21q-91 0 -198 -113q-49 -53 -118 -158q-10 -13 -26.5 -40
t-26.5 -40q71 4 160 4q107 0 179 -6q13 0 15 -15q0 -5 -4.5 -9.5t-10.5 -4.5q-94 7 -199 7q-71 0 -159 -5q-98 -148 -173 -231q-68 -72 -114 -103q207 30 443 30q307 0 307 -56q0 -6 -5 -10.5t-10 -4.5q-10 0 -15 11q-15 9 -49 17q-59 13 -212 13q-281 0 -501 -36
q-45 -9 -49 -9q-6 0 -11 4.5t-5 10.5t8.5 12.5t17 10.5t21 8.5t13.5 5.5q72 36 169 150q55 66 128 175q-68 -4 -156 -16q-4 0 -13.5 -2.5t-14.5 -2.5q-15 0 -15 17q0 13 14 19.5t30 6.5q20 0 36 -4z" />
    <glyph glyph-name="currency" unicode="&#xa4;" horiz-adv-x="679" 
d="M281 547l-66 112q-16 0 -16 13q0 28 19 28q5 0 8.5 -3t7 -9.5t5.5 -8.5l66 -112q75 56 148 56q53 0 91 -27l84 65q32 26 122 82q6 2 7 2q15 0 15 -15q0 -6 -11.5 -15t-31.5 -21.5t-25 -15.5q-94 -64 -138 -104q27 -33 27 -86q0 -61 -33.5 -124.5t-81.5 -108.5q0 -2 1 -2
l84 -141q2 -6 2 -7q0 -6 -4.5 -10.5t-11.5 -4.5q-8 0 -12 7l-83 138q-67 -51 -141 -51q-85 0 -125 66q-85 -65 -134 -114q-5 -5 -11 -5t-10.5 5t-4.5 11q0 5 5 10q50 54 144 122q-4 15 -4 38q0 122 108 230zM526 573q-29 20 -74 20q-96 0 -172.5 -89.5t-76.5 -185.5
q0 -52 29 -78t79 -26q93 0 172.5 89t79.5 194q0 27 -14 50h-5q-20 0 -20 18q0 2 2 8z" />
    <glyph glyph-name="yen" unicode="&#xa5;" horiz-adv-x="713" 
d="M211 819q0 15 15 15q6 0 10.5 -4.5t4.5 -10.5q-6 -116 17 -296q7 -54 21.5 -104t29.5 -58h10q18 8 114 104q178 178 353 423q6 7 15 7q14 0 14 -21q-3 -27 -57 -76q-177 -237 -373 -419l-18 -17q39 2 114.5 4t114.5 3q2 0 9 0.5t27 1.5t52 1q37 0 37 -20q0 -7 -8 -11.5
t-18 -4.5q-42 0 -65 4q-143 0 -308 -8v-2l-29 -80q-2 -4 -3.5 -10.5t-3.5 -9.5h80q100 0 180 -4q15 -2 15 -15q0 -15 -15 -15q-65 4 -195 4h-76q-11 -32 -43 -136q6 -3 6 -15q0 -7 -10.5 -21t-19.5 -14q-16 0 -15 18q0 10 21 78q5 16 10 31.5t11 32.5t9 26l-127 -4
q-15 0 -15 15t15 15q52 4 137 4l38 101l-231 -8q-15 0 -15 15t15 15l105 3t106 4q-9 15 -26 74q-18 84 -28.5 197.5t-6.5 187.5z" />
    <glyph glyph-name="section" unicode="&#xa7;" horiz-adv-x="557" 
d="M617 817q3 -5 3 -10q0 -15 -13 -16q-9 0 -13 4q-21 29 -59.5 42.5t-80.5 8.5q-60 -6 -116 -55t-58 -107q0 -20 10 -39t30.5 -36.5t37.5 -29.5t45 -29.5t39 -24.5q115 -81 112 -165q-2 -81 -83.5 -138.5t-174.5 -68.5l-20 -1q4 -4 20 -19.5t22.5 -22.5t20 -21.5
t19.5 -25.5t14 -25t11 -28t2 -29q-1 -65 -67 -131q-51 -52 -128.5 -87.5t-144.5 -41.5q-63 -9 -111 1q-28 4 -53.5 22.5t-25.5 40.5q0 8 5 13.5t11 6.5q9 1 14.5 -6.5t5.5 -18.5q38 -40 159 -29q62 6 131 38.5t118 81.5q56 60 57 107q0 55 -94 142l-32 32q-42 12 -42 33
q0 5 1 6l-26 26l-16.5 16.5l-16.5 16.5t-14.5 15.5t-14 17t-10 16.5t-9 20t-5 20.5t-2.5 23.5q2 30 9 45q25 64 85.5 112t128.5 67l-12 12q-38 38 -37 79q2 70 69 130t142 69q94 10 157 -60zM374 534q-21 12 -39 24q-1 -1 -6 -1q-13 1 -27 0q-25 -3 -69.5 -27.5t-86 -70.5
t-42.5 -93q0 -21 7 -40t25 -40t29.5 -33t41 -37.5t38.5 -33.5q11 -2 52 0q32 5 65 16q23 7 46.5 19t51.5 31t46 47.5t19 60.5q0 3 -2 17q-13 54 -50.5 90t-98.5 71z" />
    <glyph glyph-name="dieresis" unicode="&#xa8;" horiz-adv-x="246" 
d="M101 575q0 17 17 22q14 2 21 2q23 0 23 -19q0 -4 -2 -8t-4 -6t-7 -6t-6 -5q-17 -9 -21 -9q-9 0 -15 8.5t-6 20.5zM234 580q0 16 18 21q3 3 20 3q23 0 23 -19q0 -10 -18 -26q-16 -8 -22 -8q-8 0 -14.5 9t-6.5 20z" />
    <glyph glyph-name="copyright" unicode="&#xa9;" horiz-adv-x="501" 
d="M237 885l19 21q-8 5 -8 13q0 7 6 11q43 17 68 29q69 22 124 22q64 0 95.5 -36.5t31.5 -91.5q0 -100 -102 -199.5t-220 -99.5q-56 0 -87.5 32t-31.5 82q0 112 105 217zM338 935l-3 -2q-64 -38 -121.5 -114t-57.5 -152q0 -41 27 -64.5t67 -23.5q63 0 121.5 32.5t103.5 84.5
q73 87 73 155q0 50 -27.5 78t-70.5 28q-46 0 -112 -22zM430 871q11 0 13 -13q0 -13 -13 -14q-55 -5 -93 -27q-29 -13 -53.5 -37.5t-24.5 -44.5q0 -23 37 -23h7q51 3 135 48q1 1 7 1q13 0 13 -14q0 -9 -7 -9q-36 -18 -52 -25.5t-46.5 -17t-56.5 -9.5q-25 0 -43 12.5t-18 36.5
q0 53 64.5 92.5t130.5 43.5z" />
    <glyph glyph-name="registered" unicode="&#xae;" horiz-adv-x="469" 
d="M331 968q2 2 7 2q4 0 10 -6l7 4q55 31 117 31q60 0 93.5 -37t33.5 -89q0 -72 -48.5 -147t-128 -124.5t-160.5 -49.5q-59 0 -92.5 33t-33.5 85q0 85 56.5 173t138.5 125zM331 921q-8 0 -13 11q-66 -49 -111 -117.5t-45 -144.5q0 -43 28 -67t72 -24q106 0 202 89
q-78 34 -139 103q-3 3 -3 10q0 11 9 12q32 10 61 22l16 6q15 6 26.5 12t11.5 10q0 5 -17.5 9t-26.5 4q-35 0 -55 -7l-74 -140q0 -2 1 -4v-2q0 -6 -8 -14t-16 -8q-13 0 -13 13q0 2 1.5 5t8.5 16t16 32l47 90q-5 5 -5 12q0 17 29.5 25t61.5 8q76 0 76 -39q0 -22 -29 -36
q-27 -12 -85 -34q56 -56 120 -83l5 -5q89 93 89 185q0 52 -27.5 77t-72.5 25q-81 0 -131 -47q-4 -4 -10 -4z" />
    <glyph glyph-name="acute" unicode="&#xb4;" horiz-adv-x="341" 
d="M175 634l-82 -24q-13 -5 -18 9q-6 13 8 19l83 24q103 33 143 49l79 29q7 11 33 21.5t38 2.5q8 -5 8.5 -14t-7.5 -13q-50 -25 -157 -60q-22 -7 -64.5 -21t-63.5 -22z" />
    <glyph glyph-name="mu" unicode="&#xb5;" horiz-adv-x="557" 
d="M167 475q8 14 19 11q16 -7 10 -19l-9 -23l-41 -106q-72 -196 -72 -265q0 -40 39 -40q53 0 142 82q104 96 270 343q12 21 21 21q16 0 16 -14q0 -1 -2 -7q-104 -279 -122 -431q-1 -3 -1 -14t-3 -16t-12 -5q-6 0 -10.5 4.5t-4.5 10.5q0 21 6 59q13 88 79 291
q-125 -181 -210 -259q-29 -27 -51 -44.5t-56.5 -34t-65.5 -16.5q-39 0 -58 34q-58 -202 -91 -351q-28 -127 -40 -201q-4 -30 -6 -62q0 -21 3 -24q7 -10 -2 -19q-12 -12 -21 0q-11 11 -9 53q5 69 26 170q44 216 112 445q44 150 104 323q18 53 40 104z" />
    <glyph glyph-name="paragraph" unicode="&#xb6;" horiz-adv-x="609" 
d="M669 868q3 8 12 8q6 0 11 -5t5 -11q0 -1 -2 -7q-1 -3 -4 -9l-5.5 -11t-2.5 -7q55 -3 67 -5q37 -6 38 -17q0 -15 -15 -15l-48 5q-13 2 -55 2q-10 -25 -99 -290q-68 -208 -115 -390q-3 -12 -8.5 -36t-9 -39t-7.5 -36t-5 -40q0 -1 1.5 -3.5t1.5 -4.5q0 -15 -15 -15
q-17 0 -18 22q-1 32 15 94q45 193 130 459q43 141 97 280q-68 0 -95 -4q-24 -46 -58 -140q-105 -291 -176 -540l-13 -47q9 -9 9 -30q1 -13 -5 -21.5t-16 -8.5q-25 0 -27 26l23 92l57 185q3 9 11.5 38t14.5 45q-47 -14 -114 -14q-44 0 -82.5 10.5t-69.5 41.5t-32 78
q-2 50 29 97t76 80q179 142 480 142q7 22 19 41z" />
    <glyph glyph-name="cedilla" unicode="&#xb8;" horiz-adv-x="258" 
d="M83 19l27 -6q-5 -14 -9.5 -27t-7.5 -21q82 -7 82 -75q0 -32 -32.5 -65.5t-86.5 -60.5q-70 -36 -125 -31q-9 1 -9 15q0 12 12 14q55 4 104 29q41 21 72 48t31 50q0 17 -11.5 31t-32.5 14h-10q-4 -2 -10 -2q-8 0 -13.5 5t-3.5 13q6 30 23 69z" />
    <glyph glyph-name="questiondown" unicode="&#xbf;" horiz-adv-x="596" 
d="M498 728h-3q-15 0 -15 15q0 6 4.5 10.5t10.5 4.5q16 0 25.5 -11.5t9.5 -30.5q0 -27 -13 -58q-21 -52 -66.5 -103t-91 -86.5t-106.5 -83t-96 -81.5q-102 -98 -102 -172q0 -46 26 -77t60 -42t73 -11q76 0 152.5 43t119.5 110q2 4 6 11.5t6.5 12t6.5 8t9 3.5q15 0 15 -15
l-2 -8q-38 -84 -129 -139t-185 -55q-75 0 -131.5 41t-56.5 117q0 53 30 99q33 53 87 103.5t129 108t109 88.5q34 32 54 53t42 59t24 74q0 9 -2 12zM545 885q-6 -2 -8 -2q-8 0 -14 13q-10 4 -10 19q0 20 15.5 34.5t35.5 14.5q25 0 25 -17q0 -18 -13.5 -35t-30.5 -27z" />
    <glyph glyph-name="Agrave" unicode="&#xc0;" 
d="M62 -7q-7 -7 -14 -7q-5 0 -9.5 4.5t-4.5 10.5q0 4 12 20l48 65q56 75 241 304q-162 -16 -211 -25q-4 -3 -4 -7q0 -14 -17 -14h-5q-4 1 -8.5 2t-17 3t-27.5 4q-11 2 -11 14q0 10 11 15l47 8q120 20 270 32q90 109 142.5 170t136.5 150t161 157q3 3 23 20t28.5 24t25 18.5
t29 16t23.5 4.5q42 0 42 -74q0 -37 -26 -241q-9 -73 -31 -219q39 2 230 4q6 0 10.5 -4.5t4.5 -10.5q0 -13 -15 -15h-70l-164 -4q0 -3 -0.5 -7.5t-0.5 -6.5q-36 -271 -36 -383q0 -50 2 -65q0 -1 12 -13t12 -23q0 -20 -19 -20q-38 0 -38 115q0 75 12 171q19 180 26 231
q-51 -2 -146.5 -5.5t-171.5 -7t-144 -8.5l-47 -3q-155 -190 -311 -400zM400 425q196 16 487 23l17 125q36 237 39 328q0 51 -11 51q-9 0 -24.5 -8t-35 -23.5t-37.5 -31t-41.5 -38.5t-37.5 -37l-34.5 -34.5l-24.5 -24.5q-137 -138 -297 -330zM803 1202q-9 12 3 21q10 7 21 -3
q16 -22 47 -46q75 -60 156 -75q9 -2 19 -3.5t22 -3t19 -2.5q15 -2 13 -17q-2 -13 -17 -13q-44 6 -68 11q-128 31 -215 131z" />
    <glyph glyph-name="Aacute" unicode="&#xc1;" 
d="M62 -7q-7 -7 -14 -7q-5 0 -9.5 4.5t-4.5 10.5q0 4 12 20l48 65q56 75 241 304q-162 -16 -211 -25q-4 -3 -4 -7q0 -14 -17 -14h-5q-4 1 -8.5 2t-17 3t-27.5 4q-11 2 -11 14q0 10 11 15l47 8q120 20 270 32q90 109 142.5 170t136.5 150t161 157q3 3 23 20t28.5 24t25 18.5
t29 16t23.5 4.5q42 0 42 -74q0 -37 -26 -241q-9 -73 -31 -219q39 2 230 4q6 0 10.5 -4.5t4.5 -10.5q0 -13 -15 -15h-70l-164 -4q0 -3 -0.5 -7.5t-0.5 -6.5q-36 -271 -36 -383q0 -50 2 -65q0 -1 12 -13t12 -23q0 -20 -19 -20q-38 0 -38 115q0 75 12 171q19 180 26 231
q-51 -2 -146.5 -5.5t-171.5 -7t-144 -8.5l-47 -3q-155 -190 -311 -400zM400 425q196 16 487 23l17 125q36 237 39 328q0 51 -11 51q-9 0 -24.5 -8t-35 -23.5t-37.5 -31t-41.5 -38.5t-37.5 -37l-34.5 -34.5l-24.5 -24.5q-137 -138 -297 -330zM819 1077l-82 -24q-13 -5 -18 9
q-6 13 8 19l83 24q104 33 143 49l79 29q7 11 33 21.5t38 2.5q8 -5 8.5 -14t-7.5 -13q-50 -25 -157 -60q-21 -7 -63.5 -21.5t-64.5 -21.5z" />
    <glyph glyph-name="Acircumflex" unicode="&#xc2;" 
d="M62 -7q-7 -7 -14 -7q-5 0 -9.5 4.5t-4.5 10.5q0 4 12 20l48 65q56 75 241 304q-162 -16 -211 -25q-4 -3 -4 -7q0 -14 -17 -14h-5q-4 1 -8.5 2t-17 3t-27.5 4q-11 2 -11 14q0 10 11 15l47 8q120 20 270 32q90 109 142.5 170t136.5 150t161 157q3 3 23 20t28.5 24t25 18.5
t29 16t23.5 4.5q42 0 42 -74q0 -37 -26 -241q-9 -73 -31 -219q39 2 230 4q6 0 10.5 -4.5t4.5 -10.5q0 -13 -15 -15h-70l-164 -4q0 -3 -0.5 -7.5t-0.5 -6.5q-36 -271 -36 -383q0 -50 2 -65q0 -1 12 -13t12 -23q0 -20 -19 -20q-38 0 -38 115q0 75 12 171q19 180 26 231
q-51 -2 -146.5 -5.5t-171.5 -7t-144 -8.5l-47 -3q-155 -190 -311 -400zM400 425q196 16 487 23l17 125q36 237 39 328q0 51 -11 51q-9 0 -24.5 -8t-35 -23.5t-37.5 -31t-41.5 -38.5t-37.5 -37l-34.5 -34.5l-24.5 -24.5q-137 -138 -297 -330zM729 1045l-8 -2q-15 0 -15 14
q0 9 8 14q29 14 102.5 64t108.5 70q25 16 37 16q7 0 12 -8q36 -60 55 -84q32 -40 58 -56l15 -9q7 -4 7 -13q0 -15 -14 -15q-2 0 -8 2q-54 24 -133 148q-33 -19 -107.5 -69t-117.5 -72z" />
    <glyph glyph-name="Atilde" unicode="&#xc3;" 
d="M62 -7q-7 -7 -14 -7q-5 0 -9.5 4.5t-4.5 10.5q0 4 12 20l48 65q56 75 241 304q-162 -16 -211 -25q-4 -3 -4 -7q0 -14 -17 -14h-5q-4 1 -8.5 2t-17 3t-27.5 4q-11 2 -11 14q0 10 11 15l47 8q120 20 270 32q90 109 142.5 170t136.5 150t161 157q3 3 23 20t28.5 24t25 18.5
t29 16t23.5 4.5q42 0 42 -74q0 -37 -26 -241q-9 -73 -31 -219q39 2 230 4q6 0 10.5 -4.5t4.5 -10.5q0 -13 -15 -15h-70l-164 -4q0 -3 -0.5 -7.5t-0.5 -6.5q-36 -271 -36 -383q0 -50 2 -65q0 -1 12 -13t12 -23q0 -20 -19 -20q-38 0 -38 115q0 75 12 171q19 180 26 231
q-51 -2 -146.5 -5.5t-171.5 -7t-144 -8.5l-47 -3q-155 -190 -311 -400zM400 425q196 16 487 23l17 125q36 237 39 328q0 51 -11 51q-9 0 -24.5 -8t-35 -23.5t-37.5 -31t-41.5 -38.5t-37.5 -37l-34.5 -34.5l-24.5 -24.5q-137 -138 -297 -330zM713 1045q-5 -8 -13 -8
q-6 0 -10.5 4.5t-4.5 10.5q0 8 17.5 33t34.5 44q72 86 123 86q25 0 44.5 -23t30 -51t29.5 -51t43 -23q45 0 133 100l27 37q15 25 22 25q15 0 15 -14q0 -2 -2 -8q-13 -24 -53 -75q-30 -37 -68 -66t-73 -29q-52 0 -91 78l-12 24t-22 34t-24 12q-30 0 -76.5 -47.5t-69.5 -92.5z
" />
    <glyph glyph-name="Adieresis" unicode="&#xc4;" 
d="M62 -7q-7 -7 -14 -7q-5 0 -9.5 4.5t-4.5 10.5q0 4 12 20l48 65q56 75 241 304q-162 -16 -211 -25q-4 -3 -4 -7q0 -14 -17 -14h-5q-4 1 -8.5 2t-17 3t-27.5 4q-11 2 -11 14q0 10 11 15l47 8q120 20 270 32q90 109 142.5 170t136.5 150t161 157q3 3 23 20t28.5 24t25 18.5
t29 16t23.5 4.5q42 0 42 -74q0 -37 -26 -241q-9 -73 -31 -219q39 2 230 4q6 0 10.5 -4.5t4.5 -10.5q0 -13 -15 -15h-70l-164 -4q0 -3 -0.5 -7.5t-0.5 -6.5q-36 -271 -36 -383q0 -50 2 -65q0 -1 12 -13t12 -23q0 -20 -19 -20q-38 0 -38 115q0 75 12 171q19 180 26 231
q-51 -2 -146.5 -5.5t-171.5 -7t-144 -8.5l-47 -3q-155 -190 -311 -400zM400 425q196 16 487 23l17 125q36 237 39 328q0 51 -11 51q-9 0 -24.5 -8t-35 -23.5t-37.5 -31t-41.5 -38.5t-37.5 -37l-34.5 -34.5l-24.5 -24.5q-137 -138 -297 -330zM859 1137q0 17 17 22q14 2 21 2
q23 0 23 -19q0 -4 -2 -8t-4 -6t-7 -6t-6 -5q-17 -9 -21 -9q-9 0 -15 8.5t-6 20.5zM992 1142q0 16 18 21q3 3 20 3q23 0 23 -19q0 -10 -18 -26q-16 -8 -22 -8q-8 0 -14.5 9t-6.5 20z" />
    <glyph glyph-name="Aring" unicode="&#xc5;" 
d="M857 1035q0 59 54.5 118.5t115.5 59.5q33 0 51.5 -22t18.5 -54q0 -49 -41.5 -102t-96.5 -67q14 -19 14 -60q0 -37 -26 -241q-9 -73 -31 -219q39 2 230 4q6 0 10.5 -4.5t4.5 -10.5q0 -13 -15 -15h-70l-164 -4q0 -3 -0.5 -7.5t-0.5 -6.5q-36 -271 -36 -383q0 -50 2 -65
q0 -1 12 -13t12 -23q0 -20 -19 -20q-38 0 -38 115q0 75 12 171q19 180 26 231q-51 -2 -146.5 -5.5t-171.5 -7t-144 -8.5l-47 -3q-155 -190 -311 -400q-7 -7 -14 -7q-5 0 -9.5 4.5t-4.5 10.5q0 4 12 20l48 65q56 75 241 304q-162 -16 -211 -25q-4 -3 -4 -7q0 -14 -17 -14h-5
q-4 1 -8.5 2t-17 3t-27.5 4q-11 2 -11 14q0 10 11 15l47 8q120 20 270 32q90 109 142.5 170t136.5 150t161 157q5 4 20.5 18t24.5 21.5t22.5 17t24.5 15.5q-37 18 -37 64zM400 425q196 16 487 23l17 125q36 237 39 328q0 51 -11 51q-9 0 -24.5 -8t-35 -23.5t-37.5 -31
t-41.5 -38.5t-37.5 -37l-34.5 -34.5l-24.5 -24.5q-137 -138 -297 -330zM1067 1138q0 17 -11.5 31t-32.5 14q-45 0 -90.5 -47.5t-45.5 -99.5q0 -43 45 -43t90 49.5t45 95.5z" />
    <glyph glyph-name="AE" unicode="&#xc6;" horiz-adv-x="1626" 
d="M72 -7q-7 -7 -14 -7q-5 0 -9.5 4.5t-4.5 10.5q0 4 12 20l48 65q42 57 249 313l21 26q-139 -13 -225 -30q-4 -3 -4 -7q0 -15 -17 -15q-2 0 -58 8q-11 2 -11 14q0 10 11 15l47 9q98 20 202 30q14 2 42.5 4.5t39.5 3.5q245 295 411 442q3 3 23 20t28.5 24t25 18.5t29 16
t23.5 4.5q42 0 42 -74v-4q129 15 307 29q175 14 472 20q6 0 10.5 -4.5t4.5 -10.5q0 -15 -15 -15q-214 -3 -471 -20q-127 -8 -183 -15q-26 -2 -126 -14q-1 -17 -4.5 -43t-9.5 -72.5t-11 -91.5l-25 -174q207 11 464 19q6 0 10.5 -4.5t4.5 -10.5q0 -13 -15 -15l-70 -2l-174 -7
l-224 -11l-7 -58q-36 -271 -36 -383v-1q42 3 115.5 6.5t99.5 5.5q244 11 376 11q120 0 133 -1q6 0 10 -7q4 -16 -8 -21q-1 0 -3 -1t-4 -1l-23 1l-92 2q-147 -2 -383 -14l-221 -10q0 -27 2 -35q0 -1 12 -13t12 -23q0 -20 -19 -20q-38 0 -38 89q-203 -9 -239 -23
q-10 -4 -14 -12.5t-9 -9.5q-6 -4 -22.5 -3t-19.5 12q-5 10 1.5 19t16.5 12q50 19 286 34q0 72 12 168q17 163 30 256l2 18q-235 -11 -453 -29l-32 -3q-153 -180 -341 -435zM441 461q169 15 462 31l11 81q2 17 16.5 126t19.5 158q-6 -6 -21 -6q-9 0 -23.5 7.5t-14.5 21.5
q0 20 52 20q7 0 10 1q0 51 -11 51q-9 0 -24.5 -8t-35 -23.5t-37.5 -31t-41.5 -38.5t-37.5 -37l-34.5 -34.5l-24.5 -24.5q-115 -119 -266 -294z" />
    <glyph glyph-name="Ccedilla" unicode="&#xc7;" horiz-adv-x="1000" 
d="M1038 855l-3 16q-3 26 -41 38t-71 12q-185 0 -421 -166q-68 -46 -141.5 -118.5t-139 -157.5t-107.5 -180.5t-42 -173.5q0 -47 16 -82t39.5 -55t57 -32t63 -16t63.5 -4q174 0 357.5 79.5t332.5 197.5q6 2 7 2q15 0 15 -15q0 -9 -7 -13q-235 -189 -500 -254l-14 -41
q82 -7 82 -75q0 -32 -32.5 -65.5t-86.5 -60.5q-70 -36 -125 -31q-9 2 -9 15t12 14q55 4 104 29q41 21 72 48t31 50q0 17 -11.5 31t-32.5 14h-10q-4 -2 -10 -2q-8 0 -13.5 5t-3.5 13q5 28 15 49q-95 -19 -174 -19q-137 0 -204 59.5t-67 159.5q0 81 42 177.5t108.5 183.5
t141.5 161t146 124q256 179 441 179q36 0 69 -8.5t60 -33.5t27 -62q0 -15 -16 -15q-14 0 -20 23z" />
    <glyph glyph-name="Egrave" unicode="&#xc8;" horiz-adv-x="936" 
d="M409 495q-138 -12 -176 -16q-66 -153 -107 -268q-25 -65 -25 -119q0 -144 212 -144q37 0 84 5q256 25 440 71q12 3 16 3q15 0 15 -14q0 -12 -11 -15l-64 -15q-130 -30 -272 -47q-128 -17 -208 -17q-108 0 -175 42t-67 132q0 57 38 161q30 86 89 214q-5 -5 -16 -5
t-20.5 6.5t-9.5 17.5q0 13 15 15q16 3 48 5l175 380l-143 -16v-3q0 -17 -26 -17q-9 0 -23.5 7.5t-14.5 21.5q0 20 52 20q28 4 84 9.5t84 8.5q9 20 17 43q3 10 15 10q6 0 10.5 -4t4.5 -10q0 -8 -14 -36l146 12q251 20 514 24q6 0 10.5 -4.5t4.5 -10.5q0 -15 -15 -15
q-187 -3 -513 -24q-126 -10 -161 -13q-24 -52 -83.5 -180.5t-91.5 -199.5q257 24 502 28q13 0 15 -15q0 -6 -4.5 -10.5t-10.5 -4.5l-137 -3q-103 -4 -203 -10zM592 1225q-9 12 3 21q11 8 21 -3q16 -22 47 -46q75 -60 156 -75l60 -9q15 -2 13 -17q-2 -13 -17 -13
q-44 6 -68 11q-128 31 -215 131z" />
    <glyph glyph-name="Eacute" unicode="&#xc9;" horiz-adv-x="936" 
d="M409 495q-138 -12 -176 -16q-66 -153 -107 -268q-25 -65 -25 -119q0 -144 212 -144q37 0 84 5q256 25 440 71q12 3 16 3q15 0 15 -14q0 -12 -11 -15l-64 -15q-130 -30 -272 -47q-128 -17 -208 -17q-108 0 -175 42t-67 132q0 57 38 161q30 86 89 214q-5 -5 -16 -5
t-20.5 6.5t-9.5 17.5q0 13 15 15q16 3 48 5l175 380l-143 -16v-3q0 -17 -26 -17q-9 0 -23.5 7.5t-14.5 21.5q0 20 52 20q28 4 84 9.5t84 8.5q9 20 17 43q3 10 15 10q6 0 10.5 -4t4.5 -10q0 -8 -14 -36l146 12q251 20 514 24q6 0 10.5 -4.5t4.5 -10.5q0 -15 -15 -15
q-187 -3 -513 -24q-126 -10 -161 -13q-24 -52 -83.5 -180.5t-91.5 -199.5q257 24 502 28q13 0 15 -15q0 -6 -4.5 -10.5t-10.5 -4.5l-137 -3q-103 -4 -203 -10zM620 1097l-82 -24q-13 -5 -18 9q-6 13 8 19l83 24q103 33 143 49l79 29q7 11 33 21.5t38 2.5q8 -5 8.5 -14
t-7.5 -13q-50 -25 -157 -60q-21 -7 -64 -21.5t-64 -21.5z" />
    <glyph glyph-name="Ecircumflex" unicode="&#xca;" horiz-adv-x="936" 
d="M409 495q-138 -12 -176 -16q-66 -153 -107 -268q-25 -65 -25 -119q0 -144 212 -144q37 0 84 5q256 25 440 71q12 3 16 3q15 0 15 -14q0 -12 -11 -15l-64 -15q-130 -30 -272 -47q-128 -17 -208 -17q-108 0 -175 42t-67 132q0 57 38 161q30 86 89 214q-5 -5 -16 -5
t-20.5 6.5t-9.5 17.5q0 13 15 15q16 3 48 5l175 380l-143 -16v-3q0 -17 -26 -17q-9 0 -23.5 7.5t-14.5 21.5q0 20 52 20q28 4 84 9.5t84 8.5q9 20 17 43q3 10 15 10q6 0 10.5 -4t4.5 -10q0 -8 -14 -36l146 12q251 20 514 24q6 0 10.5 -4.5t4.5 -10.5q0 -15 -15 -15
q-187 -3 -513 -24q-126 -10 -161 -13q-24 -52 -83.5 -180.5t-91.5 -199.5q257 24 502 28q13 0 15 -15q0 -6 -4.5 -10.5t-10.5 -4.5l-137 -3q-103 -4 -203 -10zM541 1072l-8 -2q-15 0 -15 14q0 9 8 14q29 14 102.5 64t108.5 70q25 16 37 16q7 0 12 -8q36 -60 55 -84
q32 -40 58 -56l15 -9q7 -4 7 -13q0 -15 -14 -15q-2 0 -8 2q-54 24 -133 148q-33 -19 -107.5 -69t-117.5 -72z" />
    <glyph glyph-name="Edieresis" unicode="&#xcb;" horiz-adv-x="936" 
d="M409 495q-138 -12 -176 -16q-66 -153 -107 -268q-25 -65 -25 -119q0 -144 212 -144q37 0 84 5q256 25 440 71q12 3 16 3q15 0 15 -14q0 -12 -11 -15l-64 -15q-130 -30 -272 -47q-128 -17 -208 -17q-108 0 -175 42t-67 132q0 57 38 161q30 86 89 214q-5 -5 -16 -5
t-20.5 6.5t-9.5 17.5q0 13 15 15q16 3 48 5l175 380l-143 -16v-3q0 -17 -26 -17q-9 0 -23.5 7.5t-14.5 21.5q0 20 52 20q28 4 84 9.5t84 8.5q9 20 17 43q3 10 15 10q6 0 10.5 -4t4.5 -10q0 -8 -14 -36l146 12q251 20 514 24q6 0 10.5 -4.5t4.5 -10.5q0 -15 -15 -15
q-187 -3 -513 -24q-126 -10 -161 -13q-24 -52 -83.5 -180.5t-91.5 -199.5q257 24 502 28q13 0 15 -15q0 -6 -4.5 -10.5t-10.5 -4.5l-137 -3q-103 -4 -203 -10zM646 1155q0 17 17 22q14 2 21 2q23 0 23 -19q0 -4 -2 -8t-4 -6t-7 -6t-6 -5q-16 -9 -21 -9q-9 0 -15 8.5t-6 20.5
zM779 1160q0 16 18 21q3 3 20 3q23 0 23 -19q0 -10 -18 -26q-16 -8 -22 -8q-8 0 -14.5 9t-6.5 20z" />
    <glyph glyph-name="Igrave" unicode="&#xcc;" horiz-adv-x="899" 
d="M717 921q-191 -11 -381 -30q0 -1 0.5 -2t0.5 -3q0 -18 -27 -16q-13 -1 -27 9t-14 23q0 12 15 13q277 30 474 41q14 29 21 29q17 0 17 -15v-12q181 10 439 8q15 0 15 -15t-15 -15q-288 0 -441 -10q-3 -19 -13 -19q-5 0 -8 3l-32 -91q-83 -231 -177 -554q-38 -126 -65 -239
q-1 -11 -1 -22v-5h9q174 2 327 -4q15 0 15 -13q0 -6 -4.5 -10.5t-10.5 -4.5q-81 4 -184 4q-51 1 -151 -4q-6 -45 -31 -45q-19 0 -20 14q-2 12 3 29l-235 -12q-77 -4 -192 -12q-6 0 -10.5 4.5t-4.5 10.5q-1 13 15 15l36 5q1 0 7 -2q27 2 76.5 4.5t64.5 3.5q34 2 118 8t133 8
q6 28 11 42l63 227q49 179 175 554q11 31 37 102q-22 -2 -28 -2zM647 1219q-9 12 3 21q10 8 21 -3q16 -22 47 -46q75 -60 156 -75l60 -9q15 -2 13 -17q-2 -13 -17 -13q-44 6 -68 11q-128 31 -215 131z" />
    <glyph glyph-name="Iacute" unicode="&#xcd;" horiz-adv-x="899" 
d="M717 921q-191 -11 -381 -30q0 -1 0.5 -2t0.5 -3q0 -18 -27 -16q-13 -1 -27 9t-14 23q0 12 15 13q277 30 474 41q14 29 21 29q17 0 17 -15v-12q181 10 439 8q15 0 15 -15t-15 -15q-288 0 -441 -10q-3 -19 -13 -19q-5 0 -8 3l-32 -91q-83 -231 -177 -554q-38 -126 -65 -239
q-1 -11 -1 -22v-5h9q174 2 327 -4q15 0 15 -13q0 -6 -4.5 -10.5t-10.5 -4.5q-81 4 -184 4q-51 1 -151 -4q-6 -45 -31 -45q-19 0 -20 14q-2 12 3 29l-235 -12q-77 -4 -192 -12q-6 0 -10.5 4.5t-4.5 10.5q-1 13 15 15l36 5q1 0 7 -2q27 2 76.5 4.5t64.5 3.5q34 2 118 8t133 8
q6 28 11 42l63 227q49 179 175 554q11 31 37 102q-22 -2 -28 -2zM724 1117l-82 -24q-13 -5 -18 9q-6 13 8 19l83 24q104 33 143 49l79 29q7 11 33 21.5t38 2.5q8 -5 8.5 -14t-7.5 -13q-50 -25 -157 -60q-22 -8 -64.5 -21.5t-63.5 -21.5z" />
    <glyph glyph-name="Icircumflex" unicode="&#xce;" horiz-adv-x="899" 
d="M717 921q-191 -11 -381 -30q0 -1 0.5 -2t0.5 -3q0 -18 -27 -16q-13 -1 -27 9t-14 23q0 12 15 13q277 30 474 41q14 29 21 29q17 0 17 -15v-12q181 10 439 8q15 0 15 -15t-15 -15q-288 0 -441 -10q-3 -19 -13 -19q-5 0 -8 3l-32 -91q-83 -231 -177 -554q-38 -126 -65 -239
q-1 -11 -1 -22v-5h9q174 2 327 -4q15 0 15 -13q0 -6 -4.5 -10.5t-10.5 -4.5q-81 4 -184 4q-51 1 -151 -4q-6 -45 -31 -45q-19 0 -20 14q-2 12 3 29l-235 -12q-77 -4 -192 -12q-6 0 -10.5 4.5t-4.5 10.5q-1 13 15 15l36 5q1 0 7 -2q27 2 76.5 4.5t64.5 3.5q34 2 118 8t133 8
q6 28 11 42l63 227q49 179 175 554q11 31 37 102q-22 -2 -28 -2zM581 1077l-8 -2q-15 0 -15 14q0 9 8 14q29 14 102.5 64t108.5 70q25 16 37 16q7 0 12 -8q36 -60 55 -84q32 -40 58 -56l15 -9q7 -4 7 -13q0 -15 -14 -15q-2 0 -8 2q-54 24 -133 148q-33 -19 -107.5 -69
t-117.5 -72z" />
    <glyph glyph-name="Idieresis" unicode="&#xcf;" horiz-adv-x="899" 
d="M717 921q-191 -11 -381 -30q0 -1 0.5 -2t0.5 -3q0 -18 -27 -16q-13 -1 -27 9t-14 23q0 12 15 13q277 30 474 41q14 29 21 29q17 0 17 -15v-12q181 10 439 8q15 0 15 -15t-15 -15q-288 0 -441 -10q-3 -19 -13 -19q-5 0 -8 3l-32 -91q-83 -231 -177 -554q-38 -126 -65 -239
q-1 -11 -1 -22v-5h9q174 2 327 -4q15 0 15 -13q0 -6 -4.5 -10.5t-10.5 -4.5q-81 4 -184 4q-51 1 -151 -4q-6 -45 -31 -45q-19 0 -20 14q-2 12 3 29l-235 -12q-77 -4 -192 -12q-6 0 -10.5 4.5t-4.5 10.5q-1 13 15 15l36 5q1 0 7 -2q27 2 76.5 4.5t64.5 3.5q34 2 118 8t133 8
q6 28 11 42l63 227q49 179 175 554q11 31 37 102q-22 -2 -28 -2zM700 1175q0 17 17 22q14 2 21 2q23 0 23 -19q0 -4 -2 -8t-4 -6t-7 -6t-6 -5q-16 -9 -21 -9q-9 0 -15 8.5t-6 20.5zM833 1180q0 16 18 21q3 3 20 3q23 0 23 -19q0 -10 -18 -26q-16 -8 -22 -8q-8 0 -14.5 9
t-6.5 20z" />
    <glyph glyph-name="Ntilde" unicode="&#xd1;" horiz-adv-x="1014" 
d="M58 -80q0 -10 -12 -10q-13 0 -16 14q-2 24 60 230q52 171 182 471t164 300q20 0 24 -24q24 -224 97 -491q46 -172 101 -300q58 -125 96 -125q71 0 154 256q4 11 6 17q44 141 142 452q65 191 104 256q1 1 3.5 5t3.5 5.5t4 5.5t4.5 5.5t4.5 5t5 5t5.5 3.5t6.5 3l6 2t7 1
q18 0 22 -16q0 -15 -15 -15h-4q-8 0 -22 -18q-41 -58 -112 -275q-32 -101 -57.5 -181.5t-38 -120t-21.5 -67.5t-13 -39.5t-6 -19.5q-1 -5 -9 -30t-12.5 -39t-14 -41.5t-17.5 -45t-19.5 -42t-23.5 -40t-26 -30.5t-29.5 -22t-31.5 -7q-63 0 -121 131q-61 125 -112 323
q-67 242 -94 474q-53 -78 -154.5 -323t-157.5 -416q-49 -155 -63 -227zM585 1029q-5 -8 -13 -8q-6 0 -10.5 4.5t-4.5 10.5q0 8 17.5 33t34.5 44q72 86 123 86q25 0 44.5 -23t30 -51t29.5 -51t43 -23q45 0 133 100l27 37q15 25 22 25q15 0 15 -14q0 -2 -2 -8q-13 -24 -53 -75
q-30 -37 -68 -66t-73 -29q-52 0 -91 78l-12 24t-22 34t-24 12q-30 0 -76.5 -47.5t-69.5 -92.5z" />
    <glyph glyph-name="Ograve" unicode="&#xd2;" horiz-adv-x="995" 
d="M750 961q108 0 193.5 -62t115.5 -163q10 -29 15 -77q16 -184 -105 -377q-41 -64 -98 -125.5t-132.5 -120.5t-170 -95.5t-190.5 -36.5q-139 0 -224 81.5t-96 194.5q-10 122 45.5 261.5t150.5 253.5t228.5 190t267.5 76zM1030 728q-25 88 -101 147.5t-176 59.5
q-116 0 -241 -68.5t-221.5 -174t-154.5 -244.5t-46 -269q10 -107 89 -177t195 -70q161 0 318.5 110.5t251.5 256.5q114 174 99 356q-3 39 -13 73zM651 1195q-9 12 3 21q10 8 21 -3q16 -22 47 -46q75 -60 156 -75q9 -2 19 -3.5t22 -3t19 -2.5q15 -2 13 -17q-2 -13 -17 -13
q-44 6 -68 11q-128 31 -215 131z" />
    <glyph glyph-name="Oacute" unicode="&#xd3;" horiz-adv-x="995" 
d="M750 961q108 0 193.5 -62t115.5 -163q10 -29 15 -77q16 -184 -105 -377q-41 -64 -98 -125.5t-132.5 -120.5t-170 -95.5t-190.5 -36.5q-139 0 -224 81.5t-96 194.5q-10 122 45.5 261.5t150.5 253.5t228.5 190t267.5 76zM1030 728q-25 88 -101 147.5t-176 59.5
q-116 0 -241 -68.5t-221.5 -174t-154.5 -244.5t-46 -269q10 -107 89 -177t195 -70q161 0 318.5 110.5t251.5 256.5q114 174 99 356q-3 39 -13 73zM657 1079l-82 -24q-13 -5 -18 9q-6 13 8 19l83 24q104 33 143 49l79 29q7 11 33 21.5t38 2.5q8 -5 8.5 -14t-7.5 -13
q-50 -25 -157 -60q-21 -8 -64 -22t-64 -21z" />
    <glyph glyph-name="Ocircumflex" unicode="&#xd4;" horiz-adv-x="995" 
d="M750 961q108 0 193.5 -62t115.5 -163q10 -29 15 -77q16 -184 -105 -377q-41 -64 -98 -125.5t-132.5 -120.5t-170 -95.5t-190.5 -36.5q-139 0 -224 81.5t-96 194.5q-10 122 45.5 261.5t150.5 253.5t228.5 190t267.5 76zM1030 728q-25 88 -101 147.5t-176 59.5
q-116 0 -241 -68.5t-221.5 -174t-154.5 -244.5t-46 -269q10 -107 89 -177t195 -70q161 0 318.5 110.5t251.5 256.5q114 174 99 356q-3 39 -13 73zM588 1054l-8 -2q-15 0 -15 14q0 9 8 14q29 14 102.5 64t108.5 70q25 16 37 16q7 0 12 -8q36 -60 55 -84q32 -40 58 -56l15 -9
q7 -4 7 -13q0 -15 -14 -15q-2 0 -8 2q-54 24 -133 148q-33 -19 -107.5 -69t-117.5 -72z" />
    <glyph glyph-name="Otilde" unicode="&#xd5;" horiz-adv-x="995" 
d="M750 961q108 0 193.5 -62t115.5 -163q10 -29 15 -77q16 -184 -105 -377q-41 -64 -98 -125.5t-132.5 -120.5t-170 -95.5t-190.5 -36.5q-139 0 -224 81.5t-96 194.5q-10 122 45.5 261.5t150.5 253.5t228.5 190t267.5 76zM1030 728q-25 88 -101 147.5t-176 59.5
q-116 0 -241 -68.5t-221.5 -174t-154.5 -244.5t-46 -269q10 -107 89 -177t195 -70q161 0 318.5 110.5t251.5 256.5q114 174 99 356q-3 39 -13 73zM536 1059q-5 -8 -13 -8q-6 0 -10.5 4.5t-4.5 10.5q0 8 17.5 33t34.5 44q72 86 123 86q25 0 44.5 -23t30 -51t29.5 -51t43 -23
q45 0 133 100l27 37q15 25 22 25q15 0 15 -14q0 -2 -2 -8q-13 -24 -53 -75q-30 -37 -68 -66t-73 -29q-52 0 -91 78l-12 24t-22 34t-24 12q-30 0 -76.5 -47.5t-69.5 -92.5z" />
    <glyph glyph-name="Odieresis" unicode="&#xd6;" horiz-adv-x="995" 
d="M750 961q108 0 193.5 -62t115.5 -163q10 -29 15 -77q16 -184 -105 -377q-41 -64 -98 -125.5t-132.5 -120.5t-170 -95.5t-190.5 -36.5q-139 0 -224 81.5t-96 194.5q-10 122 45.5 261.5t150.5 253.5t228.5 190t267.5 76zM1030 728q-25 88 -101 147.5t-176 59.5
q-116 0 -241 -68.5t-221.5 -174t-154.5 -244.5t-46 -269q10 -107 89 -177t195 -70q161 0 318.5 110.5t251.5 256.5q114 174 99 356q-3 39 -13 73zM681 1112q0 17 17 22q14 2 21 2q23 0 23 -19q0 -4 -2 -8t-4 -6t-7 -6t-6 -5q-17 -9 -21 -9q-9 0 -15 8.5t-6 20.5zM814 1117
q0 17 18 21q3 3 20 3q23 0 23 -19q0 -10 -18 -26q-16 -8 -22 -8q-8 0 -14.5 9t-6.5 20z" />
    <glyph glyph-name="multiply" unicode="&#xd7;" horiz-adv-x="553" 
d="M576 471l8 2q6 0 10.5 -4.5t4.5 -10.5q0 -12 -18 -17q-73 -38 -217 -140q-49 -34 -76 -55l126 -274q1 -1 1 -8q0 -14 -15 -14q-9 0 -12 7q-26 59 -125 271q-113 -86 -189 -157q-1 -13 -8.5 -23.5t-18.5 -10.5q-8 0 -15.5 5.5t-7.5 13.5q0 13 78 80q81 68 148 119
q-38 80 -68 151l-2 8q0 15 15 15q9 0 13 -7q20 -45 67 -149q24 19 72 53q8 6 36.5 26t39.5 28t35.5 24.5t40 25.5t37 20.5t40.5 20.5z" />
    <glyph glyph-name="Oslash" unicode="&#xd8;" horiz-adv-x="995" 
d="M750 961q57 0 112 -20q5 7 19.5 29t23.5 33q4 7 13 7q6 0 10.5 -5t4.5 -11q0 -1 -2 -7l-41 -57q61 -28 105 -78.5t64 -115.5q10 -29 15 -77q16 -184 -105 -377q-41 -64 -98 -125.5t-132.5 -120.5t-170 -95.5t-190.5 -36.5q-74 0 -138 27l-47 -80q-5 -8 -13 -8
q-15 0 -15 16q0 9 16 30l31 55q-68 37 -108 99.5t-46 136.5q-10 122 45.5 261.5t150.5 253.5t228.5 190t267.5 76zM1030 728q-18 59 -58 106.5t-97 73.5q-303 -434 -620 -953q55 -23 119 -23q161 0 318.5 110.5t251.5 256.5q114 174 99 356q-3 39 -13 73zM227 -32
q119 199 293.5 466.5t325.5 484.5q-45 16 -93 16q-116 0 -241 -68.5t-221.5 -174t-154.5 -244.5t-46 -269q6 -69 42 -124t95 -87z" />
    <glyph glyph-name="Ugrave" unicode="&#xd9;" horiz-adv-x="865" 
d="M259 917q1 2 3 8.5t4 10.5t6 7.5t9 3.5q16 0 16 -15q0 -2 -7 -18q-31 -78 -55 -154q-22 -69 -58 -209q-46 -182 -42 -324q6 -253 182 -262q119 -6 239 98q39 36 63 60t63 71t77 104q106 160 213 437q58 154 73 222q3 10 14 10q15 -1 15 -16q0 -4 -11 -46
q-18 -65 -88 -247q-96 -235 -193 -380q-99 -150 -210 -241q-137 -110 -256 -104q-204 9 -211 298q-3 123 42 320q53 222 112 366zM527 1181q-9 12 3 21q10 8 21 -3q16 -22 47 -46q75 -60 156 -75l60 -9q15 -2 13 -17q-2 -13 -17 -13q-44 6 -68 11q-128 31 -215 131z" />
    <glyph glyph-name="Uacute" unicode="&#xda;" horiz-adv-x="865" 
d="M259 917q1 2 3 8.5t4 10.5t6 7.5t9 3.5q16 0 16 -15q0 -2 -7 -18q-31 -78 -55 -154q-22 -69 -58 -209q-46 -182 -42 -324q6 -253 182 -262q119 -6 239 98q39 36 63 60t63 71t77 104q106 160 213 437q58 154 73 222q3 10 14 10q15 -1 15 -16q0 -4 -11 -46
q-18 -65 -88 -247q-96 -235 -193 -380q-99 -150 -210 -241q-137 -110 -256 -104q-204 9 -211 298q-3 123 42 320q53 222 112 366zM610 1048l-82 -24q-13 -5 -18 9q-6 13 8 19l83 24q103 33 143 49l79 29q7 11 33 21.5t38 2.5q8 -5 8.5 -14t-7.5 -13q-50 -25 -157 -60
q-22 -7 -64 -21.5t-64 -21.5z" />
    <glyph glyph-name="Ucircumflex" unicode="&#xdb;" horiz-adv-x="865" 
d="M259 917q1 2 3 8.5t4 10.5t6 7.5t9 3.5q16 0 16 -15q0 -2 -7 -18q-31 -78 -55 -154q-22 -69 -58 -209q-46 -182 -42 -324q6 -253 182 -262q119 -6 239 98q39 36 63 60t63 71t77 104q106 160 213 437q58 154 73 222q3 10 14 10q15 -1 15 -16q0 -4 -11 -46
q-18 -65 -88 -247q-96 -235 -193 -380q-99 -150 -210 -241q-137 -110 -256 -104q-204 9 -211 298q-3 123 42 320q53 222 112 366zM491 1033l-8 -2q-15 0 -15 14q0 9 8 14q29 14 102.5 64t108.5 70q25 16 37 16q7 0 12 -8q36 -60 55 -84q32 -40 58 -56l15 -9q7 -4 7 -13
q0 -15 -14 -15q-2 0 -8 2q-54 24 -133 148q-33 -19 -107.5 -69t-117.5 -72z" />
    <glyph glyph-name="Udieresis" unicode="&#xdc;" horiz-adv-x="865" 
d="M259 917q1 2 3 8.5t4 10.5t6 7.5t9 3.5q16 0 16 -15q0 -2 -7 -18q-31 -78 -55 -154q-22 -69 -58 -209q-46 -182 -42 -324q6 -253 182 -262q119 -6 239 98q39 36 63 60t63 71t77 104q106 160 213 437q58 154 73 222q3 10 14 10q15 -1 15 -16q0 -4 -11 -46
q-18 -65 -88 -247q-96 -235 -193 -380q-99 -150 -210 -241q-137 -110 -256 -104q-204 9 -211 298q-3 123 42 320q53 222 112 366zM572 1062q0 17 17 22q14 2 21 2q23 0 23 -19q0 -4 -2 -8t-4 -6t-7 -6t-6 -5q-16 -9 -21 -9q-9 0 -15 8.5t-6 20.5zM705 1067q0 17 18 21
q3 3 20 3q23 0 23 -19q0 -10 -18 -26q-16 -8 -22 -8q-8 0 -14.5 9t-6.5 20z" />
    <glyph glyph-name="Yacute" unicode="&#xdd;" horiz-adv-x="900" 
d="M330 935q4 7 12 7q6 0 11 -4t5 -10l-2 -8l-33 -56q-63 -108 -125 -235q-30 -62 -47.5 -101t-34 -96t-16.5 -102q0 -71 34 -104.5t91 -33.5q76 0 184 72.5t227 193.5q114 116 223.5 252t171.5 233q4 7 13 7q16 0 16 -14q0 -4 -2 -9t-5 -11t-4 -9q-136 -335 -231.5 -614
t-151.5 -549q0 -2 -1.5 -19t-1.5 -25q0 -63 -31 -63q-14 0 -15 16q-3 18 19 95q93 432 310 981l46 114q-36 -59 -133.5 -180t-205.5 -229q-119 -121 -231 -196.5t-198 -75.5q-42 0 -73 14.5t-48 39.5t-25 53.5t-8 60.5q0 114 128 365q53 107 132 240zM640 1039l-82 -24
q-13 -5 -18 9q-6 13 8 19l83 24q104 33 143 49l79 29q7 11 33 21.5t38 2.5q8 -5 8.5 -14t-7.5 -13q-50 -25 -157 -60q-21 -8 -64 -21.5t-64 -21.5z" />
    <glyph glyph-name="germandbls" unicode="&#xdf;" horiz-adv-x="725" 
d="M52 -11q-20 -87 -20 -91q12 0 12 -14q0 -8 -8.5 -16.5t-17.5 -8.5q-16 0 -18 18q0 40 23 119q53 209 149 449q37 93 63 153t70 138t92 138q98 120 198 120q56 0 89.5 -40.5t33.5 -97.5q0 -24 -6 -47t-22 -47t-27 -39.5t-37 -41t-35.5 -34t-38.5 -34.5q-9 -8 -31.5 -27
t-37 -32t-31.5 -30.5t-25.5 -32.5t-8.5 -27q0 -8 7.5 -17t21 -18t25 -16t27 -15.5t20.5 -11.5q35 -22 57.5 -39t48.5 -42.5t39 -54.5t13 -62q0 -51 -37.5 -91t-96.5 -61.5t-120.5 -32.5t-118.5 -11q-83 0 -130 14q-11 3 -11 14q0 12 12 18.5t24 6.5q18 0 24 -18q35 -5 83 -5
q108 0 210 37q131 52 131 127q0 24 -10.5 47.5t-21.5 38.5t-36.5 35t-35.5 26.5t-38 24.5q-6 4 -35 20.5t-42 25.5t-27 26t-14 34q0 32 37 71q26 28 78 73.5t69 61.5q35 33 56 56.5t41 61.5t20 73q0 39 -25.5 71t-64.5 32q-92 0 -174 -104q-97 -116 -195 -356
q-131 -322 -177 -515z" />
    <glyph glyph-name="agrave" unicode="&#xe0;" horiz-adv-x="561" 
d="M510 446q9 -11 9 -21q0 -15 -14 -15q-13 0 -17 15q-14 20 -49 20q-76 0 -180 -82q-69 -51 -140 -136t-71 -150q0 -44 42 -46q77 3 188 96q95 78 218 228l8 12q4 7 13 7q15 0 15 -14q0 -6 -6 -16q-65 -176 -91 -312q0 -1 -1.5 -16t-5.5 -22t-13 -7q-15 0 -15 15
q0 51 11 62q23 109 59 212l-11 -13q-112 -124 -204 -192q-90 -70 -165 -70q-31 0 -51.5 21.5t-20.5 52.5q0 76 67.5 161t155.5 150q125 89 194 89q49 0 75 -29zM270 734q-9 12 3 21q11 7 21 -3q16 -22 47 -46q75 -60 156 -75l60 -9q15 -2 13 -17q-2 -13 -17 -13
q-44 6 -68 11q-128 31 -215 131z" />
    <glyph glyph-name="aacute" unicode="&#xe1;" horiz-adv-x="561" 
d="M510 446q9 -11 9 -21q0 -15 -14 -15q-13 0 -17 15q-14 20 -49 20q-76 0 -180 -82q-69 -51 -140 -136t-71 -150q0 -44 42 -46q77 3 188 96q95 78 218 228l8 12q4 7 13 7q15 0 15 -14q0 -6 -6 -16q-65 -176 -91 -312q0 -1 -1.5 -16t-5.5 -22t-13 -7q-15 0 -15 15
q0 51 11 62q23 109 59 212l-11 -13q-112 -124 -204 -192q-90 -70 -165 -70q-31 0 -51.5 21.5t-20.5 52.5q0 76 67.5 161t155.5 150q125 89 194 89q49 0 75 -29zM337 634l-82 -24q-13 -5 -18 9q-6 13 8 19l83 24q104 33 143 49l79 29q7 11 33 21.5t38 2.5q8 -5 8.5 -14
t-7.5 -13q-50 -25 -157 -60q-22 -7 -64.5 -21t-63.5 -22z" />
    <glyph glyph-name="acircumflex" unicode="&#xe2;" horiz-adv-x="561" 
d="M510 446q9 -11 9 -21q0 -15 -14 -15q-13 0 -17 15q-14 20 -49 20q-76 0 -180 -82q-69 -51 -140 -136t-71 -150q0 -44 42 -46q77 3 188 96q95 78 218 228l8 12q4 7 13 7q15 0 15 -14q0 -6 -6 -16q-65 -176 -91 -312q0 -1 -1.5 -16t-5.5 -22t-13 -7q-15 0 -15 15
q0 51 11 62q23 109 59 212l-11 -13q-112 -124 -204 -192q-90 -70 -165 -70q-31 0 -51.5 21.5t-20.5 52.5q0 76 67.5 161t155.5 150q125 89 194 89q49 0 75 -29zM244 604l-8 -2q-15 0 -15 14q0 9 8 14q29 14 102.5 64t108.5 70q25 16 37 16q7 0 12 -8q36 -60 55 -84
q32 -40 58 -56l15 -9q7 -4 7 -13q0 -15 -14 -15q-2 0 -8 2q-54 24 -133 148q-33 -19 -107.5 -69t-117.5 -72z" />
    <glyph glyph-name="atilde" unicode="&#xe3;" horiz-adv-x="561" 
d="M510 446q9 -11 9 -21q0 -15 -14 -15q-13 0 -17 15q-14 20 -49 20q-76 0 -180 -82q-69 -51 -140 -136t-71 -150q0 -44 42 -46q77 3 188 96q95 78 218 228l8 12q4 7 13 7q15 0 15 -14q0 -6 -6 -16q-65 -176 -91 -312q0 -1 -1.5 -16t-5.5 -22t-13 -7q-15 0 -15 15
q0 51 11 62q23 109 59 212l-11 -13q-112 -124 -204 -192q-90 -70 -165 -70q-31 0 -51.5 21.5t-20.5 52.5q0 76 67.5 161t155.5 150q125 89 194 89q49 0 75 -29zM191 599q-5 -8 -13 -8q-6 0 -10.5 4.5t-4.5 10.5q0 8 17.5 33t34.5 44q72 86 123 86q25 0 44.5 -23t30 -51
t29.5 -51t43 -23q45 0 133 100l27 37q15 25 22 25q15 0 15 -14q0 -2 -2 -8q-13 -24 -53 -75q-30 -37 -68 -66t-73 -29q-52 0 -91 78l-12 24t-22 34t-24 12q-30 0 -76.5 -47.5t-69.5 -92.5z" />
    <glyph glyph-name="adieresis" unicode="&#xe4;" horiz-adv-x="561" 
d="M510 446q9 -11 9 -21q0 -15 -14 -15q-13 0 -17 15q-14 20 -49 20q-76 0 -180 -82q-69 -51 -140 -136t-71 -150q0 -44 42 -46q77 3 188 96q95 78 218 228l8 12q4 7 13 7q15 0 15 -14q0 -6 -6 -16q-65 -176 -91 -312q0 -1 -1.5 -16t-5.5 -22t-13 -7q-15 0 -15 15
q0 51 11 62q23 109 59 212l-11 -13q-112 -124 -204 -192q-90 -70 -165 -70q-31 0 -51.5 21.5t-20.5 52.5q0 76 67.5 161t155.5 150q125 89 194 89q49 0 75 -29zM331 628q0 17 17 22q14 2 21 2q23 0 23 -19q0 -4 -2 -8t-4 -6t-7 -6t-6 -5q-17 -9 -21 -9q-9 0 -15 8.5t-6 20.5
zM464 633q0 17 18 21q3 3 20 3q23 0 23 -19q0 -10 -18 -26q-16 -8 -22 -8q-8 0 -14.5 9t-6.5 20z" />
    <glyph glyph-name="aring" unicode="&#xe5;" horiz-adv-x="561" 
d="M343 538q0 59 54.5 118.5t115.5 59.5q33 0 51.5 -22t18.5 -54q0 -47 -38 -98t-91 -69q34 -5 56 -27q9 -11 9 -21q0 -15 -14 -15q-13 0 -17 15q-14 20 -49 20q-76 0 -180 -82q-69 -51 -140 -136t-71 -150q0 -44 42 -46q77 3 188 96q95 78 218 228l8 12q4 7 13 7
q15 0 15 -14q0 -6 -6 -16q-65 -176 -91 -312q0 -1 -1.5 -16t-5.5 -22t-13 -7q-15 0 -15 15q0 51 11 62q23 109 59 212l-11 -13q-112 -124 -204 -192q-90 -70 -165 -70q-31 0 -51.5 21.5t-20.5 52.5q0 76 67.5 161t155.5 150q85 64 154 83q-52 13 -52 69zM553 641
q0 17 -11.5 31t-32.5 14q-45 0 -90.5 -47.5t-45.5 -99.5q0 -43 45 -43t90 49.5t45 95.5z" />
    <glyph glyph-name="ae" unicode="&#xe6;" horiz-adv-x="843" 
d="M418 89q0 -30 23.5 -47.5t55.5 -17.5q76 0 157.5 37t143.5 93q4 4 10 4q16 0 16 -15q0 -7 -4 -10q-71 -61 -157 -100t-168 -39q-62 0 -93 45q0 -1 -0.5 -3t-0.5 -4q0 -1 -1.5 -16t-5.5 -22t-13 -7q-15 0 -15 15q0 51 11 62q23 109 59 212l-11 -13q-112 -124 -204 -192
q-90 -70 -165 -70q-31 0 -51.5 21.5t-20.5 52.5q0 76 67.5 161t155.5 150q125 89 194 89q49 0 75 -29q9 -11 9 -21q0 -15 -14 -15q-13 0 -17 15q-14 20 -49 20q-76 0 -180 -82q-69 -51 -140 -136t-71 -150q0 -44 42 -46q77 3 188 96q95 78 218 228l8 12q4 7 13 7
q15 0 15 -14q0 -6 -6 -16l-20 -56q57 72 126 121q96 67 182 67q34 0 60 -15t26 -49q0 -33 -36 -69q-55 -55 -157 -91t-192 -36q-15 0 -22 1q-41 -78 -41 -128zM579 257q55 11 97 28q36 14 67.5 29.5t62 43t30.5 53.5q0 36 -51 36q-77 0 -165.5 -60.5t-141.5 -140.5
q46 0 101 11z" />
    <glyph glyph-name="ccedilla" unicode="&#xe7;" horiz-adv-x="491" 
d="M467 443q0 -8 -5.5 -15.5t-14.5 -7.5q-6 0 -10 5t-4 11q0 1 2 7q-5 5 -18 5q-46 0 -110 -40q-54 -32 -108 -77t-101 -111t-47 -124q0 -35 28.5 -50.5t65.5 -15.5q128 0 307 130q6 2 7 2q6 0 10.5 -5t4.5 -10q0 -9 -7 -13l-24 -17q-119 -82 -207 -105l-19 -54
q82 -7 82 -75q0 -32 -32.5 -65.5t-86.5 -60.5q-70 -36 -125 -31q-9 2 -9 15t12 14q55 4 104 29q41 21 72 48t31 50q0 17 -11.5 31t-32.5 14h-10q-4 -2 -10 -2q-8 0 -13.5 5t-3.5 13q4 25 21 63q-31 -6 -64 -6q-55 0 -87.5 27t-32.5 74q0 81 82 175.5t191 157.5q78 44 124 44
q19 0 34 -8.5t15 -26.5z" />
    <glyph glyph-name="egrave" unicode="&#xe8;" horiz-adv-x="495" 
d="M46 89q0 -30 23.5 -47.5t55.5 -17.5q76 0 157.5 37t143.5 93q4 4 10 4q16 0 16 -15q0 -7 -4 -10q-71 -61 -157 -100t-168 -39q-43 0 -75 26t-32 68q0 45 19 91q25 60 76 123t115 107q96 67 182 67q34 0 60 -15t26 -49q0 -33 -36 -69q-55 -55 -157 -91t-192 -36
q-15 0 -22 1q-41 -76 -41 -128zM207 257q55 11 97 28q36 14 67.5 29.5t62 43t30.5 53.5q0 36 -51 36q-77 0 -165.5 -60.5t-141.5 -140.5q46 0 101 11zM229 734q-9 12 3 21q10 7 21 -3q16 -22 47 -46q75 -60 156 -75l60 -9q15 -2 13 -17q-2 -13 -17 -13q-43 6 -68 11
q-128 31 -215 131z" />
    <glyph glyph-name="eacute" unicode="&#xe9;" horiz-adv-x="495" 
d="M46 89q0 -30 23.5 -47.5t55.5 -17.5q76 0 157.5 37t143.5 93q4 4 10 4q16 0 16 -15q0 -7 -4 -10q-71 -61 -157 -100t-168 -39q-43 0 -75 26t-32 68q0 45 19 91q25 60 76 123t115 107q96 67 182 67q34 0 60 -15t26 -49q0 -33 -36 -69q-55 -55 -157 -91t-192 -36
q-15 0 -22 1q-41 -76 -41 -128zM207 257q55 11 97 28q36 14 67.5 29.5t62 43t30.5 53.5q0 36 -51 36q-77 0 -165.5 -60.5t-141.5 -140.5q46 0 101 11zM289 634l-82 -24q-13 -5 -18 9q-6 13 8 19l83 24q104 33 143 49l79 29q7 11 33 21.5t38 2.5q8 -5 8.5 -14t-7.5 -13
q-50 -25 -157 -60q-21 -7 -63.5 -21t-64.5 -22z" />
    <glyph glyph-name="ecircumflex" unicode="&#xea;" horiz-adv-x="495" 
d="M46 89q0 -30 23.5 -47.5t55.5 -17.5q76 0 157.5 37t143.5 93q4 4 10 4q16 0 16 -15q0 -7 -4 -10q-71 -61 -157 -100t-168 -39q-43 0 -75 26t-32 68q0 45 19 91q25 60 76 123t115 107q96 67 182 67q34 0 60 -15t26 -49q0 -33 -36 -69q-55 -55 -157 -91t-192 -36
q-15 0 -22 1q-41 -76 -41 -128zM207 257q55 11 97 28q36 14 67.5 29.5t62 43t30.5 53.5q0 36 -51 36q-77 0 -165.5 -60.5t-141.5 -140.5q46 0 101 11zM188 604l-8 -2q-15 0 -15 14q0 9 8 14q29 14 102.5 64t108.5 70q25 16 37 16q7 0 12 -8q36 -60 55 -84q32 -40 58 -56
l15 -9q7 -4 7 -13q0 -15 -14 -15q-2 0 -8 2q-54 24 -133 148q-33 -19 -107.5 -69t-117.5 -72z" />
    <glyph glyph-name="edieresis" unicode="&#xeb;" horiz-adv-x="495" 
d="M46 89q0 -30 23.5 -47.5t55.5 -17.5q76 0 157.5 37t143.5 93q4 4 10 4q16 0 16 -15q0 -7 -4 -10q-71 -61 -157 -100t-168 -39q-43 0 -75 26t-32 68q0 45 19 91q25 60 76 123t115 107q96 67 182 67q34 0 60 -15t26 -49q0 -33 -36 -69q-55 -55 -157 -91t-192 -36
q-15 0 -22 1q-41 -76 -41 -128zM207 257q55 11 97 28q36 14 67.5 29.5t62 43t30.5 53.5q0 36 -51 36q-77 0 -165.5 -60.5t-141.5 -140.5q46 0 101 11zM278 632q0 17 17 22q14 2 21 2q23 0 23 -19q0 -4 -2 -8t-4 -6t-7 -6t-6 -5q-16 -9 -21 -9q-9 0 -15 8.5t-6 20.5zM411 637
q0 17 18 21q3 3 20 3q23 0 23 -19q0 -10 -18 -26q-16 -8 -22 -8q-8 0 -14.5 9t-6.5 20z" />
    <glyph glyph-name="igrave" unicode="&#xec;" horiz-adv-x="228" 
d="M174 444q4 7 13 7q14 0 14 -13q0 -7 -1 -9q-58 -165 -91 -302q-18 -62 -24 -120q-2 -15 -16 -15t-14 15q1 21 9 59q39 198 110 378zM75 734q-9 12 3 21q10 7 21 -3q16 -22 47 -46q75 -60 156 -75l60 -9q15 -2 13 -17q-2 -13 -17 -13q-43 6 -68 11q-128 31 -215 131z" />
    <glyph glyph-name="iacute" unicode="&#xed;" horiz-adv-x="228" 
d="M174 444q4 7 13 7q14 0 14 -13q0 -7 -1 -9q-58 -165 -91 -302q-18 -62 -24 -120q-2 -15 -16 -15t-14 15q1 21 9 59q39 198 110 378zM158 634l-82 -24q-13 -5 -18 9q-6 13 8 19l83 24q104 33 143 49l79 29q7 11 33 21.5t38 2.5q8 -5 8.5 -14t-7.5 -13q-50 -25 -157 -60
q-21 -7 -64 -21t-64 -22z" />
    <glyph glyph-name="icircumflex" unicode="&#xee;" horiz-adv-x="228" 
d="M174 444q4 7 13 7q14 0 14 -13q0 -7 -1 -9q-58 -165 -91 -302q-18 -62 -24 -120q-2 -15 -16 -15t-14 15q1 21 9 59q39 198 110 378zM28 604l-8 -2q-15 0 -15 14q0 9 8 14q29 14 102.5 64t108.5 70q25 16 37 16q7 0 12 -8q36 -60 55 -84q32 -40 58 -56l15 -9q7 -4 7 -13
q0 -15 -14 -15q-2 0 -8 2q-54 24 -133 148q-33 -19 -107.5 -69t-117.5 -72z" />
    <glyph glyph-name="idieresis" unicode="&#xef;" horiz-adv-x="228" 
d="M174 444q4 7 13 7q14 0 14 -13q0 -7 -1 -9q-58 -165 -91 -302q-18 -62 -24 -120q-2 -15 -16 -15t-14 15q1 21 9 59q39 198 110 378zM135 632q0 17 17 22q14 2 21 2q23 0 23 -19q0 -4 -2 -8t-4 -6t-7 -6t-6 -5q-17 -9 -21 -9q-9 0 -15 8.5t-6 20.5zM268 637q0 17 18 21
q3 3 20 3q23 0 23 -19q0 -10 -18 -26q-16 -8 -22 -8q-8 0 -14.5 9t-6.5 20z" />
    <glyph glyph-name="ntilde" unicode="&#xf1;" horiz-adv-x="555" 
d="M360 405q-54 -41 -111 -105q-107 -118 -194 -269q-3 -5 -7 -12.5t-6 -11t-4.5 -7.5t-5.5 -5.5t-7 -1.5q-6 0 -10.5 4t-4.5 10q0 14 22 76q48 155 133 361q3 7 12 7q15 0 15 -14q0 -2 -2 -8q-45 -108 -103 -275l-10 -29q76 111 153 197q143 157 230 157q28 0 45 -15.5
t18 -42.5q1 -18 -11 -74q-2 -11 -39 -157q-31 -118 -31 -172q0 -12 1 -15q8 -5 8 -14q0 -15 -15 -15q-24 0 -24 47q0 28 6 54q7 47 29 137q5 19 18 65.5t20.5 80.5t7.5 61q0 30 -32 30q-42 0 -101 -44zM159 599q-5 -8 -13 -8q-6 0 -10.5 4.5t-4.5 10.5q0 8 17.5 33t34.5 44
q72 86 123 86q25 0 44.5 -23t30 -51t29.5 -51t43 -23q45 0 133 100l27 37q15 25 22 25q15 0 15 -14q0 -2 -2 -8q-13 -24 -53 -75q-30 -37 -68 -66t-73 -29q-52 0 -91 78l-12 24t-22 34t-24 12q-30 0 -76.5 -47.5t-69.5 -92.5z" />
    <glyph glyph-name="ograve" unicode="&#xf2;" horiz-adv-x="488" 
d="M23 117q1 78 55 154q56 81 138.5 142t167.5 61q54 0 84 -32t30 -81q0 -71 -45 -142.5t-113 -127.5q-112 -90 -198 -90q-57 0 -88 34t-31 82zM53 116q0 -35 24 -60.5t61 -25.5q76 0 182 82q56 45 102 114t46 135q0 38 -23 60.5t-59 22.5q-89 0 -188 -84
q-54 -46 -99.5 -110.5t-45.5 -133.5zM225 734q-9 12 3 21q10 7 21 -3q16 -22 47 -46q75 -60 156 -75l60 -9q15 -2 13 -17q-2 -13 -17 -13q-43 6 -68 11q-128 31 -215 131z" />
    <glyph glyph-name="oacute" unicode="&#xf3;" horiz-adv-x="488" 
d="M23 117q1 78 55 154q56 81 138.5 142t167.5 61q54 0 84 -32t30 -81q0 -71 -45 -142.5t-113 -127.5q-112 -90 -198 -90q-57 0 -88 34t-31 82zM53 116q0 -35 24 -60.5t61 -25.5q76 0 182 82q56 45 102 114t46 135q0 38 -23 60.5t-59 22.5q-89 0 -188 -84
q-54 -46 -99.5 -110.5t-45.5 -133.5zM301 634l-82 -24q-13 -5 -18 9q-6 13 8 19l83 24q104 33 143 49l79 29q7 11 33 21.5t38 2.5q8 -5 8.5 -14t-7.5 -13q-50 -25 -157 -60q-22 -7 -64.5 -21t-63.5 -22z" />
    <glyph glyph-name="ocircumflex" unicode="&#xf4;" horiz-adv-x="488" 
d="M23 117q1 78 55 154q56 81 138.5 142t167.5 61q54 0 84 -32t30 -81q0 -71 -45 -142.5t-113 -127.5q-112 -90 -198 -90q-57 0 -88 34t-31 82zM53 116q0 -35 24 -60.5t61 -25.5q76 0 182 82q56 45 102 114t46 135q0 38 -23 60.5t-59 22.5q-89 0 -188 -84
q-54 -46 -99.5 -110.5t-45.5 -133.5zM188 604l-8 -2q-15 0 -15 14q0 9 8 14q29 14 102.5 64t108.5 70q25 16 37 16q7 0 12 -8q36 -60 55 -84q32 -40 58 -56l15 -9q7 -4 7 -13q0 -15 -14 -15q-2 0 -8 2q-54 24 -133 148q-33 -19 -107.5 -69t-117.5 -72z" />
    <glyph glyph-name="otilde" unicode="&#xf5;" horiz-adv-x="488" 
d="M23 117q1 78 55 154q56 81 138.5 142t167.5 61q54 0 84 -32t30 -81q0 -71 -45 -142.5t-113 -127.5q-112 -90 -198 -90q-57 0 -88 34t-31 82zM53 116q0 -35 24 -60.5t61 -25.5q76 0 182 82q56 45 102 114t46 135q0 38 -23 60.5t-59 22.5q-89 0 -188 -84
q-54 -46 -99.5 -110.5t-45.5 -133.5zM147 599q-5 -8 -13 -8q-6 0 -10.5 4.5t-4.5 10.5q0 8 17.5 33t34.5 44q72 86 123 86q25 0 44.5 -23t30 -51t29.5 -51t43 -23q45 0 133 100l27 37q15 25 22 25q15 0 15 -14q0 -2 -2 -8q-13 -24 -53 -75q-30 -37 -68 -66t-73 -29
q-52 0 -91 78l-12 24t-22 34t-24 12q-30 0 -76.5 -47.5t-69.5 -92.5z" />
    <glyph glyph-name="odieresis" unicode="&#xf6;" horiz-adv-x="488" 
d="M23 117q1 78 55 154q56 81 138.5 142t167.5 61q54 0 84 -32t30 -81q0 -71 -45 -142.5t-113 -127.5q-112 -90 -198 -90q-57 0 -88 34t-31 82zM53 116q0 -35 24 -60.5t61 -25.5q76 0 182 82q56 45 102 114t46 135q0 38 -23 60.5t-59 22.5q-89 0 -188 -84
q-54 -46 -99.5 -110.5t-45.5 -133.5zM300 627q0 17 17 22q14 2 21 2q23 0 23 -19q0 -4 -2 -8t-4 -6t-7 -6t-6 -5q-16 -9 -21 -9q-9 0 -15 8.5t-6 20.5zM433 632q0 16 18 21q3 3 20 3q23 0 23 -19q0 -10 -18 -26q-16 -8 -22 -8q-8 0 -14.5 9t-6.5 20z" />
    <glyph glyph-name="divide" unicode="&#xf7;" horiz-adv-x="503" 
d="M60 213q-6 0 -10.5 5t-4.5 10q0 15 15 15q67 3 139 3q128 0 256 -6q15 -2 15 -15q0 -6 -4.5 -10.5t-10.5 -4.5q-130 6 -258 6q-69 0 -137 -3zM201 114q2 2 7 2q8 0 16.5 -11.5t8.5 -23.5q0 -18 -14 -32t-33 -14q-23 0 -23 16q3 40 38 63zM306 420q2 2 7 2q8 0 16.5 -11.5
t8.5 -23.5q0 -18 -14 -32t-33 -14q-23 0 -23 16q3 40 38 63z" />
    <glyph glyph-name="oslash" unicode="&#xf8;" horiz-adv-x="488" 
d="M23 117q1 78 55 154q56 81 138.5 142t167.5 61q14 0 27 -3l50 71q4 7 13 7q6 0 10.5 -5t4.5 -11q0 -1 -2 -7q-8 -11 -23 -33t-23 -32q57 -29 57 -100t-45 -142.5t-113 -127.5q-112 -90 -198 -90h-9q-49 -83 -53 -90q-5 -8 -13 -8q-15 0 -15 16q0 9 16 30l33 58
q-38 11 -58 41t-20 69zM53 116q0 -30 17 -53t46 -31q28 48 53 88.5t39 63.5t43 64.5t36.5 52.5t49.5 69t54 74h-5q-89 0 -188 -84q-54 -46 -99.5 -110.5t-45.5 -133.5zM423 436q-105 -145 -153 -216t-120 -190q70 5 170 82q56 45 102 114t46 135q0 55 -45 75z" />
    <glyph glyph-name="ugrave" unicode="&#xf9;" horiz-adv-x="547" 
d="M121 270q-19 -44 -28 -66t-19.5 -60.5t-10.5 -70.5q0 -40 40 -40q53 0 142 82q102 93 259 328q12 21 21 21q16 0 16 -14q0 -1 -2 -7q-90 -236 -111 -416q-1 -3 -1 -14t-3 -16t-12 -5q-6 0 -10.5 4.5t-4.5 10.5q0 21 6 59q17 118 68 276q-120 -170 -199 -244
q-29 -27 -51 -44.5t-56.5 -34t-65.5 -16.5q-29 0 -47.5 20t-18.5 55q0 89 76 235q30 65 46 90q2 13 7 27.5t16.5 29t25.5 14.5q15 0 15 -15q0 -1 -2 -7l-11 -19q-55 -95 -85 -163zM256 734q-9 12 3 21q11 7 21 -3q16 -22 47 -46q75 -60 156 -75q9 -2 19 -3.5t22 -3t19 -2.5
q15 -2 13 -17q-2 -13 -17 -13q-44 6 -68 11q-128 31 -215 131z" />
    <glyph glyph-name="uacute" unicode="&#xfa;" horiz-adv-x="547" 
d="M121 270q-19 -44 -28 -66t-19.5 -60.5t-10.5 -70.5q0 -40 40 -40q53 0 142 82q102 93 259 328q12 21 21 21q16 0 16 -14q0 -1 -2 -7q-90 -236 -111 -416q-1 -3 -1 -14t-3 -16t-12 -5q-6 0 -10.5 4.5t-4.5 10.5q0 21 6 59q17 118 68 276q-120 -170 -199 -244
q-29 -27 -51 -44.5t-56.5 -34t-65.5 -16.5q-29 0 -47.5 20t-18.5 55q0 89 76 235q30 65 46 90q2 13 7 27.5t16.5 29t25.5 14.5q15 0 15 -15q0 -1 -2 -7l-11 -19q-55 -95 -85 -163zM296 634l-82 -24q-13 -5 -18 9q-6 13 8 19l83 24q103 33 143 49l79 29q7 11 33 21.5t38 2.5
q8 -5 8.5 -14t-7.5 -13q-50 -25 -157 -60q-21 -7 -64 -21t-64 -22z" />
    <glyph glyph-name="ucircumflex" unicode="&#xfb;" horiz-adv-x="547" 
d="M121 270q-19 -44 -28 -66t-19.5 -60.5t-10.5 -70.5q0 -40 40 -40q53 0 142 82q102 93 259 328q12 21 21 21q16 0 16 -14q0 -1 -2 -7q-90 -236 -111 -416q-1 -3 -1 -14t-3 -16t-12 -5q-6 0 -10.5 4.5t-4.5 10.5q0 21 6 59q17 118 68 276q-120 -170 -199 -244
q-29 -27 -51 -44.5t-56.5 -34t-65.5 -16.5q-29 0 -47.5 20t-18.5 55q0 89 76 235q30 65 46 90q2 13 7 27.5t16.5 29t25.5 14.5q15 0 15 -15q0 -1 -2 -7l-11 -19q-55 -95 -85 -163zM184 604l-8 -2q-15 0 -15 14q0 9 8 14q29 14 102.5 64t108.5 70q25 16 37 16q7 0 12 -8
q36 -60 55 -84q32 -40 58 -56l15 -9q7 -4 7 -13q0 -15 -14 -15q-2 0 -8 2q-54 24 -133 148q-33 -19 -107.5 -69t-117.5 -72z" />
    <glyph glyph-name="udieresis" unicode="&#xfc;" horiz-adv-x="547" 
d="M121 270q-19 -44 -28 -66t-19.5 -60.5t-10.5 -70.5q0 -40 40 -40q53 0 142 82q102 93 259 328q12 21 21 21q16 0 16 -14q0 -1 -2 -7q-90 -236 -111 -416q-1 -3 -1 -14t-3 -16t-12 -5q-6 0 -10.5 4.5t-4.5 10.5q0 21 6 59q17 118 68 276q-120 -170 -199 -244
q-29 -27 -51 -44.5t-56.5 -34t-65.5 -16.5q-29 0 -47.5 20t-18.5 55q0 89 76 235q30 65 46 90q2 13 7 27.5t16.5 29t25.5 14.5q15 0 15 -15q0 -1 -2 -7l-11 -19q-55 -95 -85 -163zM293 634q0 17 17 22q14 2 21 2q23 0 23 -19q0 -4 -2 -8t-4 -6t-7 -6t-6 -5q-17 -9 -21 -9
q-9 0 -15 8.5t-6 20.5zM426 639q0 17 18 21q3 3 20 3q23 0 23 -19q0 -10 -18 -26q-16 -8 -22 -8q-8 0 -14.5 9t-6.5 20z" />
    <glyph glyph-name="yacute" unicode="&#xfd;" horiz-adv-x="550" 
d="M515 447l12 28q3 11 14 11q6 0 11 -4.5t5 -10.5q0 -2 -2 -7t-5 -11t-4 -9q-35 -86 -81 -231q-98 -305 -146 -527q-3 -15 -17.5 -77.5t-21 -105t-6.5 -80.5q0 -19 2 -23.5t2 -9.5q0 -14 -15 -14q-20 0 -20 44q0 66 37.5 232.5t83.5 329.5q69 245 108 349
q-81 -127 -186 -226q-112 -105 -187 -105q-34 0 -56 20.5t-22 57.5q0 57 35 144q30 73 79 167q3 23 16 47.5t33 24.5q15 0 15 -15q0 -8 -13 -26q-49 -86 -78 -150q-57 -127 -57 -192q0 -29 12 -38t34 -9q50 0 125.5 61.5t133 128.5t98.5 127q6 9 31.5 51.5t29.5 47.5z
M266 634l-82 -24q-13 -5 -18 9q-6 13 8 19l83 24q104 33 143 49l79 29q7 11 33 21.5t38 2.5q8 -5 8.5 -14t-7.5 -13q-50 -25 -157 -60q-21 -7 -63.5 -21t-64.5 -22z" />
    <glyph glyph-name="ydieresis" unicode="&#xff;" horiz-adv-x="550" 
d="M515 447l12 28q3 11 14 11q6 0 11 -4.5t5 -10.5q0 -2 -2 -7t-5 -11t-4 -9q-35 -86 -81 -231q-98 -305 -146 -527q-3 -15 -17.5 -77.5t-21 -105t-6.5 -80.5q0 -19 2 -23.5t2 -9.5q0 -14 -15 -14q-20 0 -20 44q0 66 37.5 232.5t83.5 329.5q69 245 108 349
q-81 -127 -186 -226q-112 -105 -187 -105q-34 0 -56 20.5t-22 57.5q0 57 35 144q30 73 79 167q3 23 16 47.5t33 24.5q15 0 15 -15q0 -8 -13 -26q-49 -86 -78 -150q-57 -127 -57 -192q0 -29 12 -38t34 -9q50 0 125.5 61.5t133 128.5t98.5 127q6 9 31.5 51.5t29.5 47.5z
M274 629q0 17 17 22q14 2 21 2q23 0 23 -19q0 -4 -2 -8t-4 -6t-7 -6t-6 -5q-16 -9 -21 -9q-9 0 -15 8.5t-6 20.5zM407 634q0 16 18 21q3 3 20 3q23 0 23 -19q0 -10 -18 -26q-16 -8 -22 -8q-8 0 -14.5 9t-6.5 20z" />
    <glyph glyph-name="OE" unicode="&#x152;" horiz-adv-x="1554" 
d="M1471 48q14 0 16 -14q1 -5 -3.5 -10.5t-10.5 -5.5l-24 1q-123 5 -191 5q-66 0 -129 -3.5t-142 -9t-129 -8.5q-114 -6 -169 -14q-53 -8 -75 -16q-2 -7 -7 -11q-8 -6 -20 -1l-1 1q-118 -58 -239 -58q-139 0 -224 81.5t-96 194.5q-10 122 45.5 261.5t150.5 253.5t228.5 190
t267.5 76q108 0 193.5 -62t115.5 -163q10 -29 15 -77q6 -79 -11 -157q154 13 396 18q13 0 15 -15q0 -6 -4.5 -10.5t-10.5 -4.5l-137 -3q-102 -4 -203 -10l-64 -5q-26 -92 -86 -190q-42 -67 -109.5 -138.5t-147.5 -126.5q44 7 171 16q269 19 393 19q187 -2 226 -4zM999 728
q-25 88 -101 147.5t-176 59.5q-116 0 -241 -68.5t-221.5 -174t-154.5 -244.5t-46 -269q10 -107 89 -177t195 -70q161 0 318.5 110.5t251.5 256.5q53 79 79 170l-110 -11q-6 -13 -21 -13q-11 0 -20.5 6.5t-9.5 17.5q0 13 15 15q84 9 154 15q18 77 12 156q-3 39 -13 73z
M1299 905q-148 -7 -277 -19v-3q0 -17 -26 -17q-9 0 -23.5 8t-14.5 22q0 19 52 19q17 2 288 20q166 10 445 10q6 0 10.5 -4.5t4.5 -10.5q0 -15 -15 -15q-262 0 -444 -10z" />
    <glyph glyph-name="oe" unicode="&#x153;" horiz-adv-x="824" 
d="M395 89q0 -30 23.5 -47.5t55.5 -17.5q76 0 157.5 37t143.5 93q4 4 10 4q16 0 16 -15q0 -7 -4 -10q-71 -61 -157 -100t-168 -39q-43 0 -75 26t-32 68q0 21 5 46q-26 -26 -47 -43q-112 -90 -198 -90q-57 0 -88 34t-31 82q1 78 55 154q56 81 138.5 142t167.5 61q54 0 84 -32
t30 -81q0 -19 -3 -39q42 48 97 87q96 67 182 67q34 0 60 -15t26 -49q0 -33 -36 -69q-55 -55 -157 -91t-192 -36q-15 0 -22 1q-41 -76 -41 -128zM36 116q0 -35 24 -60.5t61 -25.5q76 0 182 82q56 45 102 114t46 135q0 38 -23 60.5t-59 22.5q-89 0 -188 -84
q-54 -46 -99.5 -110.5t-45.5 -133.5zM556 257q55 11 97 28q36 14 67.5 29.5t62 43t30.5 53.5q0 36 -51 36q-77 0 -165.5 -60.5t-141.5 -140.5q46 0 101 11z" />
    <glyph glyph-name="Ydieresis" unicode="&#x178;" horiz-adv-x="900" 
d="M330 935q4 7 12 7q6 0 11 -4t5 -10l-2 -8l-33 -56q-63 -108 -125 -235q-30 -62 -47.5 -101t-34 -96t-16.5 -102q0 -71 34 -104.5t91 -33.5q76 0 184 72.5t227 193.5q114 116 223.5 252t171.5 233q4 7 13 7q16 0 16 -14q0 -4 -2 -9t-5 -11t-4 -9q-136 -335 -231.5 -614
t-151.5 -549q0 -2 -1.5 -19t-1.5 -25q0 -63 -31 -63q-14 0 -15 16q-3 18 19 95q93 432 310 981l46 114q-36 -59 -133.5 -180t-205.5 -229q-119 -121 -231 -196.5t-198 -75.5q-42 0 -73 14.5t-48 39.5t-25 53.5t-8 60.5q0 114 128 365q53 107 132 240zM598 1054q0 17 17 22
q14 2 21 2q23 0 23 -19q0 -4 -2 -8t-4 -6t-7 -6t-6 -5q-16 -9 -21 -9q-9 0 -15 8.5t-6 20.5zM731 1059q0 17 18 21q3 3 20 3q23 0 23 -19q0 -10 -18 -26q-16 -8 -22 -8q-8 0 -14.5 9t-6.5 20z" />
    <glyph glyph-name="circumflex" unicode="&#x2c6;" horiz-adv-x="408" 
d="M100 604l-8 -2q-15 0 -15 14q0 9 8 14q29 14 102.5 64t108.5 70q25 16 37 16q7 0 12 -8q36 -60 55 -84q32 -40 58 -56l15 -9q7 -4 7 -13q0 -15 -14 -15q-2 0 -8 2q-54 24 -133 148q-33 -19 -107.5 -69t-117.5 -72z" />
    <glyph glyph-name="ring" unicode="&#x2da;" horiz-adv-x="315" 
d="M119 556q0 59 54.5 118.5t115.5 59.5q33 0 51.5 -22t18.5 -54q0 -56 -52.5 -114.5t-115.5 -58.5q-31 0 -51.5 19.5t-20.5 51.5zM329 659q0 17 -11.5 31t-32.5 14q-45 0 -90.5 -47.5t-45.5 -99.5q0 -43 45 -43t90 49.5t45 95.5z" />
    <glyph glyph-name="tilde" unicode="&#x2dc;" horiz-adv-x="512" 
d="M125 599q-5 -8 -13 -8q-6 0 -10.5 4.5t-4.5 10.5q0 8 17.5 33t34.5 44q72 86 123 86q25 0 44.5 -23t30 -51t29.5 -51t43 -23q45 0 133 100l27 37q15 25 22 25q15 0 15 -14q0 -2 -2 -8q-13 -24 -53 -75q-30 -37 -68 -66t-73 -29q-52 0 -91 78l-12 24t-22 34t-24 12
q-30 0 -76.5 -47.5t-69.5 -92.5z" />
    <glyph glyph-name="perthousand" unicode="&#x2030;" horiz-adv-x="1215" 
d="M331 923q52 0 82.5 -26t32.5 -77q0 -78 -62 -138.5t-140 -60.5q-49 0 -83.5 29.5t-34.5 76.5q0 75 63.5 135.5t141.5 60.5zM601 226l13 17q3 4 10 4q5 0 6 -1q64 42 119 42q46 0 76 -26.5t30 -67.5q0 -76 -68.5 -143t-146.5 -67q-44 0 -73 29.5t-29 72.5q0 36 16 67.5
t47 72.5zM336 893h-7q-64 0 -118.5 -52.5t-54.5 -114.5q0 -36 26.5 -55.5t62.5 -19.5q62 0 116.5 49.5t54.5 114.5q0 41 -23 59.5t-57 18.5zM673 237q-9 -6 -26 -17.5t-27 -16.5v-1q-53 -68 -53 -118q0 -29 19.5 -49.5t52.5 -20.5q67 0 126.5 56.5t59.5 122.5q0 31 -22 48
t-54 17q-36 0 -76 -21zM916 909q6 2 7 2q6 0 11 -4.5t5 -10.5q0 -8 -8 -13q-163 -111 -377 -315q-254 -243 -390 -422q-4 -5 -17.5 -23t-19.5 -26.5t-16 -23.5t-17.5 -28.5t-12.5 -26.5v-1q5 -5 5 -12q0 -14 -15 -14q-21 0 -21 25q0 11 8 27q21 45 95 138q162 199 362 396
t401 332zM875 54q-15 70 49 144.5t150 80.5q49 2 80.5 -22.5t38.5 -62.5q13 -67 -48 -139.5t-151 -76.5q-45 -2 -78 18t-41 58zM1160 195q-3 22 -25 40t-57 16q-70 -4 -127 -66.5t-43 -127.5q13 -59 81 -55q70 4 126.5 68.5t44.5 124.5z" />
    <glyph glyph-name="Euro" unicode="&#x20ac;" horiz-adv-x="863" 
d="M896 787q2 -6 2 -7q0 -6 -4.5 -11t-10.5 -5q-9 0 -13 7q-33 46 -103 46q-85 0 -198 -55q-146 -71 -250 -198l-14 -17l115 2q20 0 60 -1t50 -1q71 0 71 -18q0 -7 -6.5 -14t-14.5 -7q-14 0 -15 10q-56 3 -132 3q-99 0 -148 -1q-38 -48 -65 -105q112 6 166 6t106 -3
q15 0 15 -15q0 -6 -4.5 -10.5t-10.5 -4.5q-51 3 -102 3q-77 0 -184 -7q-23 -55 -23 -113q0 -86 61.5 -124t149.5 -38q130 0 265 66.5t224 173.5q3 4 10 4q15 0 15 -15q0 -10 -37 -47q-93 -95 -223 -154t-256 -59q-44 0 -84.5 10.5t-76 32.5t-56.5 60.5t-21 88.5t18 101l4 12
l-122 -9q-15 0 -15 15q0 13 15 15l134 9q21 47 59 106q-104 -6 -155 -14l-2 -1h-2q-15 0 -15 12q0 10 11 15q89 12 182 15q114 157 294 244q116 57 203 57q91 0 133 -60z" />
    <glyph glyph-name="trademark" unicode="&#x2122;" horiz-adv-x="614" 
d="M353 693q-4 -11 -17 -6q-10 7 -5 19q40 77 90 146q20 29 59.5 69t58.5 40q5 0 8.5 -2t4.5 -8.5t1 -9v-11.5q-3 -38 -20 -127q24 35 51 69q4 4 19 23t27 33t28.5 26.5t28.5 12.5q5 0 9 -2.5t6 -9.5t3 -11.5t2 -15.5t1 -14q3 -41 -7 -121q-10 -99 -13 -115q0 -12 -12 -14
q-5 0 -10 4.5t-4 9.5l3 19q3 16 11 107q8 89 3 133q-8 -6 -16.5 -13.5t-14 -13.5t-15 -17t-13.5 -16t-14 -18.5t-13 -17.5q-40 -51 -77 -117q-2 -5 -7.5 -7t-8.5 1q-13 6 -7 16q5 21 11.5 58.5t8.5 49.5q7 28 13 86q-42 -33 -95 -110q-38 -50 -78 -125zM194 968q12 0 12 -11
q64 9 110 10q106 0 131 -4q11 -1 8 -14q-5 -12 -16 -10q-20 2 -109 2q-24 -44 -65 -150q-30 -81 -37 -103q-1 -6 -6.5 -8.5t-10.5 -0.5q-5 1 -8 6t-1 9q12 33 18 55q52 133 80 190q-44 -1 -97 -8h-2h-11t-11.5 2t-7.5 6v11q9 18 23 18z" />
    <glyph glyph-name="t.alt" horiz-adv-x="256" 
d="M59 719l36 5q1 0 7 -2l80 5q62 2 85 2q62 173 70 193q4 13 18 10q6 -1 9.5 -7t1.5 -11l-9 -23l-60 -161q75 3 212 -3q15 0 15 -13q0 -6 -4.5 -10.5t-10.5 -4.5q-130 6 -222 2q-76 -222 -137 -444q-31 -115 -41 -164q-10 -53 -9 -77q8 -8 8 -10q3 -10 -6 -19t-20 -4
q-10 4 -12 19q-5 30 9 90q12 60 41 169q43 159 136 438q-2 0 -197 -10q-6 0 -10.5 5t-4.5 11q-1 6 3.5 9.5t11.5 4.5z" />
    <glyph glyph-name="f.alt" horiz-adv-x="300" 
d="M566 971q30 0 30 -15q-2 -13 -15 -13h-17q-111 0 -206 -157q-41 -68 -92 -194q-8 -19 -22 -57q68 4 163 4q78 0 101 -2q14 -1 15 -15q0 -6 -4.5 -10.5t-9.5 -4.5q-21 0 -62 1t-62 1q-68 0 -153 -5q-31 -87 -73 -228q-61 -206 -101 -361q-73 -297 -80 -366q7 -4 7 -17
q0 -9 -6.5 -15.5t-14.5 -6.5q-18 0 -18 22q23 168 93.5 435.5t156.5 523.5l4 11q-99 -7 -142 -17q-1 0 -4 -1q-6 0 -11 4t-5 10q0 13 12 16q67 13 160 19q22 63 42.5 113t54.5 114.5t70 107.5t85.5 73t103.5 30z" />
    <glyph glyph-name="j.alt" horiz-adv-x="184" 
d="M-266 -618q-15 0 -15 14t13 16q35 3 70 41q46 52 97 161.5t94.5 240t68.5 214.5t44 156q23 88 23 89q2 9 5.5 24t4.5 18q3 14 13.5 50.5t14.5 56.5q5 11 15 11q15 0 15 -14l-1 -4q-1 -4 -8.5 -32t-18.5 -74l-34 -131q-33 -121 -59.5 -210t-70.5 -218t-92.5 -223.5
t-96.5 -142.5q-42 -41 -82 -43zM212 633q0 16 17 19q14 2 19 2q22 0 22 -17q0 -12 -18 -22q-13 -8 -20 -8q-8 0 -14 8t-6 18z" />
    <glyph glyph-name="g.alt" horiz-adv-x="547" 
d="M-165 -590q-8 6 -7 15q1 7 7.5 11t14.5 -1q40 -21 91 -21q132 0 266 150q69 77 122 172.5t87.5 205.5t55 203t40.5 216q-117 -174 -251 -281q-96 -80 -172 -80q-36 0 -53.5 20.5t-17.5 50.5q0 81 67.5 171t152.5 156q93 79 176 79q59 0 82 -44l2 -8q0 -15 -14 -15
q-9 0 -14 8q-15 29 -53 29q-72 0 -158 -67.5t-146 -154.5q-65 -92 -65 -155q0 -38 41 -40q38 -1 87 28q96 56 193.5 163.5t157.5 225.5q3 7 12 7q15 0 15 -15v-4l-6 -39q-21 -123 -37 -202.5t-45.5 -190t-72 -204t-99.5 -174.5q-172 -241 -353 -241q-54 0 -106 26z" />
    </font>
</defs>
</svg>
